<svg width="102" height="102" viewBox="0 0 102 102" fill="none" xmlns="http://www.w3.org/2000/svg">
<path d="M1 46.7865L23.1488 36.3417C23.4525 36.1985 23.8077 36.2172 24.0946 36.3915L31.4054 40.8336M1 46.7865L20.9324 56.0562M1 46.7865V74.5585C1 74.9272 1.20288 75.266 1.52791 75.44L20.9324 85.8315M41.2027 46.7865L20.9324 56.0562M41.2027 46.7865L31.4054 40.8336M41.2027 46.7865V65.2946M20.9324 56.0562V85.8315M20.9324 85.8315L33.0946 80.073M51.3378 58.5843V21.2247M51.3378 58.5843L63.5 65.8315M51.3378 58.5843L41.2027 65.2946M33.0946 70.6629L51.3378 78.5281M33.0946 70.6629V80.073M33.0946 70.6629L41.2027 65.2946M51.3378 101L33.5608 89.7774C33.2706 89.5942 33.0946 89.275 33.0946 88.9318V80.073M51.3378 101L71.0545 91.1638C71.3937 90.9946 71.6081 90.6481 71.6081 90.269V80.7753M51.3378 101V78.5281M71.6081 70.6629L51.3378 78.5281M71.6081 70.6629L63.5 65.8315M71.6081 70.6629V80.7753M31.4054 12.7978L50.8327 1.29896C51.1446 1.11438 51.5319 1.11296 51.8451 1.29525L71.6081 12.7978M31.4054 12.7978L51.3378 21.2247M31.4054 12.7978V40.8336M71.6081 12.7978L51.3378 21.2247M71.6081 12.7978V32.1798M71.6081 32.1798L63.5 37.5169M71.6081 32.1798L81.5629 25.5047C81.88 25.2921 82.2906 25.2786 82.621 25.4699L101 36.1124M63.5 37.5169L82.0811 46.7865M63.5 37.5169V65.8315M82.0811 46.7865L101 36.1124M82.0811 46.7865V84.1461M101 36.1124V74.5253C101 74.9113 100.778 75.2629 100.429 75.4285L82.0811 84.1461M82.0811 84.1461L71.6081 80.7753" stroke="#141414"/>
</svg>
