<svg width="100" height="100" viewBox="0 0 100 100" fill="none" xmlns="http://www.w3.org/2000/svg">
<mask id="path-1-inside-1_1738_43" fill="white">
<path d="M50 100C61.076 100 71.8385 96.3223 80.5983 89.5442C89.3582 82.766 95.6194 73.2711 98.3994 62.5497C101.179 51.8282 100.321 40.4871 95.9583 30.3065C91.5958 20.1258 83.9763 11.6818 74.2958 6.29975L73.8202 7.15531C83.3111 12.432 90.7814 20.7106 95.0585 30.692C99.3356 40.6734 100.177 51.7924 97.4519 62.304C94.7263 72.8155 88.5876 82.1245 79.9993 88.77C71.411 95.4154 60.8592 99.0211 50 99.0211V100Z"/>
</mask>
<path d="M50 100C61.076 100 71.8385 96.3223 80.5983 89.5442C89.3582 82.766 95.6194 73.2711 98.3994 62.5497C101.179 51.8282 100.321 40.4871 95.9583 30.3065C91.5958 20.1258 83.9763 11.6818 74.2958 6.29975L73.8202 7.15531C83.3111 12.432 90.7814 20.7106 95.0585 30.692C99.3356 40.6734 100.177 51.7924 97.4519 62.304C94.7263 72.8155 88.5876 82.1245 79.9993 88.77C71.411 95.4154 60.8592 99.0211 50 99.0211V100Z" stroke="#111111" stroke-width="2" stroke-dasharray="4 4" mask="url(#path-1-inside-1_1738_43)"/>
<mask id="path-2-inside-2_1738_43" fill="white">
<path d="M70.5003 4.39587C63.6986 1.33832 56.2991 -0.159075 48.8438 0.01337C41.3885 0.185815 34.0661 2.02373 27.413 5.39249C20.76 8.76126 14.9447 13.5756 10.3932 19.4828C5.84165 25.39 2.66911 32.2405 1.10794 39.5326C-0.453237 46.8247 -0.363509 54.3736 1.37055 61.6266C3.10461 68.8795 6.43909 75.6527 11.1297 81.45C15.8204 87.2474 21.7485 91.9221 28.4797 95.1318C35.211 98.3415 42.5749 100.005 50.0322 100L50.0316 99.0211C42.7203 99.0258 35.5005 97.395 28.901 94.2482C22.3016 91.1013 16.4896 86.5182 11.8907 80.8343C7.29192 75.1504 4.02273 68.5098 2.32262 61.3989C0.622505 54.288 0.534533 46.8869 2.06514 39.7375C3.59576 32.5882 6.70618 25.8718 11.1686 20.0802C15.631 14.2887 21.3325 9.56863 27.8553 6.26582C34.3781 2.963 41.5571 1.16107 48.8664 0.992005C56.1758 0.822937 63.4304 2.29101 70.099 5.2887L70.5003 4.39587Z"/>
</mask>
<path d="M70.5003 4.39587C63.6986 1.33832 56.2991 -0.159075 48.8438 0.01337C41.3885 0.185815 34.0661 2.02373 27.413 5.39249C20.76 8.76126 14.9447 13.5756 10.3932 19.4828C5.84165 25.39 2.66911 32.2405 1.10794 39.5326C-0.453237 46.8247 -0.363509 54.3736 1.37055 61.6266C3.10461 68.8795 6.43909 75.6527 11.1297 81.45C15.8204 87.2474 21.7485 91.9221 28.4797 95.1318C35.211 98.3415 42.5749 100.005 50.0322 100L50.0316 99.0211C42.7203 99.0258 35.5005 97.395 28.901 94.2482C22.3016 91.1013 16.4896 86.5182 11.8907 80.8343C7.29192 75.1504 4.02273 68.5098 2.32262 61.3989C0.622505 54.288 0.534533 46.8869 2.06514 39.7375C3.59576 32.5882 6.70618 25.8718 11.1686 20.0802C15.631 14.2887 21.3325 9.56863 27.8553 6.26582C34.3781 2.963 41.5571 1.16107 48.8664 0.992005C56.1758 0.822937 63.4304 2.29101 70.099 5.2887L70.5003 4.39587Z" stroke="#111111" stroke-width="2" mask="url(#path-2-inside-2_1738_43)"/>
<circle cx="49.9999" cy="58.433" r="41.0663" stroke="#111111"/>
<circle cx="49.9992" cy="66.8674" r="32.6325" stroke="#111111"/>
<circle cx="50.0005" cy="75.3008" r="24.1988" stroke="#111111"/>
<circle cx="49.9997" cy="82.5294" r="16.9699" stroke="#111111"/>
</svg>
