<svg width="158" height="56" viewBox="0 0 158 56" fill="none" xmlns="http://www.w3.org/2000/svg">
<path d="M17.1747 3.99805C13.7778 3.99805 10.4573 5.0053 7.63293 6.89244C4.80857 8.77958 2.60725 11.4618 1.30734 14.6C0.00743381 17.7382 -0.332682 21.1914 0.330006 24.5229C0.992695 27.8544 2.62842 30.9146 5.03034 33.3164C7.43226 35.7183 10.4925 37.354 13.8241 38.0167C17.1556 38.6793 20.6089 38.3392 23.7471 37.0394C26.8854 35.7395 29.5677 33.5382 31.4549 30.7139C33.3421 27.8896 34.3493 24.5691 34.3493 21.1724H26.1591C26.1591 22.9493 25.6322 24.6863 24.645 26.1637C23.6577 27.6412 22.2546 28.7927 20.6129 29.4727C18.9712 30.1527 17.1647 30.3306 15.4219 29.984C13.6791 29.6373 12.0782 28.7817 10.8217 27.5252C9.56521 26.2687 8.70952 24.6679 8.36286 22.9251C8.01619 21.1823 8.19411 19.3759 8.87412 17.7342C9.55413 16.0926 10.7057 14.6894 12.1832 13.7022C13.6607 12.715 15.3977 12.1881 17.1747 12.1881V3.99805Z" fill="#FFA88C"/>
<path d="M0 38.8247C-1.97174e-07 41.0801 0.444236 43.3133 1.30734 45.397C2.17045 47.4807 3.43553 49.374 5.03034 50.9688C6.62516 52.5636 8.51848 53.8286 10.6022 54.6917C12.6859 55.5548 14.9193 55.999 17.1747 55.999C19.4301 55.999 21.6634 55.5548 23.7471 54.6917C25.8309 53.8286 27.7242 52.5636 29.319 50.9688C30.9138 49.374 32.1789 47.4807 33.042 45.397C33.9051 43.3133 34.3493 41.0801 34.3493 38.8247H26.1591C26.1591 40.0045 25.9267 41.1728 25.4752 42.2628C25.0237 43.3528 24.3619 44.3433 23.5276 45.1775C22.6933 46.0118 21.7029 46.6736 20.6129 47.1251C19.5228 47.5766 18.3545 47.809 17.1747 47.809C15.9948 47.809 14.8265 47.5766 13.7365 47.1251C12.6464 46.6736 11.656 46.0118 10.8217 45.1775C9.98742 44.3433 9.32563 43.3528 8.87412 42.2628C8.42261 41.1728 8.19022 40.0045 8.19022 38.8247L0 38.8247Z" fill="#FFA88C"/>
<path d="M21.9453 11.6311V3.99805H34.3492V16.6402H26.7161V11.6311H21.9453Z" fill="#FFA88C"/>
<path d="M58.024 39.718C55.416 39.718 53.128 39.134 51.16 37.966C49.192 36.798 47.656 35.19 46.552 33.142C45.464 31.078 44.92 28.71 44.92 26.038C44.92 23.334 45.48 20.958 46.6 18.91C47.72 16.846 49.264 15.238 51.232 14.086C53.2 12.934 55.464 12.358 58.024 12.358C60.632 12.358 62.92 12.942 64.888 14.11C66.872 15.278 68.416 16.894 69.52 18.958C70.624 21.006 71.176 23.366 71.176 26.038C71.176 28.726 70.616 31.102 69.496 33.166C68.392 35.214 66.848 36.822 64.864 37.99C62.896 39.142 60.616 39.718 58.024 39.718ZM58.024 33.622C60.12 33.622 61.68 32.918 62.704 31.51C63.744 30.086 64.264 28.262 64.264 26.038C64.264 23.734 63.736 21.894 62.68 20.518C61.64 19.142 60.088 18.454 58.024 18.454C56.6 18.454 55.432 18.774 54.52 19.414C53.608 20.054 52.928 20.942 52.48 22.078C52.048 23.214 51.832 24.534 51.832 26.038C51.832 28.358 52.352 30.206 53.392 31.582C54.448 32.942 55.992 33.622 58.024 33.622ZM94.1178 38.998V26.758C94.1178 26.166 94.0858 25.414 94.0218 24.502C93.9578 23.574 93.7578 22.646 93.4218 21.718C93.0858 20.79 92.5338 20.014 91.7658 19.39C91.0138 18.766 89.9418 18.454 88.5498 18.454C87.9898 18.454 87.3898 18.542 86.7498 18.718C86.1098 18.894 85.5098 19.238 84.9498 19.75C84.3898 20.246 83.9258 20.982 83.5578 21.958C83.2058 22.934 83.0298 24.23 83.0298 25.846L79.2858 24.07C79.2858 22.022 79.7018 20.102 80.5338 18.31C81.3658 16.518 82.6138 15.07 84.2778 13.966C85.9578 12.862 88.0698 12.31 90.6138 12.31C92.6458 12.31 94.3018 12.654 95.5818 13.342C96.8618 14.03 97.8538 14.902 98.5578 15.958C99.2778 17.014 99.7898 18.118 100.094 19.27C100.398 20.406 100.582 21.446 100.646 22.39C100.71 23.334 100.742 24.022 100.742 24.454V38.998H94.1178ZM76.4058 38.998V13.078H82.2138V21.67H83.0298V38.998H76.4058ZM117.925 39.718C115.237 39.718 112.933 39.118 111.013 37.918C109.093 36.718 107.621 35.086 106.597 33.022C105.573 30.958 105.061 28.63 105.061 26.038C105.061 23.414 105.589 21.07 106.645 19.006C107.717 16.942 109.221 15.318 111.157 14.134C113.093 12.95 115.381 12.358 118.021 12.358C121.077 12.358 123.637 13.134 125.701 14.686C127.781 16.222 129.109 18.326 129.685 20.998L123.157 22.726C122.773 21.382 122.101 20.334 121.141 19.582C120.197 18.83 119.125 18.454 117.925 18.454C116.549 18.454 115.421 18.79 114.541 19.462C113.661 20.118 113.013 21.022 112.597 22.174C112.181 23.31 111.973 24.598 111.973 26.038C111.973 28.294 112.469 30.126 113.461 31.534C114.469 32.926 115.957 33.622 117.925 33.622C119.397 33.622 120.517 33.286 121.285 32.614C122.053 31.942 122.629 30.982 123.013 29.734L129.685 31.126C128.949 33.878 127.557 35.998 125.509 37.486C123.461 38.974 120.933 39.718 117.925 39.718ZM136.86 50.518L141.852 36.79L141.948 40.822L130.668 13.078H137.436L145.02 32.71H143.484L151.02 13.078H157.548L142.908 50.518H136.86Z" fill="white"/>
</svg>
