<svg width="107" height="44" viewBox="0 0 107 44" fill="none" xmlns="http://www.w3.org/2000/svg">
<path d="M13.2113 4C10.5983 4 8.04407 4.77481 5.87149 6.22646C3.6989 7.6781 2.00558 9.74138 1.00565 12.1554C0.00571832 14.5694 -0.255909 17.2257 0.253851 19.7884C0.763611 22.351 2.02186 24.705 3.8695 26.5526C5.71713 28.4002 8.07115 29.6584 10.6339 30.1682C13.1966 30.6779 15.853 30.4163 18.267 29.4164C20.6811 28.4165 22.7444 26.7232 24.1961 24.5507C25.6477 22.3781 26.4226 19.8239 26.4226 17.211H20.1224C20.1224 18.5779 19.7171 19.914 18.9577 21.0505C18.1983 22.187 17.1189 23.0728 15.8561 23.5959C14.5932 24.119 13.2036 24.2558 11.863 23.9892C10.5224 23.7225 9.29093 23.0643 8.32439 22.0978C7.35785 21.1313 6.69963 19.8999 6.43297 18.5593C6.1663 17.2187 6.30316 15.8291 6.82625 14.5663C7.34933 13.3035 8.23515 12.2241 9.37168 11.4648C10.5082 10.7054 11.8444 10.3 13.2113 10.3V4Z" fill="#141414"/>
<path d="M0 30.789C-1.51672e-07 32.5239 0.34172 34.2418 1.00565 35.8446C1.66958 37.4475 2.64271 38.9038 3.86949 40.1306C5.09628 41.3573 6.55268 42.3305 8.15554 42.9944C9.75841 43.6583 11.4764 44 13.2113 44C14.9462 44 16.6642 43.6583 18.267 42.9944C19.8699 42.3305 21.3263 41.3573 22.5531 40.1306C23.7799 38.9038 24.753 37.4475 25.4169 35.8446C26.0808 34.2418 26.4226 32.5239 26.4226 30.789H20.1224C20.1224 31.6966 19.9436 32.5952 19.5963 33.4337C19.249 34.2722 18.7399 35.034 18.0982 35.6758C17.4564 36.3175 16.6945 36.8266 15.8561 37.1739C15.0176 37.5212 14.1189 37.7 13.2113 37.7C12.3037 37.7 11.405 37.5212 10.5665 37.1739C9.72802 36.8266 8.96615 36.3175 8.32439 35.6758C7.68263 35.034 7.17356 34.2722 6.82625 33.4337C6.47893 32.5952 6.30017 31.6966 6.30017 30.789H0Z" fill="#141414"/>
<path d="M16.8811 9.87156V4H26.4225V13.7248H20.5509V9.87156H16.8811Z" fill="#141414"/>
<path d="M40.016 33.48C38.2773 33.48 36.752 33.0907 35.44 32.312C34.128 31.5333 33.104 30.4613 32.368 29.096C31.6427 27.72 31.28 26.1413 31.28 24.36C31.28 22.5573 31.6533 20.9733 32.4 19.608C33.1467 18.232 34.176 17.16 35.488 16.392C36.8 15.624 38.3093 15.24 40.016 15.24C41.7547 15.24 43.28 15.6293 44.592 16.408C45.9147 17.1867 46.944 18.264 47.68 19.64C48.416 21.0053 48.784 22.5787 48.784 24.36C48.784 26.152 48.4107 27.736 47.664 29.112C46.928 30.4773 45.8987 31.5493 44.576 32.328C43.264 33.096 41.744 33.48 40.016 33.48ZM40.016 29.416C41.4133 29.416 42.4533 28.9467 43.136 28.008C43.8293 27.0587 44.176 25.8427 44.176 24.36C44.176 22.824 43.824 21.5973 43.12 20.68C42.4267 19.7627 41.392 19.304 40.016 19.304C39.0667 19.304 38.288 19.5173 37.68 19.944C37.072 20.3707 36.6187 20.9627 36.32 21.72C36.032 22.4773 35.888 23.3573 35.888 24.36C35.888 25.9067 36.2347 27.1387 36.928 28.056C37.632 28.9627 38.6613 29.416 40.016 29.416ZM64.0785 33V24.84C64.0785 24.4453 64.0572 23.944 64.0145 23.336C63.9718 22.7173 63.8385 22.0987 63.6145 21.48C63.3905 20.8613 63.0225 20.344 62.5105 19.928C62.0092 19.512 61.2945 19.304 60.3665 19.304C59.9932 19.304 59.5932 19.3627 59.1665 19.48C58.7398 19.5973 58.3398 19.8267 57.9665 20.168C57.5932 20.4987 57.2838 20.9893 57.0385 21.64C56.8038 22.2907 56.6865 23.1547 56.6865 24.232L54.1905 23.048C54.1905 21.6827 54.4678 20.4027 55.0225 19.208C55.5772 18.0133 56.4092 17.048 57.5185 16.312C58.6385 15.576 60.0465 15.208 61.7425 15.208C63.0972 15.208 64.2012 15.4373 65.0545 15.896C65.9078 16.3547 66.5692 16.936 67.0385 17.64C67.5185 18.344 67.8598 19.08 68.0625 19.848C68.2652 20.6053 68.3878 21.2987 68.4305 21.928C68.4732 22.5573 68.4945 23.016 68.4945 23.304V33H64.0785ZM52.2705 33V15.72H56.1425V21.448H56.6865V33H52.2705ZM79.9498 33.48C78.1578 33.48 76.6218 33.08 75.3418 32.28C74.0618 31.48 73.0804 30.392 72.3978 29.016C71.7151 27.64 71.3738 26.088 71.3738 24.36C71.3738 22.6107 71.7258 21.048 72.4298 19.672C73.1444 18.296 74.1471 17.2133 75.4378 16.424C76.7284 15.6347 78.2538 15.24 80.0138 15.24C82.0511 15.24 83.7578 15.7573 85.1338 16.792C86.5204 17.816 87.4058 19.2187 87.7898 21L83.4378 22.152C83.1818 21.256 82.7338 20.5573 82.0938 20.056C81.4644 19.5547 80.7498 19.304 79.9498 19.304C79.0324 19.304 78.2804 19.528 77.6938 19.976C77.1071 20.4133 76.6751 21.016 76.3978 21.784C76.1204 22.5413 75.9818 23.4 75.9818 24.36C75.9818 25.864 76.3124 27.0853 76.9738 28.024C77.6458 28.952 78.6378 29.416 79.9498 29.416C80.9311 29.416 81.6778 29.192 82.1898 28.744C82.7018 28.296 83.0858 27.656 83.3418 26.824L87.7898 27.752C87.2991 29.5867 86.3711 31 85.0058 31.992C83.6404 32.984 81.9551 33.48 79.9498 33.48ZM92.573 40.68L95.901 31.528L95.965 34.216L88.445 15.72H92.957L98.013 28.808H96.989L102.013 15.72H106.365L96.605 40.68H92.573Z" fill="#141414"/>
</svg>
