<svg width="158" height="56" viewBox="0 0 158 56" fill="none" xmlns="http://www.w3.org/2000/svg">
<path d="M17.1747 4C13.7778 4 10.4573 5.00726 7.63293 6.89439C4.80857 8.78153 2.60725 11.4638 1.30734 14.602C0.00743381 17.7402 -0.332682 21.1934 0.330006 24.5249C0.992695 27.8563 2.62842 30.9165 5.03034 33.3184C7.43226 35.7203 10.4925 37.3559 13.8241 38.0186C17.1556 38.6813 20.6089 38.3412 23.7471 37.0413C26.8854 35.7414 29.5677 33.5402 31.4549 30.7158C33.3421 27.8915 34.3493 24.5711 34.3493 21.1743H26.1591C26.1591 22.9512 25.6322 24.6882 24.645 26.1657C23.6577 27.6432 22.2546 28.7947 20.6129 29.4747C18.9712 30.1547 17.1647 30.3326 15.4219 29.9859C13.6791 29.6393 12.0782 28.7836 10.8217 27.5271C9.56521 26.2707 8.70952 24.6698 8.36286 22.9271C8.01619 21.1843 8.19411 19.3778 8.87412 17.7362C9.55413 16.0945 10.7057 14.6914 12.1832 13.7042C13.6607 12.717 15.3977 12.1901 17.1747 12.1901V4Z" fill="#99E5B7"/>
<path d="M0 38.8267C-1.97174e-07 41.082 0.444236 43.3153 1.30734 45.399C2.17045 47.4827 3.43553 49.3759 5.03034 50.9707C6.62516 52.5655 8.51848 53.8306 10.6022 54.6937C12.6859 55.5567 14.9193 56.001 17.1747 56.001C19.4301 56.001 21.6634 55.5567 23.7471 54.6937C25.8309 53.8306 27.7242 52.5655 29.319 50.9707C30.9138 49.3759 32.1789 47.4827 33.042 45.399C33.9051 43.3153 34.3493 41.082 34.3493 38.8267H26.1591C26.1591 40.0065 25.9267 41.1748 25.4752 42.2648C25.0237 43.3548 24.3619 44.3452 23.5276 45.1795C22.6933 46.0138 21.7029 46.6755 20.6129 47.127C19.5228 47.5785 18.3545 47.8109 17.1747 47.8109C15.9948 47.8109 14.8265 47.5785 13.7365 47.127C12.6464 46.6755 11.656 46.0138 10.8217 45.1795C9.98742 44.3452 9.32563 43.3548 8.87412 42.2648C8.42261 41.1748 8.19022 40.0065 8.19022 38.8267L0 38.8267Z" fill="#99E5B7"/>
<path d="M21.9453 11.633V4H34.3493V16.6422H26.7161V11.633H21.9453Z" fill="#99E5B7"/>
<g opacity="0.1">
<mask id="path-4-outside-1_1686_8" maskUnits="userSpaceOnUse" x="43" y="11" width="117" height="41" fill="black">
<rect fill="white" x="43" y="11" width="117" height="41"/>
<path d="M58.024 39.72C55.416 39.72 53.128 39.136 51.16 37.968C49.192 36.8 47.656 35.192 46.552 33.144C45.464 31.08 44.92 28.712 44.92 26.04C44.92 23.336 45.48 20.96 46.6 18.912C47.72 16.848 49.264 15.24 51.232 14.088C53.2 12.936 55.464 12.36 58.024 12.36C60.632 12.36 62.92 12.944 64.888 14.112C66.872 15.28 68.416 16.896 69.52 18.96C70.624 21.008 71.176 23.368 71.176 26.04C71.176 28.728 70.616 31.104 69.496 33.168C68.392 35.216 66.848 36.824 64.864 37.992C62.896 39.144 60.616 39.72 58.024 39.72ZM58.024 33.624C60.12 33.624 61.68 32.92 62.704 31.512C63.744 30.088 64.264 28.264 64.264 26.04C64.264 23.736 63.736 21.896 62.68 20.52C61.64 19.144 60.088 18.456 58.024 18.456C56.6 18.456 55.432 18.776 54.52 19.416C53.608 20.056 52.928 20.944 52.48 22.08C52.048 23.216 51.832 24.536 51.832 26.04C51.832 28.36 52.352 30.208 53.392 31.584C54.448 32.944 55.992 33.624 58.024 33.624ZM94.1178 39V26.76C94.1178 26.168 94.0858 25.416 94.0218 24.504C93.9578 23.576 93.7578 22.648 93.4218 21.72C93.0858 20.792 92.5338 20.016 91.7658 19.392C91.0138 18.768 89.9418 18.456 88.5498 18.456C87.9898 18.456 87.3898 18.544 86.7498 18.72C86.1098 18.896 85.5098 19.24 84.9498 19.752C84.3898 20.248 83.9258 20.984 83.5578 21.96C83.2058 22.936 83.0298 24.232 83.0298 25.848L79.2858 24.072C79.2858 22.024 79.7018 20.104 80.5338 18.312C81.3658 16.52 82.6138 15.072 84.2778 13.968C85.9578 12.864 88.0698 12.312 90.6138 12.312C92.6458 12.312 94.3018 12.656 95.5818 13.344C96.8618 14.032 97.8538 14.904 98.5578 15.96C99.2778 17.016 99.7898 18.12 100.094 19.272C100.398 20.408 100.582 21.448 100.646 22.392C100.71 23.336 100.742 24.024 100.742 24.456V39H94.1178ZM76.4058 39V13.08H82.2138V21.672H83.0298V39H76.4058ZM117.925 39.72C115.237 39.72 112.933 39.12 111.013 37.92C109.093 36.72 107.621 35.088 106.597 33.024C105.573 30.96 105.061 28.632 105.061 26.04C105.061 23.416 105.589 21.072 106.645 19.008C107.717 16.944 109.221 15.32 111.157 14.136C113.093 12.952 115.381 12.36 118.021 12.36C121.077 12.36 123.637 13.136 125.701 14.688C127.781 16.224 129.109 18.328 129.685 21L123.157 22.728C122.773 21.384 122.101 20.336 121.141 19.584C120.197 18.832 119.125 18.456 117.925 18.456C116.549 18.456 115.421 18.792 114.541 19.464C113.661 20.12 113.013 21.024 112.597 22.176C112.181 23.312 111.973 24.6 111.973 26.04C111.973 28.296 112.469 30.128 113.461 31.536C114.469 32.928 115.957 33.624 117.925 33.624C119.397 33.624 120.517 33.288 121.285 32.616C122.053 31.944 122.629 30.984 123.013 29.736L129.685 31.128C128.949 33.88 127.557 36 125.509 37.488C123.461 38.976 120.933 39.72 117.925 39.72ZM136.86 50.52L141.852 36.792L141.948 40.824L130.668 13.08H137.436L145.02 32.712H143.484L151.02 13.08H157.548L142.908 50.52H136.86Z"/>
</mask>
<path d="M51.16 37.968L50.6496 38.8279L51.16 37.968ZM46.552 33.144L45.6673 33.6103L45.6717 33.6185L46.552 33.144ZM46.6 18.912L47.4774 19.3918L47.4789 19.3889L46.6 18.912ZM51.232 14.088L50.7268 13.225L50.7268 13.225L51.232 14.088ZM64.888 14.112L64.3776 14.972L64.3807 14.9738L64.888 14.112ZM69.52 18.96L68.6382 19.4317L68.6397 19.4345L69.52 18.96ZM69.496 33.168L68.6171 32.6911L68.6158 32.6935L69.496 33.168ZM64.864 37.992L65.3692 38.855L65.3713 38.8538L64.864 37.992ZM62.704 31.512L61.8964 30.9222L61.8953 30.9238L62.704 31.512ZM62.68 20.52L61.8822 21.123L61.8867 21.1288L62.68 20.52ZM54.52 19.416L55.0944 20.2346L54.52 19.416ZM52.48 22.08L51.5497 21.7131L51.5453 21.7246L52.48 22.08ZM53.392 31.584L52.5942 32.187L52.6021 32.1973L53.392 31.584ZM58.024 38.72C55.5701 38.72 53.4633 38.1722 51.6704 37.108L50.6496 38.8279C52.7927 40.0998 55.2619 40.72 58.024 40.72V38.72ZM51.6704 37.108C49.8611 36.0342 48.4517 34.5606 47.4323 32.6695L45.6717 33.6185C46.8603 35.8234 48.5229 37.5658 50.6496 38.8279L51.6704 37.108ZM47.4366 32.6777C46.4348 30.7771 45.92 28.5733 45.92 26.04H43.92C43.92 28.8507 44.4932 31.3829 45.6674 33.6103L47.4366 32.6777ZM45.92 26.04C45.92 23.4769 46.4498 21.2709 47.4774 19.3918L45.7226 18.4322C44.5102 20.6491 43.92 23.1951 43.92 26.04H45.92ZM47.4789 19.3889C48.5146 17.4803 49.9315 16.008 51.7372 14.951L50.7268 13.225C48.5965 14.472 46.9254 16.2157 45.7211 18.4351L47.4789 19.3889ZM51.7372 14.951C53.5338 13.8993 55.6193 13.36 58.024 13.36V11.36C55.3087 11.36 52.8662 11.9727 50.7268 13.225L51.7372 14.951ZM58.024 13.36C60.4779 13.36 62.5847 13.9078 64.3776 14.9719L65.3984 13.252C63.2553 11.9802 60.7861 11.36 58.024 11.36V13.36ZM64.3807 14.9738C66.2036 16.0469 67.6193 17.5268 68.6382 19.4317L70.4018 18.4883C69.2127 16.2652 67.5404 14.513 65.3953 13.2502L64.3807 14.9738ZM68.6397 19.4345C69.6542 21.3163 70.176 23.5088 70.176 26.04H72.176C72.176 23.2272 71.5938 20.6997 70.4003 18.4855L68.6397 19.4345ZM70.176 26.04C70.176 28.5858 69.6468 30.7935 68.6171 32.6911L70.3749 33.6449C71.5852 31.4145 72.176 28.8702 72.176 26.04H70.176ZM68.6158 32.6935C67.5974 34.5826 66.1816 36.0559 64.3567 37.1302L65.3713 38.8538C67.5144 37.5921 69.1866 35.8494 70.3763 33.6425L68.6158 32.6935ZM64.3588 37.129C62.5641 38.1796 60.4632 38.72 58.024 38.72V40.72C60.7688 40.72 63.2279 40.1084 65.3692 38.855L64.3588 37.129ZM58.024 34.624C60.3663 34.624 62.2611 33.8212 63.5127 32.1002L61.8953 30.9238C61.0989 32.0188 59.8737 32.624 58.024 32.624V34.624ZM63.5116 32.1018C64.706 30.4664 65.264 28.4201 65.264 26.04H63.264C63.264 28.1079 62.782 29.7096 61.8964 30.9222L63.5116 32.1018ZM65.264 26.04C65.264 23.5879 64.7015 21.5115 63.4733 19.9112L61.8867 21.1288C62.7705 22.2805 63.264 23.8841 63.264 26.04H65.264ZM63.4778 19.917C62.2106 18.2405 60.3322 17.456 58.024 17.456V19.456C59.8438 19.456 61.0694 20.0475 61.8822 21.123L63.4778 19.917ZM58.024 17.456C56.4516 17.456 55.0673 17.8103 53.9456 18.5974L55.0944 20.2346C55.7967 19.7417 56.7484 19.456 58.024 19.456V17.456ZM53.9456 18.5974C52.858 19.3607 52.0624 20.4132 51.5497 21.7131L53.4103 22.4469C53.7936 21.4748 54.358 20.7513 55.0944 20.2346L53.9456 18.5974ZM51.5453 21.7246C51.0612 22.9975 50.832 24.4424 50.832 26.04H52.832C52.832 24.6296 53.0348 23.4345 53.4147 22.4354L51.5453 21.7246ZM50.832 26.04C50.832 28.5032 51.3843 30.5861 52.5942 32.187L54.1898 30.981C53.3197 29.8299 52.832 28.2168 52.832 26.04H50.832ZM52.6021 32.1973C53.8829 33.8467 55.7456 34.624 58.024 34.624V32.624C56.2384 32.624 55.0131 32.0413 54.1819 30.9707L52.6021 32.1973ZM94.1178 39H93.1178V40H94.1178V39ZM94.0218 24.504L93.0241 24.5728L93.0242 24.574L94.0218 24.504ZM93.4218 21.72L94.362 21.3796L93.4218 21.72ZM91.7658 19.392L91.1271 20.1616L91.1352 20.1681L91.7658 19.392ZM86.7497 18.72L87.0149 19.6842L86.7497 18.72ZM84.9497 19.752L85.6128 20.5006L85.6187 20.4954L85.6245 20.49L84.9497 19.752ZM83.5578 21.96L82.6221 21.6072L82.6195 21.6139L82.6171 21.6207L83.5578 21.96ZM83.0298 25.848L82.6012 26.7515L84.0298 27.4292V25.848H83.0298ZM79.2858 24.072H78.2858V24.7044L78.8572 24.9755L79.2858 24.072ZM80.5337 18.312L79.6267 17.8909L80.5337 18.312ZM84.2778 13.968L83.7286 13.1323L83.7249 13.1347L84.2778 13.968ZM95.5817 13.344L95.1083 14.2248V14.2248L95.5817 13.344ZM98.5578 15.96L97.7257 16.5147L97.7315 16.5233L98.5578 15.96ZM100.094 19.272L99.1268 19.5272L99.1277 19.5305L100.094 19.272ZM100.646 22.392L99.648 22.4596V22.4596L100.646 22.392ZM100.742 39V40H101.742V39H100.742ZM76.4058 39H75.4058V40H76.4058V39ZM76.4058 13.08V12.08H75.4058V13.08H76.4058ZM82.2137 13.08H83.2137V12.08H82.2137V13.08ZM82.2137 21.672H81.2137V22.672H82.2137V21.672ZM83.0298 21.672H84.0298V20.672H83.0298V21.672ZM83.0298 39V40H84.0298V39H83.0298ZM95.1178 39V26.76H93.1178V39H95.1178ZM95.1178 26.76C95.1178 26.1357 95.0842 25.3582 95.0193 24.434L93.0242 24.574C93.0873 25.4737 93.1178 26.2003 93.1178 26.76H95.1178ZM95.0194 24.4352C94.9486 23.4089 94.7277 22.3897 94.362 21.3796L92.4815 22.0604C92.7878 22.9063 92.9669 23.7431 93.0241 24.5728L95.0194 24.4352ZM94.362 21.3796C93.9641 20.2805 93.3048 19.354 92.3963 18.6159L91.1352 20.1681C91.7627 20.678 92.2074 21.3035 92.4815 22.0604L94.362 21.3796ZM92.4043 18.6224C91.4101 17.7974 90.0778 17.456 88.5498 17.456V19.456C89.8057 19.456 90.6174 19.7386 91.1272 20.1616L92.4043 18.6224ZM88.5498 17.456C87.8854 17.456 87.1955 17.5603 86.4846 17.7558L87.0149 19.6842C87.584 19.5277 88.0941 19.456 88.5498 19.456V17.456ZM86.4846 17.7558C85.6716 17.9794 84.9349 18.4106 84.275 19.014L85.6245 20.49C86.0846 20.0694 86.548 19.8126 87.0149 19.6842L86.4846 17.7558ZM84.2867 19.0034C83.5666 19.6413 83.026 20.5357 82.6221 21.6072L84.4934 22.3128C84.8255 21.4323 85.2129 20.8547 85.6128 20.5006L84.2867 19.0034ZM82.6171 21.6207C82.2102 22.7487 82.0298 24.1735 82.0298 25.848H84.0298C84.0298 24.2905 84.2013 23.1233 84.4984 22.2993L82.6171 21.6207ZM83.4583 24.9445L79.7143 23.1685L78.8572 24.9755L82.6012 26.7515L83.4583 24.9445ZM80.2858 24.072C80.2858 22.164 80.6723 20.3883 81.4408 18.7331L79.6267 17.8909C78.7312 19.8197 78.2858 21.884 78.2858 24.072H80.2858ZM81.4408 18.7331C82.1941 17.1104 83.3187 15.8044 84.8306 14.8013L83.7249 13.1347C81.9088 14.3396 80.5374 15.9296 79.6267 17.8909L81.4408 18.7331ZM84.8269 14.8037C86.3055 13.8321 88.2133 13.312 90.6138 13.312V11.312C87.9262 11.312 85.61 11.8959 83.7286 13.1323L84.8269 14.8037ZM90.6138 13.312C92.5427 13.312 94.0202 13.64 95.1083 14.2248L96.0552 12.4632C94.5833 11.672 92.7488 11.312 90.6138 11.312V13.312ZM95.1083 14.2248C96.265 14.8465 97.1251 15.6138 97.7257 16.5147L99.3898 15.4053C98.5824 14.1942 97.4585 13.2175 96.0552 12.4632L95.1083 14.2248ZM97.7315 16.5233C98.3921 17.4922 98.8539 18.4929 99.1269 19.5272L101.061 19.0168C100.726 17.7471 100.163 16.5398 99.384 15.3967L97.7315 16.5233ZM99.1277 19.5305C99.4189 20.6184 99.5893 21.5934 99.648 22.4596L101.643 22.3244C101.574 21.3026 101.377 20.1976 101.06 19.0135L99.1277 19.5305ZM99.648 22.4596C99.7119 23.4011 99.7418 24.0603 99.7418 24.456H101.742C101.742 23.9877 101.708 23.2709 101.643 22.3244L99.648 22.4596ZM99.7418 24.456V39H101.742V24.456H99.7418ZM100.742 38H94.1178V40H100.742V38ZM77.4058 39V13.08H75.4058V39H77.4058ZM76.4058 14.08H82.2137V12.08H76.4058V14.08ZM81.2137 13.08V21.672H83.2137V13.08H81.2137ZM82.2137 22.672H83.0298V20.672H82.2137V22.672ZM82.0298 21.672V39H84.0298V21.672H82.0298ZM83.0298 38H76.4058V40H83.0298V38ZM106.597 33.024L107.492 32.5796L106.597 33.024ZM106.645 19.008L105.757 18.5471L105.754 18.5525L106.645 19.008ZM111.157 14.136L111.678 14.9891L111.157 14.136ZM125.701 14.688L125.1 15.4873L125.107 15.4924L125.701 14.688ZM129.685 21L129.941 21.9667L130.863 21.7224L130.662 20.7893L129.685 21ZM123.157 22.728L122.195 23.0027L122.465 23.9456L123.413 23.6947L123.157 22.728ZM121.141 19.584L120.518 20.3662L120.524 20.3712L121.141 19.584ZM114.541 19.464L115.138 20.2658L115.148 20.2588L114.541 19.464ZM112.597 22.176L113.536 22.5199L113.537 22.5156L112.597 22.176ZM113.461 31.536L112.643 32.112L112.651 32.1225L113.461 31.536ZM121.285 32.616L121.943 33.3686L121.285 32.616ZM123.013 29.736L123.217 28.7571L122.325 28.571L122.057 29.4419L123.013 29.736ZM129.685 31.128L130.651 31.3864L130.924 30.365L129.889 30.1491L129.685 31.128ZM117.925 38.72C115.389 38.72 113.276 38.1554 111.543 37.072L110.483 38.768C112.589 40.0846 115.085 40.72 117.925 40.72V38.72ZM111.543 37.072C109.782 35.9719 108.436 34.4809 107.492 32.5796L105.701 33.4684C106.806 35.6951 108.403 37.4681 110.483 38.768L111.543 37.072ZM107.492 32.5796C106.545 30.6701 106.061 28.4972 106.061 26.04H104.061C104.061 28.7668 104.6 31.2499 105.701 33.4684L107.492 32.5796ZM106.061 26.04C106.061 23.5533 106.56 21.3689 107.535 19.4635L105.754 18.5525C104.617 20.7751 104.061 23.2787 104.061 26.04H106.061ZM107.532 19.4689C108.522 17.5623 109.902 16.0757 111.678 14.9891L110.635 13.2829C108.54 14.5643 106.911 16.3257 105.757 18.5471L107.532 19.4689ZM111.678 14.9891C113.433 13.9159 115.534 13.36 118.021 13.36V11.36C115.227 11.36 112.752 11.9881 110.635 13.2829L111.678 14.9891ZM118.021 13.36C120.901 13.36 123.239 14.0882 125.1 15.4873L126.302 13.8887C124.034 12.1838 121.252 11.36 118.021 11.36V13.36ZM125.107 15.4924C126.979 16.8751 128.179 18.7619 128.707 21.2107L130.662 20.7893C130.038 17.8941 128.582 15.5729 126.295 13.8836L125.107 15.4924ZM129.429 20.0333L122.901 21.7613L123.413 23.6947L129.941 21.9667L129.429 20.0333ZM124.118 22.4533C123.685 20.9372 122.907 19.6974 121.757 18.7968L120.524 20.3712C121.294 20.9746 121.86 21.8308 122.195 23.0027L124.118 22.4533ZM121.764 18.8018C120.644 17.9097 119.352 17.456 117.925 17.456V19.456C118.897 19.456 119.749 19.7543 120.518 20.3662L121.764 18.8018ZM117.925 17.456C116.384 17.456 115.027 17.8346 113.934 18.6692L115.148 20.2588C115.815 19.7494 116.714 19.456 117.925 19.456V17.456ZM113.943 18.6623C112.888 19.4487 112.131 20.5222 111.656 21.8364L113.537 22.5156C113.895 21.5258 114.433 20.7913 115.138 20.2657L113.943 18.6623ZM111.658 21.8321C111.194 23.097 110.973 24.5045 110.973 26.04H112.973C112.973 24.6955 113.167 23.527 113.536 22.5199L111.658 21.8321ZM110.973 26.04C110.973 28.4388 111.5 30.4901 112.643 32.112L114.278 30.96C113.437 29.7659 112.973 28.1532 112.973 26.04H110.973ZM112.651 32.1225C113.876 33.8147 115.689 34.624 117.925 34.624V32.624C116.224 32.624 115.061 32.0413 114.271 30.9495L112.651 32.1225ZM117.925 34.624C119.533 34.624 120.927 34.258 121.943 33.3686L120.626 31.8634C120.107 32.318 119.26 32.624 117.925 32.624V34.624ZM121.943 33.3686C122.885 32.5445 123.545 31.4066 123.968 30.0301L122.057 29.4419C121.712 30.5614 121.22 31.3435 120.626 31.8634L121.943 33.3686ZM122.808 30.7149L129.48 32.1069L129.889 30.1491L123.217 28.7571L122.808 30.7149ZM128.719 30.8696C128.034 33.4295 126.76 35.3426 124.921 36.679L126.096 38.297C128.353 36.6574 129.863 34.3305 130.651 31.3864L128.719 30.8696ZM124.921 36.679C123.074 38.0208 120.762 38.72 117.925 38.72V40.72C121.103 40.72 123.847 39.9312 126.096 38.297L124.921 36.679ZM136.859 50.52L135.92 50.1783L135.432 51.52H136.859V50.52ZM141.852 36.792L142.851 36.7682L140.912 36.4503L141.852 36.792ZM141.948 40.824L141.021 41.2006L142.947 40.8002L141.948 40.824ZM130.668 13.08V12.08H129.181L129.741 13.4566L130.668 13.08ZM137.436 13.08L138.368 12.7196L138.121 12.08H137.436V13.08ZM145.02 32.712V33.712H146.478L145.952 32.3516L145.02 32.712ZM143.483 32.712L142.55 32.3536L142.028 33.712H143.483V32.712ZM151.02 13.08V12.08H150.332L150.086 12.7216L151.02 13.08ZM157.548 13.08L158.479 13.4442L159.012 12.08H157.548V13.08ZM142.908 50.52V51.52H143.59L143.839 50.8842L142.908 50.52ZM137.799 50.8617L142.791 37.1337L140.912 36.4503L135.92 50.1783L137.799 50.8617ZM140.852 36.8158L140.948 40.8478L142.947 40.8002L142.851 36.7682L140.852 36.8158ZM142.874 40.4474L131.594 12.7034L129.741 13.4566L141.021 41.2006L142.874 40.4474ZM130.668 14.08H137.436V12.08H130.668V14.08ZM136.503 13.4404L144.087 33.0724L145.952 32.3516L138.368 12.7196L136.503 13.4404ZM145.02 31.712H143.483V33.712H145.02V31.712ZM144.417 33.0704L151.953 13.4384L150.086 12.7216L142.55 32.3536L144.417 33.0704ZM151.02 14.08H157.548V12.08H151.02V14.08ZM156.616 12.7158L141.976 50.1558L143.839 50.8842L158.479 13.4442L156.616 12.7158ZM142.908 49.52H136.859V51.52H142.908V49.52Z" fill="white" mask="url(#path-4-outside-1_1686_8)"/>
</g>
</svg>
