<svg width="1116" height="935" viewBox="0 0 1116 935" fill="none" xmlns="http://www.w3.org/2000/svg">
<path d="M222.28 116.283L96.2857 242.277C83.7856 254.778 66.7022 261.8 49.0244 261.8C12.4558 261.8 -17.5 291.445 -17.5 328.013C-17.5 364.582 12.1447 394.227 48.7133 394.227H148.137C166.703 394.227 184.507 401.602 197.635 414.729L298.606 515.701C325.943 543.037 325.943 587.359 298.606 614.695L199.534 713.768C172.197 741.105 172.197 785.426 199.534 812.763L272.274 885.502C299.61 912.839 343.932 912.839 371.269 885.502L495.147 761.624C522.484 734.287 566.805 734.287 594.142 761.624L718.02 885.502C745.357 912.839 789.678 912.839 817.015 885.503L1066.07 636.448C1093.41 609.112 1093.41 564.79 1066.07 537.454L1033.02 504.404C1005.68 477.067 961.361 477.067 934.024 504.404L883.801 554.627C856.464 581.964 812.142 581.964 784.806 554.627L704.815 474.636C677.478 447.3 677.478 402.978 704.815 375.641L818.389 262.067C845.726 234.73 845.726 190.409 818.389 163.072L704.815 49.4976C677.478 22.1608 633.157 22.1608 605.82 49.4976L479.652 175.666C452.315 203.002 407.994 203.002 380.657 175.666L321.275 116.283C293.938 88.9465 249.616 88.9465 222.28 116.283Z" fill="#FFA88C"/>
</svg>
