<svg width="166" height="93" viewBox="0 0 166 93" fill="none" xmlns="http://www.w3.org/2000/svg">
<g id="Vector" opacity="0.1">
<path d="M164 3C163.172 3 162.5 2.32843 162.5 1.5C162.5 0.671573 163.172 0 164 0C164.828 0 165.5 0.671573 165.5 1.5C165.5 2.32843 164.828 3 164 3Z" fill="#141414"/>
<path d="M164 12C163.172 12 162.5 11.3284 162.5 10.5C162.5 9.67157 163.172 9 164 9C164.828 9 165.5 9.67157 165.5 10.5C165.5 11.3284 164.828 12 164 12Z" fill="#141414"/>
<path d="M164 21C163.172 21 162.5 20.3284 162.5 19.5C162.5 18.6716 163.172 18 164 18C164.828 18 165.5 18.6716 165.5 19.5C165.5 20.3284 164.828 21 164 21Z" fill="#141414"/>
<path d="M164 30C163.172 30 162.5 29.3284 162.5 28.5C162.5 27.6716 163.172 27 164 27C164.828 27 165.5 27.6716 165.5 28.5C165.5 29.3284 164.828 30 164 30Z" fill="#141414"/>
<path d="M164 39C163.172 39 162.5 38.3284 162.5 37.5C162.5 36.6716 163.172 36 164 36C164.828 36 165.5 36.6716 165.5 37.5C165.5 38.3284 164.828 39 164 39Z" fill="#141414"/>
<path d="M164 48C163.172 48 162.5 47.3284 162.5 46.5C162.5 45.6716 163.172 45 164 45C164.828 45 165.5 45.6716 165.5 46.5C165.5 47.3284 164.828 48 164 48Z" fill="#141414"/>
<path d="M164 57C163.172 57 162.5 56.3284 162.5 55.5C162.5 54.6716 163.172 54 164 54C164.828 54 165.5 54.6716 165.5 55.5C165.5 56.3284 164.828 57 164 57Z" fill="#141414"/>
<path d="M164 66C163.172 66 162.5 65.3284 162.5 64.5C162.5 63.6716 163.172 63 164 63C164.828 63 165.5 63.6716 165.5 64.5C165.5 65.3284 164.828 66 164 66Z" fill="#141414"/>
<path d="M164 75C163.172 75 162.5 74.3284 162.5 73.5C162.5 72.6716 163.172 72 164 72C164.828 72 165.5 72.6716 165.5 73.5C165.5 74.3284 164.828 75 164 75Z" fill="#141414"/>
<path d="M164 84C163.172 84 162.5 83.3284 162.5 82.5C162.5 81.6716 163.172 81 164 81C164.828 81 165.5 81.6716 165.5 82.5C165.5 83.3284 164.828 84 164 84Z" fill="#141414"/>
<path d="M164 93C163.172 93 162.5 92.3284 162.5 91.5C162.5 90.6716 163.172 90 164 90C164.828 90 165.5 90.6716 165.5 91.5C165.5 92.3284 164.828 93 164 93Z" fill="#141414"/>
<path d="M155 3C154.172 3 153.5 2.32843 153.5 1.5C153.5 0.671573 154.172 0 155 0C155.828 0 156.5 0.671573 156.5 1.5C156.5 2.32843 155.828 3 155 3Z" fill="#141414"/>
<path d="M155 12C154.172 12 153.5 11.3284 153.5 10.5C153.5 9.67157 154.172 9 155 9C155.828 9 156.5 9.67157 156.5 10.5C156.5 11.3284 155.828 12 155 12Z" fill="#141414"/>
<path d="M155 21C154.172 21 153.5 20.3284 153.5 19.5C153.5 18.6716 154.172 18 155 18C155.828 18 156.5 18.6716 156.5 19.5C156.5 20.3284 155.828 21 155 21Z" fill="#141414"/>
<path d="M155 30C154.172 30 153.5 29.3284 153.5 28.5C153.5 27.6716 154.172 27 155 27C155.828 27 156.5 27.6716 156.5 28.5C156.5 29.3284 155.828 30 155 30Z" fill="#141414"/>
<path d="M155 39C154.172 39 153.5 38.3284 153.5 37.5C153.5 36.6716 154.172 36 155 36C155.828 36 156.5 36.6716 156.5 37.5C156.5 38.3284 155.828 39 155 39Z" fill="#141414"/>
<path d="M155 48C154.172 48 153.5 47.3284 153.5 46.5C153.5 45.6716 154.172 45 155 45C155.828 45 156.5 45.6716 156.5 46.5C156.5 47.3284 155.828 48 155 48Z" fill="#141414"/>
<path d="M155 57C154.172 57 153.5 56.3284 153.5 55.5C153.5 54.6716 154.172 54 155 54C155.828 54 156.5 54.6716 156.5 55.5C156.5 56.3284 155.828 57 155 57Z" fill="#141414"/>
<path d="M155 66C154.172 66 153.5 65.3284 153.5 64.5C153.5 63.6716 154.172 63 155 63C155.828 63 156.5 63.6716 156.5 64.5C156.5 65.3284 155.828 66 155 66Z" fill="#141414"/>
<path d="M155 75C154.172 75 153.5 74.3284 153.5 73.5C153.5 72.6716 154.172 72 155 72C155.828 72 156.5 72.6716 156.5 73.5C156.5 74.3284 155.828 75 155 75Z" fill="#141414"/>
<path d="M155 84C154.172 84 153.5 83.3284 153.5 82.5C153.5 81.6716 154.172 81 155 81C155.828 81 156.5 81.6716 156.5 82.5C156.5 83.3284 155.828 84 155 84Z" fill="#141414"/>
<path d="M155 93C154.172 93 153.5 92.3284 153.5 91.5C153.5 90.6716 154.172 90 155 90C155.828 90 156.5 90.6716 156.5 91.5C156.5 92.3284 155.828 93 155 93Z" fill="#141414"/>
<path d="M146 3C145.172 3 144.5 2.32843 144.5 1.5C144.5 0.671573 145.172 0 146 0C146.828 0 147.5 0.671573 147.5 1.5C147.5 2.32843 146.828 3 146 3Z" fill="#141414"/>
<path d="M146 12C145.172 12 144.5 11.3284 144.5 10.5C144.5 9.67157 145.172 9 146 9C146.828 9 147.5 9.67157 147.5 10.5C147.5 11.3284 146.828 12 146 12Z" fill="#141414"/>
<path d="M146 21C145.172 21 144.5 20.3284 144.5 19.5C144.5 18.6716 145.172 18 146 18C146.828 18 147.5 18.6716 147.5 19.5C147.5 20.3284 146.828 21 146 21Z" fill="#141414"/>
<path d="M146 30C145.172 30 144.5 29.3284 144.5 28.5C144.5 27.6716 145.172 27 146 27C146.828 27 147.5 27.6716 147.5 28.5C147.5 29.3284 146.828 30 146 30Z" fill="#141414"/>
<path d="M146 39C145.172 39 144.5 38.3284 144.5 37.5C144.5 36.6716 145.172 36 146 36C146.828 36 147.5 36.6716 147.5 37.5C147.5 38.3284 146.828 39 146 39Z" fill="#141414"/>
<path d="M146 48C145.172 48 144.5 47.3284 144.5 46.5C144.5 45.6716 145.172 45 146 45C146.828 45 147.5 45.6716 147.5 46.5C147.5 47.3284 146.828 48 146 48Z" fill="#141414"/>
<path d="M146 57C145.172 57 144.5 56.3284 144.5 55.5C144.5 54.6716 145.172 54 146 54C146.828 54 147.5 54.6716 147.5 55.5C147.5 56.3284 146.828 57 146 57Z" fill="#141414"/>
<path d="M146 66C145.172 66 144.5 65.3284 144.5 64.5C144.5 63.6716 145.172 63 146 63C146.828 63 147.5 63.6716 147.5 64.5C147.5 65.3284 146.828 66 146 66Z" fill="#141414"/>
<path d="M146 75C145.172 75 144.5 74.3284 144.5 73.5C144.5 72.6716 145.172 72 146 72C146.828 72 147.5 72.6716 147.5 73.5C147.5 74.3284 146.828 75 146 75Z" fill="#141414"/>
<path d="M146 84C145.172 84 144.5 83.3284 144.5 82.5C144.5 81.6716 145.172 81 146 81C146.828 81 147.5 81.6716 147.5 82.5C147.5 83.3284 146.828 84 146 84Z" fill="#141414"/>
<path d="M146 93C145.172 93 144.5 92.3284 144.5 91.5C144.5 90.6716 145.172 90 146 90C146.828 90 147.5 90.6716 147.5 91.5C147.5 92.3284 146.828 93 146 93Z" fill="#141414"/>
<path d="M137 3C136.172 3 135.5 2.32843 135.5 1.5C135.5 0.671573 136.172 0 137 0C137.828 0 138.5 0.671573 138.5 1.5C138.5 2.32843 137.828 3 137 3Z" fill="#141414"/>
<path d="M137 12C136.172 12 135.5 11.3284 135.5 10.5C135.5 9.67157 136.172 9 137 9C137.828 9 138.5 9.67157 138.5 10.5C138.5 11.3284 137.828 12 137 12Z" fill="#141414"/>
<path d="M137 21C136.172 21 135.5 20.3284 135.5 19.5C135.5 18.6716 136.172 18 137 18C137.828 18 138.5 18.6716 138.5 19.5C138.5 20.3284 137.828 21 137 21Z" fill="#141414"/>
<path d="M137 30C136.172 30 135.5 29.3284 135.5 28.5C135.5 27.6716 136.172 27 137 27C137.828 27 138.5 27.6716 138.5 28.5C138.5 29.3284 137.828 30 137 30Z" fill="#141414"/>
<path d="M137 39C136.172 39 135.5 38.3284 135.5 37.5C135.5 36.6716 136.172 36 137 36C137.828 36 138.5 36.6716 138.5 37.5C138.5 38.3284 137.828 39 137 39Z" fill="#141414"/>
<path d="M137 48C136.172 48 135.5 47.3284 135.5 46.5C135.5 45.6716 136.172 45 137 45C137.828 45 138.5 45.6716 138.5 46.5C138.5 47.3284 137.828 48 137 48Z" fill="#141414"/>
<path d="M137 57C136.172 57 135.5 56.3284 135.5 55.5C135.5 54.6716 136.172 54 137 54C137.828 54 138.5 54.6716 138.5 55.5C138.5 56.3284 137.828 57 137 57Z" fill="#141414"/>
<path d="M137 66C136.172 66 135.5 65.3284 135.5 64.5C135.5 63.6716 136.172 63 137 63C137.828 63 138.5 63.6716 138.5 64.5C138.5 65.3284 137.828 66 137 66Z" fill="#141414"/>
<path d="M137 75C136.172 75 135.5 74.3284 135.5 73.5C135.5 72.6716 136.172 72 137 72C137.828 72 138.5 72.6716 138.5 73.5C138.5 74.3284 137.828 75 137 75Z" fill="#141414"/>
<path d="M137 84C136.172 84 135.5 83.3284 135.5 82.5C135.5 81.6716 136.172 81 137 81C137.828 81 138.5 81.6716 138.5 82.5C138.5 83.3284 137.828 84 137 84Z" fill="#141414"/>
<path d="M137 93C136.172 93 135.5 92.3284 135.5 91.5C135.5 90.6716 136.172 90 137 90C137.828 90 138.5 90.6716 138.5 91.5C138.5 92.3284 137.828 93 137 93Z" fill="#141414"/>
<path d="M128 3C127.172 3 126.5 2.32843 126.5 1.5C126.5 0.671573 127.172 0 128 0C128.828 0 129.5 0.671573 129.5 1.5C129.5 2.32843 128.828 3 128 3Z" fill="#141414"/>
<path d="M128 12C127.172 12 126.5 11.3284 126.5 10.5C126.5 9.67157 127.172 9 128 9C128.828 9 129.5 9.67157 129.5 10.5C129.5 11.3284 128.828 12 128 12Z" fill="#141414"/>
<path d="M128 21C127.172 21 126.5 20.3284 126.5 19.5C126.5 18.6716 127.172 18 128 18C128.828 18 129.5 18.6716 129.5 19.5C129.5 20.3284 128.828 21 128 21Z" fill="#141414"/>
<path d="M128 30C127.172 30 126.5 29.3284 126.5 28.5C126.5 27.6716 127.172 27 128 27C128.828 27 129.5 27.6716 129.5 28.5C129.5 29.3284 128.828 30 128 30Z" fill="#141414"/>
<path d="M128 39C127.172 39 126.5 38.3284 126.5 37.5C126.5 36.6716 127.172 36 128 36C128.828 36 129.5 36.6716 129.5 37.5C129.5 38.3284 128.828 39 128 39Z" fill="#141414"/>
<path d="M128 48C127.172 48 126.5 47.3284 126.5 46.5C126.5 45.6716 127.172 45 128 45C128.828 45 129.5 45.6716 129.5 46.5C129.5 47.3284 128.828 48 128 48Z" fill="#141414"/>
<path d="M128 57C127.172 57 126.5 56.3284 126.5 55.5C126.5 54.6716 127.172 54 128 54C128.828 54 129.5 54.6716 129.5 55.5C129.5 56.3284 128.828 57 128 57Z" fill="#141414"/>
<path d="M128 66C127.172 66 126.5 65.3284 126.5 64.5C126.5 63.6716 127.172 63 128 63C128.828 63 129.5 63.6716 129.5 64.5C129.5 65.3284 128.828 66 128 66Z" fill="#141414"/>
<path d="M128 75C127.172 75 126.5 74.3284 126.5 73.5C126.5 72.6716 127.172 72 128 72C128.828 72 129.5 72.6716 129.5 73.5C129.5 74.3284 128.828 75 128 75Z" fill="#141414"/>
<path d="M128 84C127.172 84 126.5 83.3284 126.5 82.5C126.5 81.6716 127.172 81 128 81C128.828 81 129.5 81.6716 129.5 82.5C129.5 83.3284 128.828 84 128 84Z" fill="#141414"/>
<path d="M128 93C127.172 93 126.5 92.3284 126.5 91.5C126.5 90.6716 127.172 90 128 90C128.828 90 129.5 90.6716 129.5 91.5C129.5 92.3284 128.828 93 128 93Z" fill="#141414"/>
<path d="M119 3C118.172 3 117.5 2.32843 117.5 1.5C117.5 0.671573 118.172 0 119 0C119.828 0 120.5 0.671573 120.5 1.5C120.5 2.32843 119.828 3 119 3Z" fill="#141414"/>
<path d="M119 12C118.172 12 117.5 11.3284 117.5 10.5C117.5 9.67157 118.172 9 119 9C119.828 9 120.5 9.67157 120.5 10.5C120.5 11.3284 119.828 12 119 12Z" fill="#141414"/>
<path d="M119 21C118.172 21 117.5 20.3284 117.5 19.5C117.5 18.6716 118.172 18 119 18C119.828 18 120.5 18.6716 120.5 19.5C120.5 20.3284 119.828 21 119 21Z" fill="#141414"/>
<path d="M119 30C118.172 30 117.5 29.3284 117.5 28.5C117.5 27.6716 118.172 27 119 27C119.828 27 120.5 27.6716 120.5 28.5C120.5 29.3284 119.828 30 119 30Z" fill="#141414"/>
<path d="M119 39C118.172 39 117.5 38.3284 117.5 37.5C117.5 36.6716 118.172 36 119 36C119.828 36 120.5 36.6716 120.5 37.5C120.5 38.3284 119.828 39 119 39Z" fill="#141414"/>
<path d="M119 48C118.172 48 117.5 47.3284 117.5 46.5C117.5 45.6716 118.172 45 119 45C119.828 45 120.5 45.6716 120.5 46.5C120.5 47.3284 119.828 48 119 48Z" fill="#141414"/>
<path d="M119 57C118.172 57 117.5 56.3284 117.5 55.5C117.5 54.6716 118.172 54 119 54C119.828 54 120.5 54.6716 120.5 55.5C120.5 56.3284 119.828 57 119 57Z" fill="#141414"/>
<path d="M119 66C118.172 66 117.5 65.3284 117.5 64.5C117.5 63.6716 118.172 63 119 63C119.828 63 120.5 63.6716 120.5 64.5C120.5 65.3284 119.828 66 119 66Z" fill="#141414"/>
<path d="M119 75C118.172 75 117.5 74.3284 117.5 73.5C117.5 72.6716 118.172 72 119 72C119.828 72 120.5 72.6716 120.5 73.5C120.5 74.3284 119.828 75 119 75Z" fill="#141414"/>
<path d="M119 84C118.172 84 117.5 83.3284 117.5 82.5C117.5 81.6716 118.172 81 119 81C119.828 81 120.5 81.6716 120.5 82.5C120.5 83.3284 119.828 84 119 84Z" fill="#141414"/>
<path d="M119 93C118.172 93 117.5 92.3284 117.5 91.5C117.5 90.6716 118.172 90 119 90C119.828 90 120.5 90.6716 120.5 91.5C120.5 92.3284 119.828 93 119 93Z" fill="#141414"/>
<path d="M110 3C109.172 3 108.5 2.32843 108.5 1.5C108.5 0.671573 109.172 0 110 0C110.828 0 111.5 0.671573 111.5 1.5C111.5 2.32843 110.828 3 110 3Z" fill="#141414"/>
<path d="M110 12C109.172 12 108.5 11.3284 108.5 10.5C108.5 9.67157 109.172 9 110 9C110.828 9 111.5 9.67157 111.5 10.5C111.5 11.3284 110.828 12 110 12Z" fill="#141414"/>
<path d="M110 21C109.172 21 108.5 20.3284 108.5 19.5C108.5 18.6716 109.172 18 110 18C110.828 18 111.5 18.6716 111.5 19.5C111.5 20.3284 110.828 21 110 21Z" fill="#141414"/>
<path d="M110 30C109.172 30 108.5 29.3284 108.5 28.5C108.5 27.6716 109.172 27 110 27C110.828 27 111.5 27.6716 111.5 28.5C111.5 29.3284 110.828 30 110 30Z" fill="#141414"/>
<path d="M110 39C109.172 39 108.5 38.3284 108.5 37.5C108.5 36.6716 109.172 36 110 36C110.828 36 111.5 36.6716 111.5 37.5C111.5 38.3284 110.828 39 110 39Z" fill="#141414"/>
<path d="M110 48C109.172 48 108.5 47.3284 108.5 46.5C108.5 45.6716 109.172 45 110 45C110.828 45 111.5 45.6716 111.5 46.5C111.5 47.3284 110.828 48 110 48Z" fill="#141414"/>
<path d="M110 57C109.172 57 108.5 56.3284 108.5 55.5C108.5 54.6716 109.172 54 110 54C110.828 54 111.5 54.6716 111.5 55.5C111.5 56.3284 110.828 57 110 57Z" fill="#141414"/>
<path d="M110 66C109.172 66 108.5 65.3284 108.5 64.5C108.5 63.6716 109.172 63 110 63C110.828 63 111.5 63.6716 111.5 64.5C111.5 65.3284 110.828 66 110 66Z" fill="#141414"/>
<path d="M110 75C109.172 75 108.5 74.3284 108.5 73.5C108.5 72.6716 109.172 72 110 72C110.828 72 111.5 72.6716 111.5 73.5C111.5 74.3284 110.828 75 110 75Z" fill="#141414"/>
<path d="M110 84C109.172 84 108.5 83.3284 108.5 82.5C108.5 81.6716 109.172 81 110 81C110.828 81 111.5 81.6716 111.5 82.5C111.5 83.3284 110.828 84 110 84Z" fill="#141414"/>
<path d="M110 93C109.172 93 108.5 92.3284 108.5 91.5C108.5 90.6716 109.172 90 110 90C110.828 90 111.5 90.6716 111.5 91.5C111.5 92.3284 110.828 93 110 93Z" fill="#141414"/>
<path d="M101 3C100.172 3 99.5 2.32843 99.5 1.5C99.5 0.671573 100.172 0 101 0C101.828 0 102.5 0.671573 102.5 1.5C102.5 2.32843 101.828 3 101 3Z" fill="#141414"/>
<path d="M101 12C100.172 12 99.5 11.3284 99.5 10.5C99.5 9.67157 100.172 9 101 9C101.828 9 102.5 9.67157 102.5 10.5C102.5 11.3284 101.828 12 101 12Z" fill="#141414"/>
<path d="M101 21C100.172 21 99.5 20.3284 99.5 19.5C99.5 18.6716 100.172 18 101 18C101.828 18 102.5 18.6716 102.5 19.5C102.5 20.3284 101.828 21 101 21Z" fill="#141414"/>
<path d="M101 30C100.172 30 99.5 29.3284 99.5 28.5C99.5 27.6716 100.172 27 101 27C101.828 27 102.5 27.6716 102.5 28.5C102.5 29.3284 101.828 30 101 30Z" fill="#141414"/>
<path d="M101 39C100.172 39 99.5 38.3284 99.5 37.5C99.5 36.6716 100.172 36 101 36C101.828 36 102.5 36.6716 102.5 37.5C102.5 38.3284 101.828 39 101 39Z" fill="#141414"/>
<path d="M101 48C100.172 48 99.5 47.3284 99.5 46.5C99.5 45.6716 100.172 45 101 45C101.828 45 102.5 45.6716 102.5 46.5C102.5 47.3284 101.828 48 101 48Z" fill="#141414"/>
<path d="M101 57C100.172 57 99.5 56.3284 99.5 55.5C99.5 54.6716 100.172 54 101 54C101.828 54 102.5 54.6716 102.5 55.5C102.5 56.3284 101.828 57 101 57Z" fill="#141414"/>
<path d="M101 66C100.172 66 99.5 65.3284 99.5 64.5C99.5 63.6716 100.172 63 101 63C101.828 63 102.5 63.6716 102.5 64.5C102.5 65.3284 101.828 66 101 66Z" fill="#141414"/>
<path d="M101 75C100.172 75 99.5 74.3284 99.5 73.5C99.5 72.6716 100.172 72 101 72C101.828 72 102.5 72.6716 102.5 73.5C102.5 74.3284 101.828 75 101 75Z" fill="#141414"/>
<path d="M101 84C100.172 84 99.5 83.3284 99.5 82.5C99.5 81.6716 100.172 81 101 81C101.828 81 102.5 81.6716 102.5 82.5C102.5 83.3284 101.828 84 101 84Z" fill="#141414"/>
<path d="M101 93C100.172 93 99.5 92.3284 99.5 91.5C99.5 90.6716 100.172 90 101 90C101.828 90 102.5 90.6716 102.5 91.5C102.5 92.3284 101.828 93 101 93Z" fill="#141414"/>
<path d="M92 3C91.1716 3 90.5 2.32843 90.5 1.5C90.5 0.671573 91.1716 0 92 0C92.8284 0 93.5 0.671573 93.5 1.5C93.5 2.32843 92.8284 3 92 3Z" fill="#141414"/>
<path d="M92 12C91.1716 12 90.5 11.3284 90.5 10.5C90.5 9.67157 91.1716 9 92 9C92.8284 9 93.5 9.67157 93.5 10.5C93.5 11.3284 92.8284 12 92 12Z" fill="#141414"/>
<path d="M92 21C91.1716 21 90.5 20.3284 90.5 19.5C90.5 18.6716 91.1716 18 92 18C92.8284 18 93.5 18.6716 93.5 19.5C93.5 20.3284 92.8284 21 92 21Z" fill="#141414"/>
<path d="M92 30C91.1716 30 90.5 29.3284 90.5 28.5C90.5 27.6716 91.1716 27 92 27C92.8284 27 93.5 27.6716 93.5 28.5C93.5 29.3284 92.8284 30 92 30Z" fill="#141414"/>
<path d="M92 39C91.1716 39 90.5 38.3284 90.5 37.5C90.5 36.6716 91.1716 36 92 36C92.8284 36 93.5 36.6716 93.5 37.5C93.5 38.3284 92.8284 39 92 39Z" fill="#141414"/>
<path d="M92 48C91.1716 48 90.5 47.3284 90.5 46.5C90.5 45.6716 91.1716 45 92 45C92.8284 45 93.5 45.6716 93.5 46.5C93.5 47.3284 92.8284 48 92 48Z" fill="#141414"/>
<path d="M92 57C91.1716 57 90.5 56.3284 90.5 55.5C90.5 54.6716 91.1716 54 92 54C92.8284 54 93.5 54.6716 93.5 55.5C93.5 56.3284 92.8284 57 92 57Z" fill="#141414"/>
<path d="M92 66C91.1716 66 90.5 65.3284 90.5 64.5C90.5 63.6716 91.1716 63 92 63C92.8284 63 93.5 63.6716 93.5 64.5C93.5 65.3284 92.8284 66 92 66Z" fill="#141414"/>
<path d="M92 75C91.1716 75 90.5 74.3284 90.5 73.5C90.5 72.6716 91.1716 72 92 72C92.8284 72 93.5 72.6716 93.5 73.5C93.5 74.3284 92.8284 75 92 75Z" fill="#141414"/>
<path d="M92 84C91.1716 84 90.5 83.3284 90.5 82.5C90.5 81.6716 91.1716 81 92 81C92.8284 81 93.5 81.6716 93.5 82.5C93.5 83.3284 92.8284 84 92 84Z" fill="#141414"/>
<path d="M92 93C91.1716 93 90.5 92.3284 90.5 91.5C90.5 90.6716 91.1716 90 92 90C92.8284 90 93.5 90.6716 93.5 91.5C93.5 92.3284 92.8284 93 92 93Z" fill="#141414"/>
<path d="M83 3C82.1716 3 81.5 2.32843 81.5 1.5C81.5 0.671573 82.1716 0 83 0C83.8284 0 84.5 0.671573 84.5 1.5C84.5 2.32843 83.8284 3 83 3Z" fill="#141414"/>
<path d="M83 12C82.1716 12 81.5 11.3284 81.5 10.5C81.5 9.67157 82.1716 9 83 9C83.8284 9 84.5 9.67157 84.5 10.5C84.5 11.3284 83.8284 12 83 12Z" fill="#141414"/>
<path d="M83 21C82.1716 21 81.5 20.3284 81.5 19.5C81.5 18.6716 82.1716 18 83 18C83.8284 18 84.5 18.6716 84.5 19.5C84.5 20.3284 83.8284 21 83 21Z" fill="#141414"/>
<path d="M83 30C82.1716 30 81.5 29.3284 81.5 28.5C81.5 27.6716 82.1716 27 83 27C83.8284 27 84.5 27.6716 84.5 28.5C84.5 29.3284 83.8284 30 83 30Z" fill="#141414"/>
<path d="M83 39C82.1716 39 81.5 38.3284 81.5 37.5C81.5 36.6716 82.1716 36 83 36C83.8284 36 84.5 36.6716 84.5 37.5C84.5 38.3284 83.8284 39 83 39Z" fill="#141414"/>
<path d="M83 48C82.1716 48 81.5 47.3284 81.5 46.5C81.5 45.6716 82.1716 45 83 45C83.8284 45 84.5 45.6716 84.5 46.5C84.5 47.3284 83.8284 48 83 48Z" fill="#141414"/>
<path d="M83 57C82.1716 57 81.5 56.3284 81.5 55.5C81.5 54.6716 82.1716 54 83 54C83.8284 54 84.5 54.6716 84.5 55.5C84.5 56.3284 83.8284 57 83 57Z" fill="#141414"/>
<path d="M83 66C82.1716 66 81.5 65.3284 81.5 64.5C81.5 63.6716 82.1716 63 83 63C83.8284 63 84.5 63.6716 84.5 64.5C84.5 65.3284 83.8284 66 83 66Z" fill="#141414"/>
<path d="M83 75C82.1716 75 81.5 74.3284 81.5 73.5C81.5 72.6716 82.1716 72 83 72C83.8284 72 84.5 72.6716 84.5 73.5C84.5 74.3284 83.8284 75 83 75Z" fill="#141414"/>
<path d="M83 84C82.1716 84 81.5 83.3284 81.5 82.5C81.5 81.6716 82.1716 81 83 81C83.8284 81 84.5 81.6716 84.5 82.5C84.5 83.3284 83.8284 84 83 84Z" fill="#141414"/>
<path d="M83 93C82.1716 93 81.5 92.3284 81.5 91.5C81.5 90.6716 82.1716 90 83 90C83.8284 90 84.5 90.6716 84.5 91.5C84.5 92.3284 83.8284 93 83 93Z" fill="#141414"/>
<path d="M74 3C73.1716 3 72.5 2.32843 72.5 1.5C72.5 0.671573 73.1716 0 74 0C74.8284 0 75.5 0.671573 75.5 1.5C75.5 2.32843 74.8284 3 74 3Z" fill="#141414"/>
<path d="M74 12C73.1716 12 72.5 11.3284 72.5 10.5C72.5 9.67157 73.1716 9 74 9C74.8284 9 75.5 9.67157 75.5 10.5C75.5 11.3284 74.8284 12 74 12Z" fill="#141414"/>
<path d="M74 21C73.1716 21 72.5 20.3284 72.5 19.5C72.5 18.6716 73.1716 18 74 18C74.8284 18 75.5 18.6716 75.5 19.5C75.5 20.3284 74.8284 21 74 21Z" fill="#141414"/>
<path d="M74 30C73.1716 30 72.5 29.3284 72.5 28.5C72.5 27.6716 73.1716 27 74 27C74.8284 27 75.5 27.6716 75.5 28.5C75.5 29.3284 74.8284 30 74 30Z" fill="#141414"/>
<path d="M74 39C73.1716 39 72.5 38.3284 72.5 37.5C72.5 36.6716 73.1716 36 74 36C74.8284 36 75.5 36.6716 75.5 37.5C75.5 38.3284 74.8284 39 74 39Z" fill="#141414"/>
<path d="M74 48C73.1716 48 72.5 47.3284 72.5 46.5C72.5 45.6716 73.1716 45 74 45C74.8284 45 75.5 45.6716 75.5 46.5C75.5 47.3284 74.8284 48 74 48Z" fill="#141414"/>
<path d="M74 57C73.1716 57 72.5 56.3284 72.5 55.5C72.5 54.6716 73.1716 54 74 54C74.8284 54 75.5 54.6716 75.5 55.5C75.5 56.3284 74.8284 57 74 57Z" fill="#141414"/>
<path d="M74 66C73.1716 66 72.5 65.3284 72.5 64.5C72.5 63.6716 73.1716 63 74 63C74.8284 63 75.5 63.6716 75.5 64.5C75.5 65.3284 74.8284 66 74 66Z" fill="#141414"/>
<path d="M74 75C73.1716 75 72.5 74.3284 72.5 73.5C72.5 72.6716 73.1716 72 74 72C74.8284 72 75.5 72.6716 75.5 73.5C75.5 74.3284 74.8284 75 74 75Z" fill="#141414"/>
<path d="M74 84C73.1716 84 72.5 83.3284 72.5 82.5C72.5 81.6716 73.1716 81 74 81C74.8284 81 75.5 81.6716 75.5 82.5C75.5 83.3284 74.8284 84 74 84Z" fill="#141414"/>
<path d="M74 93C73.1716 93 72.5 92.3284 72.5 91.5C72.5 90.6716 73.1716 90 74 90C74.8284 90 75.5 90.6716 75.5 91.5C75.5 92.3284 74.8284 93 74 93Z" fill="#141414"/>
<path d="M65 3C64.1716 3 63.5 2.32843 63.5 1.5C63.5 0.671573 64.1716 0 65 0C65.8284 0 66.5 0.671573 66.5 1.5C66.5 2.32843 65.8284 3 65 3Z" fill="#141414"/>
<path d="M65 12C64.1716 12 63.5 11.3284 63.5 10.5C63.5 9.67157 64.1716 9 65 9C65.8284 9 66.5 9.67157 66.5 10.5C66.5 11.3284 65.8284 12 65 12Z" fill="#141414"/>
<path d="M65 21C64.1716 21 63.5 20.3284 63.5 19.5C63.5 18.6716 64.1716 18 65 18C65.8284 18 66.5 18.6716 66.5 19.5C66.5 20.3284 65.8284 21 65 21Z" fill="#141414"/>
<path d="M65 30C64.1716 30 63.5 29.3284 63.5 28.5C63.5 27.6716 64.1716 27 65 27C65.8284 27 66.5 27.6716 66.5 28.5C66.5 29.3284 65.8284 30 65 30Z" fill="#141414"/>
<path d="M65 39C64.1716 39 63.5 38.3284 63.5 37.5C63.5 36.6716 64.1716 36 65 36C65.8284 36 66.5 36.6716 66.5 37.5C66.5 38.3284 65.8284 39 65 39Z" fill="#141414"/>
<path d="M65 48C64.1716 48 63.5 47.3284 63.5 46.5C63.5 45.6716 64.1716 45 65 45C65.8284 45 66.5 45.6716 66.5 46.5C66.5 47.3284 65.8284 48 65 48Z" fill="#141414"/>
<path d="M65 57C64.1716 57 63.5 56.3284 63.5 55.5C63.5 54.6716 64.1716 54 65 54C65.8284 54 66.5 54.6716 66.5 55.5C66.5 56.3284 65.8284 57 65 57Z" fill="#141414"/>
<path d="M65 66C64.1716 66 63.5 65.3284 63.5 64.5C63.5 63.6716 64.1716 63 65 63C65.8284 63 66.5 63.6716 66.5 64.5C66.5 65.3284 65.8284 66 65 66Z" fill="#141414"/>
<path d="M65 75C64.1716 75 63.5 74.3284 63.5 73.5C63.5 72.6716 64.1716 72 65 72C65.8284 72 66.5 72.6716 66.5 73.5C66.5 74.3284 65.8284 75 65 75Z" fill="#141414"/>
<path d="M65 84C64.1716 84 63.5 83.3284 63.5 82.5C63.5 81.6716 64.1716 81 65 81C65.8284 81 66.5 81.6716 66.5 82.5C66.5 83.3284 65.8284 84 65 84Z" fill="#141414"/>
<path d="M65 93C64.1716 93 63.5 92.3284 63.5 91.5C63.5 90.6716 64.1716 90 65 90C65.8284 90 66.5 90.6716 66.5 91.5C66.5 92.3284 65.8284 93 65 93Z" fill="#141414"/>
<path d="M56 3C55.1716 3 54.5 2.32843 54.5 1.5C54.5 0.671573 55.1716 0 56 0C56.8284 0 57.5 0.671573 57.5 1.5C57.5 2.32843 56.8284 3 56 3Z" fill="#141414"/>
<path d="M56 12C55.1716 12 54.5 11.3284 54.5 10.5C54.5 9.67157 55.1716 9 56 9C56.8284 9 57.5 9.67157 57.5 10.5C57.5 11.3284 56.8284 12 56 12Z" fill="#141414"/>
<path d="M56 21C55.1716 21 54.5 20.3284 54.5 19.5C54.5 18.6716 55.1716 18 56 18C56.8284 18 57.5 18.6716 57.5 19.5C57.5 20.3284 56.8284 21 56 21Z" fill="#141414"/>
<path d="M56 30C55.1716 30 54.5 29.3284 54.5 28.5C54.5 27.6716 55.1716 27 56 27C56.8284 27 57.5 27.6716 57.5 28.5C57.5 29.3284 56.8284 30 56 30Z" fill="#141414"/>
<path d="M56 39C55.1716 39 54.5 38.3284 54.5 37.5C54.5 36.6716 55.1716 36 56 36C56.8284 36 57.5 36.6716 57.5 37.5C57.5 38.3284 56.8284 39 56 39Z" fill="#141414"/>
<path d="M56 48C55.1716 48 54.5 47.3284 54.5 46.5C54.5 45.6716 55.1716 45 56 45C56.8284 45 57.5 45.6716 57.5 46.5C57.5 47.3284 56.8284 48 56 48Z" fill="#141414"/>
<path d="M56 57C55.1716 57 54.5 56.3284 54.5 55.5C54.5 54.6716 55.1716 54 56 54C56.8284 54 57.5 54.6716 57.5 55.5C57.5 56.3284 56.8284 57 56 57Z" fill="#141414"/>
<path d="M56 66C55.1716 66 54.5 65.3284 54.5 64.5C54.5 63.6716 55.1716 63 56 63C56.8284 63 57.5 63.6716 57.5 64.5C57.5 65.3284 56.8284 66 56 66Z" fill="#141414"/>
<path d="M56 75C55.1716 75 54.5 74.3284 54.5 73.5C54.5 72.6716 55.1716 72 56 72C56.8284 72 57.5 72.6716 57.5 73.5C57.5 74.3284 56.8284 75 56 75Z" fill="#141414"/>
<path d="M56 84C55.1716 84 54.5 83.3284 54.5 82.5C54.5 81.6716 55.1716 81 56 81C56.8284 81 57.5 81.6716 57.5 82.5C57.5 83.3284 56.8284 84 56 84Z" fill="#141414"/>
<path d="M56 93C55.1716 93 54.5 92.3284 54.5 91.5C54.5 90.6716 55.1716 90 56 90C56.8284 90 57.5 90.6716 57.5 91.5C57.5 92.3284 56.8284 93 56 93Z" fill="#141414"/>
<path d="M47 3C46.1716 3 45.5 2.32843 45.5 1.5C45.5 0.671573 46.1716 0 47 0C47.8284 0 48.5 0.671573 48.5 1.5C48.5 2.32843 47.8284 3 47 3Z" fill="#141414"/>
<path d="M47 12C46.1716 12 45.5 11.3284 45.5 10.5C45.5 9.67157 46.1716 9 47 9C47.8284 9 48.5 9.67157 48.5 10.5C48.5 11.3284 47.8284 12 47 12Z" fill="#141414"/>
<path d="M47 21C46.1716 21 45.5 20.3284 45.5 19.5C45.5 18.6716 46.1716 18 47 18C47.8284 18 48.5 18.6716 48.5 19.5C48.5 20.3284 47.8284 21 47 21Z" fill="#141414"/>
<path d="M47 30C46.1716 30 45.5 29.3284 45.5 28.5C45.5 27.6716 46.1716 27 47 27C47.8284 27 48.5 27.6716 48.5 28.5C48.5 29.3284 47.8284 30 47 30Z" fill="#141414"/>
<path d="M47 39C46.1716 39 45.5 38.3284 45.5 37.5C45.5 36.6716 46.1716 36 47 36C47.8284 36 48.5 36.6716 48.5 37.5C48.5 38.3284 47.8284 39 47 39Z" fill="#141414"/>
<path d="M47 48C46.1716 48 45.5 47.3284 45.5 46.5C45.5 45.6716 46.1716 45 47 45C47.8284 45 48.5 45.6716 48.5 46.5C48.5 47.3284 47.8284 48 47 48Z" fill="#141414"/>
<path d="M47 57C46.1716 57 45.5 56.3284 45.5 55.5C45.5 54.6716 46.1716 54 47 54C47.8284 54 48.5 54.6716 48.5 55.5C48.5 56.3284 47.8284 57 47 57Z" fill="#141414"/>
<path d="M47 66C46.1716 66 45.5 65.3284 45.5 64.5C45.5 63.6716 46.1716 63 47 63C47.8284 63 48.5 63.6716 48.5 64.5C48.5 65.3284 47.8284 66 47 66Z" fill="#141414"/>
<path d="M47 75C46.1716 75 45.5 74.3284 45.5 73.5C45.5 72.6716 46.1716 72 47 72C47.8284 72 48.5 72.6716 48.5 73.5C48.5 74.3284 47.8284 75 47 75Z" fill="#141414"/>
<path d="M47 84C46.1716 84 45.5 83.3284 45.5 82.5C45.5 81.6716 46.1716 81 47 81C47.8284 81 48.5 81.6716 48.5 82.5C48.5 83.3284 47.8284 84 47 84Z" fill="#141414"/>
<path d="M47 93C46.1716 93 45.5 92.3284 45.5 91.5C45.5 90.6716 46.1716 90 47 90C47.8284 90 48.5 90.6716 48.5 91.5C48.5 92.3284 47.8284 93 47 93Z" fill="#141414"/>
<path d="M38 3C37.1716 3 36.5 2.32843 36.5 1.5C36.5 0.671573 37.1716 0 38 0C38.8284 0 39.5 0.671573 39.5 1.5C39.5 2.32843 38.8284 3 38 3Z" fill="#141414"/>
<path d="M38 12C37.1716 12 36.5 11.3284 36.5 10.5C36.5 9.67157 37.1716 9 38 9C38.8284 9 39.5 9.67157 39.5 10.5C39.5 11.3284 38.8284 12 38 12Z" fill="#141414"/>
<path d="M38 21C37.1716 21 36.5 20.3284 36.5 19.5C36.5 18.6716 37.1716 18 38 18C38.8284 18 39.5 18.6716 39.5 19.5C39.5 20.3284 38.8284 21 38 21Z" fill="#141414"/>
<path d="M38 30C37.1716 30 36.5 29.3284 36.5 28.5C36.5 27.6716 37.1716 27 38 27C38.8284 27 39.5 27.6716 39.5 28.5C39.5 29.3284 38.8284 30 38 30Z" fill="#141414"/>
<path d="M38 39C37.1716 39 36.5 38.3284 36.5 37.5C36.5 36.6716 37.1716 36 38 36C38.8284 36 39.5 36.6716 39.5 37.5C39.5 38.3284 38.8284 39 38 39Z" fill="#141414"/>
<path d="M38 48C37.1716 48 36.5 47.3284 36.5 46.5C36.5 45.6716 37.1716 45 38 45C38.8284 45 39.5 45.6716 39.5 46.5C39.5 47.3284 38.8284 48 38 48Z" fill="#141414"/>
<path d="M38 57C37.1716 57 36.5 56.3284 36.5 55.5C36.5 54.6716 37.1716 54 38 54C38.8284 54 39.5 54.6716 39.5 55.5C39.5 56.3284 38.8284 57 38 57Z" fill="#141414"/>
<path d="M38 66C37.1716 66 36.5 65.3284 36.5 64.5C36.5 63.6716 37.1716 63 38 63C38.8284 63 39.5 63.6716 39.5 64.5C39.5 65.3284 38.8284 66 38 66Z" fill="#141414"/>
<path d="M38 75C37.1716 75 36.5 74.3284 36.5 73.5C36.5 72.6716 37.1716 72 38 72C38.8284 72 39.5 72.6716 39.5 73.5C39.5 74.3284 38.8284 75 38 75Z" fill="#141414"/>
<path d="M38 84C37.1716 84 36.5 83.3284 36.5 82.5C36.5 81.6716 37.1716 81 38 81C38.8284 81 39.5 81.6716 39.5 82.5C39.5 83.3284 38.8284 84 38 84Z" fill="#141414"/>
<path d="M38 93C37.1716 93 36.5 92.3284 36.5 91.5C36.5 90.6716 37.1716 90 38 90C38.8284 90 39.5 90.6716 39.5 91.5C39.5 92.3284 38.8284 93 38 93Z" fill="#141414"/>
<path d="M29 3C28.1716 3 27.5 2.32843 27.5 1.5C27.5 0.671573 28.1716 0 29 0C29.8284 0 30.5 0.671573 30.5 1.5C30.5 2.32843 29.8284 3 29 3Z" fill="#141414"/>
<path d="M29 12C28.1716 12 27.5 11.3284 27.5 10.5C27.5 9.67157 28.1716 9 29 9C29.8284 9 30.5 9.67157 30.5 10.5C30.5 11.3284 29.8284 12 29 12Z" fill="#141414"/>
<path d="M29 21C28.1716 21 27.5 20.3284 27.5 19.5C27.5 18.6716 28.1716 18 29 18C29.8284 18 30.5 18.6716 30.5 19.5C30.5 20.3284 29.8284 21 29 21Z" fill="#141414"/>
<path d="M29 30C28.1716 30 27.5 29.3284 27.5 28.5C27.5 27.6716 28.1716 27 29 27C29.8284 27 30.5 27.6716 30.5 28.5C30.5 29.3284 29.8284 30 29 30Z" fill="#141414"/>
<path d="M29 39C28.1716 39 27.5 38.3284 27.5 37.5C27.5 36.6716 28.1716 36 29 36C29.8284 36 30.5 36.6716 30.5 37.5C30.5 38.3284 29.8284 39 29 39Z" fill="#141414"/>
<path d="M29 48C28.1716 48 27.5 47.3284 27.5 46.5C27.5 45.6716 28.1716 45 29 45C29.8284 45 30.5 45.6716 30.5 46.5C30.5 47.3284 29.8284 48 29 48Z" fill="#141414"/>
<path d="M29 57C28.1716 57 27.5 56.3284 27.5 55.5C27.5 54.6716 28.1716 54 29 54C29.8284 54 30.5 54.6716 30.5 55.5C30.5 56.3284 29.8284 57 29 57Z" fill="#141414"/>
<path d="M29 66C28.1716 66 27.5 65.3284 27.5 64.5C27.5 63.6716 28.1716 63 29 63C29.8284 63 30.5 63.6716 30.5 64.5C30.5 65.3284 29.8284 66 29 66Z" fill="#141414"/>
<path d="M29 75C28.1716 75 27.5 74.3284 27.5 73.5C27.5 72.6716 28.1716 72 29 72C29.8284 72 30.5 72.6716 30.5 73.5C30.5 74.3284 29.8284 75 29 75Z" fill="#141414"/>
<path d="M29 84C28.1716 84 27.5 83.3284 27.5 82.5C27.5 81.6716 28.1716 81 29 81C29.8284 81 30.5 81.6716 30.5 82.5C30.5 83.3284 29.8284 84 29 84Z" fill="#141414"/>
<path d="M29 93C28.1716 93 27.5 92.3284 27.5 91.5C27.5 90.6716 28.1716 90 29 90C29.8284 90 30.5 90.6716 30.5 91.5C30.5 92.3284 29.8284 93 29 93Z" fill="#141414"/>
<path d="M20 3C19.1716 3 18.5 2.32843 18.5 1.5C18.5 0.671573 19.1716 0 20 0C20.8284 0 21.5 0.671573 21.5 1.5C21.5 2.32843 20.8284 3 20 3Z" fill="#141414"/>
<path d="M20 12C19.1716 12 18.5 11.3284 18.5 10.5C18.5 9.67157 19.1716 9 20 9C20.8284 9 21.5 9.67157 21.5 10.5C21.5 11.3284 20.8284 12 20 12Z" fill="#141414"/>
<path d="M20 21C19.1716 21 18.5 20.3284 18.5 19.5C18.5 18.6716 19.1716 18 20 18C20.8284 18 21.5 18.6716 21.5 19.5C21.5 20.3284 20.8284 21 20 21Z" fill="#141414"/>
<path d="M20 30C19.1716 30 18.5 29.3284 18.5 28.5C18.5 27.6716 19.1716 27 20 27C20.8284 27 21.5 27.6716 21.5 28.5C21.5 29.3284 20.8284 30 20 30Z" fill="#141414"/>
<path d="M20 39C19.1716 39 18.5 38.3284 18.5 37.5C18.5 36.6716 19.1716 36 20 36C20.8284 36 21.5 36.6716 21.5 37.5C21.5 38.3284 20.8284 39 20 39Z" fill="#141414"/>
<path d="M20 48C19.1716 48 18.5 47.3284 18.5 46.5C18.5 45.6716 19.1716 45 20 45C20.8284 45 21.5 45.6716 21.5 46.5C21.5 47.3284 20.8284 48 20 48Z" fill="#141414"/>
<path d="M20 57C19.1716 57 18.5 56.3284 18.5 55.5C18.5 54.6716 19.1716 54 20 54C20.8284 54 21.5 54.6716 21.5 55.5C21.5 56.3284 20.8284 57 20 57Z" fill="#141414"/>
<path d="M20 66C19.1716 66 18.5 65.3284 18.5 64.5C18.5 63.6716 19.1716 63 20 63C20.8284 63 21.5 63.6716 21.5 64.5C21.5 65.3284 20.8284 66 20 66Z" fill="#141414"/>
<path d="M20 75C19.1716 75 18.5 74.3284 18.5 73.5C18.5 72.6716 19.1716 72 20 72C20.8284 72 21.5 72.6716 21.5 73.5C21.5 74.3284 20.8284 75 20 75Z" fill="#141414"/>
<path d="M20 84C19.1716 84 18.5 83.3284 18.5 82.5C18.5 81.6716 19.1716 81 20 81C20.8284 81 21.5 81.6716 21.5 82.5C21.5 83.3284 20.8284 84 20 84Z" fill="#141414"/>
<path d="M20 93C19.1716 93 18.5 92.3284 18.5 91.5C18.5 90.6716 19.1716 90 20 90C20.8284 90 21.5 90.6716 21.5 91.5C21.5 92.3284 20.8284 93 20 93Z" fill="#141414"/>
<path d="M11 3C10.1716 3 9.5 2.32843 9.5 1.5C9.5 0.671573 10.1716 0 11 0C11.8284 0 12.5 0.671573 12.5 1.5C12.5 2.32843 11.8284 3 11 3Z" fill="#141414"/>
<path d="M11 12C10.1716 12 9.5 11.3284 9.5 10.5C9.5 9.67157 10.1716 9 11 9C11.8284 9 12.5 9.67157 12.5 10.5C12.5 11.3284 11.8284 12 11 12Z" fill="#141414"/>
<path d="M11 21C10.1716 21 9.5 20.3284 9.5 19.5C9.5 18.6716 10.1716 18 11 18C11.8284 18 12.5 18.6716 12.5 19.5C12.5 20.3284 11.8284 21 11 21Z" fill="#141414"/>
<path d="M11 30C10.1716 30 9.5 29.3284 9.5 28.5C9.5 27.6716 10.1716 27 11 27C11.8284 27 12.5 27.6716 12.5 28.5C12.5 29.3284 11.8284 30 11 30Z" fill="#141414"/>
<path d="M11 39C10.1716 39 9.5 38.3284 9.5 37.5C9.5 36.6716 10.1716 36 11 36C11.8284 36 12.5 36.6716 12.5 37.5C12.5 38.3284 11.8284 39 11 39Z" fill="#141414"/>
<path d="M11 48C10.1716 48 9.5 47.3284 9.5 46.5C9.5 45.6716 10.1716 45 11 45C11.8284 45 12.5 45.6716 12.5 46.5C12.5 47.3284 11.8284 48 11 48Z" fill="#141414"/>
<path d="M11 57C10.1716 57 9.5 56.3284 9.5 55.5C9.5 54.6716 10.1716 54 11 54C11.8284 54 12.5 54.6716 12.5 55.5C12.5 56.3284 11.8284 57 11 57Z" fill="#141414"/>
<path d="M11 66C10.1716 66 9.5 65.3284 9.5 64.5C9.5 63.6716 10.1716 63 11 63C11.8284 63 12.5 63.6716 12.5 64.5C12.5 65.3284 11.8284 66 11 66Z" fill="#141414"/>
<path d="M11 75C10.1716 75 9.5 74.3284 9.5 73.5C9.5 72.6716 10.1716 72 11 72C11.8284 72 12.5 72.6716 12.5 73.5C12.5 74.3284 11.8284 75 11 75Z" fill="#141414"/>
<path d="M11 84C10.1716 84 9.5 83.3284 9.5 82.5C9.5 81.6716 10.1716 81 11 81C11.8284 81 12.5 81.6716 12.5 82.5C12.5 83.3284 11.8284 84 11 84Z" fill="#141414"/>
<path d="M11 93C10.1716 93 9.5 92.3284 9.5 91.5C9.5 90.6716 10.1716 90 11 90C11.8284 90 12.5 90.6716 12.5 91.5C12.5 92.3284 11.8284 93 11 93Z" fill="#141414"/>
<path d="M2 3C1.17157 3 0.5 2.32843 0.5 1.5C0.5 0.671573 1.17157 0 2 0C2.82843 0 3.5 0.671573 3.5 1.5C3.5 2.32843 2.82843 3 2 3Z" fill="#141414"/>
<path d="M2 12C1.17157 12 0.5 11.3284 0.5 10.5C0.5 9.67157 1.17157 9 2 9C2.82843 9 3.5 9.67157 3.5 10.5C3.5 11.3284 2.82843 12 2 12Z" fill="#141414"/>
<path d="M2 21C1.17157 21 0.5 20.3284 0.5 19.5C0.5 18.6716 1.17157 18 2 18C2.82843 18 3.5 18.6716 3.5 19.5C3.5 20.3284 2.82843 21 2 21Z" fill="#141414"/>
<path d="M2 30C1.17157 30 0.5 29.3284 0.5 28.5C0.5 27.6716 1.17157 27 2 27C2.82843 27 3.5 27.6716 3.5 28.5C3.5 29.3284 2.82843 30 2 30Z" fill="#141414"/>
<path d="M2 39C1.17157 39 0.5 38.3284 0.5 37.5C0.5 36.6716 1.17157 36 2 36C2.82843 36 3.5 36.6716 3.5 37.5C3.5 38.3284 2.82843 39 2 39Z" fill="#141414"/>
<path d="M2 48C1.17157 48 0.5 47.3284 0.5 46.5C0.5 45.6716 1.17157 45 2 45C2.82843 45 3.5 45.6716 3.5 46.5C3.5 47.3284 2.82843 48 2 48Z" fill="#141414"/>
<path d="M2 57C1.17157 57 0.5 56.3284 0.5 55.5C0.5 54.6716 1.17157 54 2 54C2.82843 54 3.5 54.6716 3.5 55.5C3.5 56.3284 2.82843 57 2 57Z" fill="#141414"/>
<path d="M2 66C1.17157 66 0.5 65.3284 0.5 64.5C0.5 63.6716 1.17157 63 2 63C2.82843 63 3.5 63.6716 3.5 64.5C3.5 65.3284 2.82843 66 2 66Z" fill="#141414"/>
<path d="M2 75C1.17157 75 0.5 74.3284 0.5 73.5C0.5 72.6716 1.17157 72 2 72C2.82843 72 3.5 72.6716 3.5 73.5C3.5 74.3284 2.82843 75 2 75Z" fill="#141414"/>
<path d="M2 84C1.17157 84 0.5 83.3284 0.5 82.5C0.5 81.6716 1.17157 81 2 81C2.82843 81 3.5 81.6716 3.5 82.5C3.5 83.3284 2.82843 84 2 84Z" fill="#141414"/>
<path d="M2 93C1.17157 93 0.5 92.3284 0.5 91.5C0.5 90.6716 1.17157 90 2 90C2.82843 90 3.5 90.6716 3.5 91.5C3.5 92.3284 2.82843 93 2 93Z" fill="#141414"/>
</g>
</svg>
