<svg width="18" height="18" viewBox="0 0 18 18" fill="none" xmlns="http://www.w3.org/2000/svg">
<path d="M9 0C4.03725 0 0 4.03725 0 9C0 13.9628 4.03725 18 9 18C13.9628 18 18 13.9628 18 9C18 4.03725 13.9628 0 9 0ZM9 16.5C4.8645 16.5 1.5 13.1355 1.5 9C1.5 4.8645 4.8645 1.5 9 1.5C13.1355 1.5 16.5 4.8645 16.5 9C16.5 13.1355 13.1355 16.5 9 16.5ZM13.2495 6.1905C13.5585 6.4665 13.5855 6.9405 13.3095 7.2495C13.1617 7.41525 12.9563 7.5 12.75 7.5C12.5723 7.5 12.3938 7.437 12.2505 7.3095C12.237 7.2975 10.7483 6 9 6C7.25175 6 5.763 7.2975 5.748 7.311C5.43825 7.5855 4.965 7.557 4.68975 7.248C4.41525 6.939 4.4415 6.4665 4.7505 6.19125C4.82775 6.12225 6.66975 4.50075 9 4.50075C11.3302 4.50075 13.1723 6.12225 13.2495 6.19125V6.1905ZM12.75 10.875C12.75 11.496 12.246 12 11.625 12C11.004 12 10.5 11.496 10.5 10.875C10.5 10.254 11.004 9.75 11.625 9.75C12.246 9.75 12.75 10.254 12.75 10.875ZM7.5 10.875C7.5 11.496 6.996 12 6.375 12C5.754 12 5.25 11.496 5.25 10.875C5.25 10.254 5.754 9.75 6.375 9.75C6.996 9.75 7.5 10.254 7.5 10.875Z" fill="#141414"/>
</svg>
