<svg width="27" height="40" viewBox="0 0 27 40" fill="none" xmlns="http://www.w3.org/2000/svg">
<path d="M13.2113 0C10.5983 -3.11584e-08 8.04407 0.774812 5.87149 2.22646C3.6989 3.6781 2.00558 5.74138 1.00565 8.15538C0.00571832 10.5694 -0.255909 13.2257 0.253851 15.7884C0.763611 18.351 2.02186 20.705 3.8695 22.5526C5.71713 24.4002 8.07115 25.6584 10.6339 26.1682C13.1966 26.6779 15.853 26.4163 18.267 25.4164C20.6811 24.4165 22.7444 22.7232 24.1961 20.5507C25.6477 18.3781 26.4226 15.8239 26.4226 13.211H20.1224C20.1224 14.5779 19.7171 15.914 18.9577 17.0505C18.1983 18.187 17.1189 19.0728 15.8561 19.5959C14.5932 20.119 13.2036 20.2558 11.863 19.9892C10.5224 19.7225 9.29093 19.0643 8.32439 18.0978C7.35785 17.1313 6.69963 15.8999 6.43297 14.5593C6.1663 13.2187 6.30316 11.8291 6.82625 10.5663C7.34933 9.30348 8.23515 8.22414 9.37168 7.46475C10.5082 6.70536 11.8444 6.30004 13.2113 6.30004V0Z" fill="white"/>
<path d="M0 26.789C-1.51672e-07 28.5239 0.34172 30.2418 1.00565 31.8446C1.66958 33.4475 2.64271 34.9039 3.86949 36.1306C5.09628 37.3574 6.55268 38.3305 8.15554 38.9944C9.75841 39.6583 11.4764 40 13.2113 40C14.9462 40 16.6642 39.6583 18.267 38.9944C19.8699 38.3305 21.3263 37.3574 22.5531 36.1306C23.7799 34.9039 24.753 33.4475 25.4169 31.8447C26.0808 30.2418 26.4226 28.5239 26.4226 26.789H20.1224C20.1224 27.6966 19.9436 28.5953 19.5963 29.4337C19.249 30.2722 18.7399 31.0341 18.0982 31.6758C17.4564 32.3176 16.6945 32.8266 15.8561 33.1739C15.0176 33.5212 14.1189 33.7 13.2113 33.7C12.3037 33.7 11.405 33.5212 10.5665 33.1739C9.72802 32.8266 8.96615 32.3176 8.32439 31.6758C7.68263 31.0341 7.17356 30.2722 6.82625 29.4337C6.47893 28.5953 6.30017 27.6966 6.30017 26.789H0Z" fill="white"/>
<path d="M16.8809 5.87156V0H26.4223V9.72477H20.5507V5.87156H16.8809Z" fill="white"/>
</svg>
