<svg width="35" height="52" viewBox="0 0 35 52" fill="none" xmlns="http://www.w3.org/2000/svg">
<path d="M17.1747 0C13.7778 -4.05059e-08 10.4573 1.00726 7.63293 2.89439C4.80857 4.78153 2.60725 7.46379 1.30734 10.602C0.00743381 13.7402 -0.332682 17.1934 0.330006 20.5249C0.992695 23.8563 2.62842 26.9165 5.03034 29.3184C7.43226 31.7203 10.4925 33.3559 13.8241 34.0186C17.1556 34.6813 20.6089 34.3412 23.7471 33.0413C26.8854 31.7414 29.5677 29.5402 31.4549 26.7158C33.3421 23.8915 34.3493 20.5711 34.3493 17.1743H26.1591C26.1591 18.9512 25.6322 20.6882 24.645 22.1657C23.6577 23.6432 22.2546 24.7947 20.6129 25.4747C18.9712 26.1547 17.1647 26.3326 15.4219 25.9859C13.6791 25.6393 12.0782 24.7836 10.8217 23.5271C9.56521 22.2707 8.70952 20.6698 8.36286 18.9271C8.01619 17.1843 8.19411 15.3778 8.87412 13.7362C9.55413 12.0945 10.7057 10.6914 12.1832 9.70417C13.6607 8.71697 15.3977 8.19005 17.1747 8.19005V0Z" fill="#141414"/>
<path d="M0 34.8263C-1.97174e-07 37.0817 0.444236 39.3149 1.30734 41.3986C2.17045 43.4823 3.43553 45.3756 5.03034 46.9704C6.62516 48.5651 8.51848 49.8302 10.6022 50.6933C12.6859 51.5564 14.9193 52.0006 17.1747 52.0006C19.4301 52.0006 21.6634 51.5564 23.7471 50.6933C25.8309 49.8302 27.7242 48.5651 29.319 46.9704C30.9138 45.3756 32.1789 43.4823 33.042 41.3986C33.9051 39.3149 34.3493 37.0817 34.3493 34.8263H26.1591C26.1591 36.0061 25.9267 37.1744 25.4752 38.2644C25.0237 39.3544 24.3619 40.3449 23.5276 41.1791C22.6933 42.0134 21.7029 42.6752 20.6129 43.1267C19.5228 43.5782 18.3545 43.8105 17.1747 43.8105C15.9948 43.8105 14.8265 43.5782 13.7365 43.1267C12.6464 42.6752 11.656 42.0134 10.8217 41.1791C9.98742 40.3449 9.32563 39.3544 8.87412 38.2644C8.42261 37.1744 8.19022 36.0061 8.19022 34.8263L0 34.8263Z" fill="#141414"/>
<path d="M21.9453 7.63303V0H34.3492V12.6422H26.7161V7.63303H21.9453Z" fill="#141414"/>
</svg>
