<svg width="165" height="249" viewBox="0 0 165 249" fill="none" xmlns="http://www.w3.org/2000/svg">
<g id="G">
<g id="Ellipse 189" opacity="0.1">
<mask id="path-1-inside-1_1676_1997" fill="white">
<path d="M81.7887 1C65.6124 1 49.7994 5.79672 36.3493 14.7836C22.8992 23.7705 12.4162 36.5438 6.22579 51.4885C0.0354011 66.4331 -1.58429 82.8777 1.57155 98.7428C4.72738 114.608 12.517 129.181 23.9553 140.619C35.3937 152.057 49.967 159.847 65.8325 163.002C81.6979 166.158 98.1429 164.539 113.088 158.348C128.033 152.158 140.806 141.675 149.793 128.225C158.78 114.776 163.577 98.9629 163.577 82.787H124.574C124.574 91.249 122.065 99.5209 117.363 106.557C112.662 113.593 105.98 119.076 98.1619 122.315C90.3439 125.553 81.7412 126.4 73.4416 124.749C65.1421 123.099 57.5184 119.024 51.5348 113.04C45.5511 107.057 41.4762 99.4332 39.8253 91.1338C38.1744 82.8344 39.0217 74.2319 42.2601 66.414C45.4984 58.5962 50.9823 51.9141 58.0183 47.2129C65.0544 42.5117 73.3265 40.0024 81.7887 40.0024V1Z"/>
</mask>
<path d="M81.7887 1C65.6124 1 49.7994 5.79672 36.3493 14.7836C22.8992 23.7705 12.4162 36.5438 6.22579 51.4885C0.0354011 66.4331 -1.58429 82.8777 1.57155 98.7428C4.72738 114.608 12.517 129.181 23.9553 140.619C35.3937 152.057 49.967 159.847 65.8325 163.002C81.6979 166.158 98.1429 164.539 113.088 158.348C128.033 152.158 140.806 141.675 149.793 128.225C158.78 114.776 163.577 98.9629 163.577 82.787H124.574C124.574 91.249 122.065 99.5209 117.363 106.557C112.662 113.593 105.98 119.076 98.1619 122.315C90.3439 125.553 81.7412 126.4 73.4416 124.749C65.1421 123.099 57.5184 119.024 51.5348 113.04C45.5511 107.057 41.4762 99.4332 39.8253 91.1338C38.1744 82.8344 39.0217 74.2319 42.2601 66.414C45.4984 58.5962 50.9823 51.9141 58.0183 47.2129C65.0544 42.5117 73.3265 40.0024 81.7887 40.0024V1Z" stroke="#141414" stroke-width="2" mask="url(#path-1-inside-1_1676_1997)"/>
</g>
<g id="Ellipse 190" opacity="0.1">
<mask id="path-2-inside-2_1676_1997" fill="white">
<path d="M0 166.845C-9.38976e-07 177.585 2.11552 188.221 6.22579 198.144C10.3361 208.066 16.3606 217.083 23.9553 224.677C31.5501 232.272 40.5664 238.296 50.4895 242.406C60.4125 246.517 71.048 248.632 81.7887 248.632C92.5293 248.632 103.165 246.517 113.088 242.406C123.011 238.296 132.027 232.272 139.622 224.677C147.217 217.083 153.241 208.066 157.352 198.144C161.462 188.221 163.577 177.585 163.577 166.845H124.574C124.574 172.464 123.467 178.027 121.317 183.218C119.167 188.409 116.016 193.125 112.043 197.098C108.07 201.071 103.353 204.223 98.1619 206.373C92.971 208.523 87.4073 209.63 81.7887 209.63C76.17 209.63 70.6063 208.523 65.4154 206.373C60.2244 204.223 55.5078 201.071 51.5348 197.098C47.5618 193.125 44.4102 188.409 42.2601 183.218C40.1099 178.027 39.0032 172.464 39.0032 166.845L0 166.845Z"/>
</mask>
<path d="M0 166.845C-9.38976e-07 177.585 2.11552 188.221 6.22579 198.144C10.3361 208.066 16.3606 217.083 23.9553 224.677C31.5501 232.272 40.5664 238.296 50.4895 242.406C60.4125 246.517 71.048 248.632 81.7887 248.632C92.5293 248.632 103.165 246.517 113.088 242.406C123.011 238.296 132.027 232.272 139.622 224.677C147.217 217.083 153.241 208.066 157.352 198.144C161.462 188.221 163.577 177.585 163.577 166.845H124.574C124.574 172.464 123.467 178.027 121.317 183.218C119.167 188.409 116.016 193.125 112.043 197.098C108.07 201.071 103.353 204.223 98.1619 206.373C92.971 208.523 87.4073 209.63 81.7887 209.63C76.17 209.63 70.6063 208.523 65.4154 206.373C60.2244 204.223 55.5078 201.071 51.5348 197.098C47.5618 193.125 44.4102 188.409 42.2601 183.218C40.1099 178.027 39.0032 172.464 39.0032 166.845L0 166.845Z" stroke="#141414" stroke-width="2" mask="url(#path-2-inside-2_1676_1997)"/>
</g>
<path id="Vector 4" opacity="0.1" d="M104.508 37.3498V1H163.577V61.2043H127.227V37.3498H104.508Z" stroke="#141414"/>
<path id="Vector" d="M1 9.46657L5.75015 14.1005M5.75015 14.1005L10.5 18.7341M5.75015 14.1005L10.2426 9.28809M5.75015 14.1005L1.25742 18.9131M13 9.46657L17.7502 14.1005M17.7502 14.1005L22.5 18.7341M17.7502 14.1005L22.2426 9.28809M17.7502 14.1005L13.2574 18.9131M25 9.46657L29.7502 14.1005M29.7502 14.1005L34.5 18.7341M29.7502 14.1005L34.2426 9.28809M29.7502 14.1005L25.2574 18.9131M1 21.2616L5.75015 25.8954M5.75015 25.8954L10.5 30.529M5.75015 25.8954L10.2426 21.0831M5.75015 25.8954L1.25742 30.7081M13 21.2616L17.7502 25.8954M17.7502 25.8954L22.5 30.529M17.7502 25.8954L22.2426 21.0831M17.7502 25.8954L13.2574 30.7081M25 21.2616L29.7502 25.8954M29.7502 25.8954L34.5 30.529M29.7502 25.8954L34.2426 21.0831M29.7502 25.8954L25.2574 30.7081" stroke="#141414" stroke-width="2"/>
</g>
</svg>
