<svg width="1798" height="503" viewBox="0 0 1798 503" fill="none" xmlns="http://www.w3.org/2000/svg">
<path opacity="0.05" d="M48.7597 0C39.1159 -1.14998e-07 29.6887 2.85965 21.6702 8.21732C13.6518 13.575 7.40211 21.1901 3.71161 30.0996C0.0211049 39.0091 -0.944499 48.8128 0.936903 58.2711C2.81831 67.7293 7.46221 76.4173 14.2814 83.2363C21.1005 90.0554 29.7887 94.6992 39.2471 96.5805C48.7056 98.4619 58.5095 97.4963 67.4192 93.8059C76.3288 90.1155 83.9441 83.8659 89.3018 75.8476C94.6596 67.8293 97.5193 58.4023 97.5193 48.7587H74.2669C74.2669 53.8035 72.7709 58.7349 69.9682 62.9295C67.1654 67.1241 63.1817 70.3933 58.5209 72.3239C53.86 74.2544 48.7314 74.7595 43.7834 73.7754C38.8355 72.7912 34.2906 70.3619 30.7233 66.7947C27.1561 63.2275 24.7267 58.6827 23.7425 53.7348C22.7583 48.787 23.2635 43.6585 25.194 38.9977C27.1246 34.337 30.3939 30.3533 34.5886 27.5506C38.7832 24.7479 43.7148 23.252 48.7597 23.252V0Z" fill="white"/>
<path opacity="0.05" d="M0 98.871C-5.59786e-07 105.274 1.2612 111.614 3.71161 117.53C6.16201 123.446 9.75362 128.821 14.2814 133.349C18.8091 137.876 24.1843 141.468 30.1001 143.918C36.0159 146.369 42.3564 147.63 48.7597 147.63C55.1629 147.63 61.5034 146.369 67.4192 143.918C73.335 141.468 78.7102 137.876 83.2379 133.349C87.7657 128.821 91.3573 123.446 93.8077 117.53C96.2581 111.614 97.5193 105.274 97.5193 98.871H74.2669C74.2669 102.221 73.6071 105.537 72.3253 108.632C71.0434 111.727 69.1646 114.538 66.796 116.907C64.4274 119.276 61.6155 121.154 58.5209 122.436C55.4262 123.718 52.1093 124.378 48.7597 124.378C45.41 124.378 42.0931 123.718 38.9985 122.436C35.9038 121.154 33.0919 119.276 30.7233 116.907C28.3547 114.538 26.4759 111.727 25.194 108.632C23.9122 105.537 23.2524 102.221 23.2524 98.871H0Z" fill="white"/>
<path opacity="0.05" d="M62.3041 21.6705V0H97.5194V35.8918H75.8485V21.6705H62.3041Z" fill="white"/>
<path d="M1 8.46657L5.75015 13.1005M5.75015 13.1005L10.5 17.7341M5.75015 13.1005L10.2426 8.28809M5.75015 13.1005L1.25742 17.9131M13 8.46657L17.7502 13.1005M17.7502 13.1005L22.5 17.7341M17.7502 13.1005L22.2426 8.28809M17.7502 13.1005L13.2574 17.9131M25 8.46657L29.7502 13.1005M29.7502 13.1005L34.5 17.7341M29.7502 13.1005L34.2426 8.28809M29.7502 13.1005L25.2574 17.9131M1 20.2616L5.75015 24.8954M5.75015 24.8954L10.5 29.529M5.75015 24.8954L10.2426 20.0831M5.75015 24.8954L1.25742 29.7081M13 20.2616L17.7502 24.8954M17.7502 24.8954L22.5 29.529M17.7502 24.8954L22.2426 20.0831M17.7502 24.8954L13.2574 29.7081M25 20.2616L29.7502 24.8954M29.7502 24.8954L34.5 29.529M29.7502 24.8954L34.2426 20.0831M29.7502 24.8954L25.2574 29.7081" stroke="white" stroke-width="2"/>
<path d="M1737 474.588H1746M1746 474.588H1756M1746 474.588V466M1746 474.588V482.747M1758 474.588H1767M1767 474.588H1777M1767 474.588V466M1767 474.588V482.747M1779 474.588H1788M1788 474.588H1798M1788 474.588V466M1788 474.588V482.747M1737 494.341H1746M1746 494.341H1756M1746 494.341V485.753M1746 494.341V502.5M1758 494.341H1767M1767 494.341H1777M1767 494.341V485.753M1767 494.341V502.5M1779 494.341H1788M1788 494.341H1798M1788 494.341V485.753M1788 494.341V502.5" stroke="white" stroke-width="2"/>
</svg>
