<svg width="192" height="290" viewBox="0 0 192 290" fill="none" xmlns="http://www.w3.org/2000/svg">
<g opacity="0.05">
<path d="M95.7813 0C76.8375 -2.25897e-07 58.3192 5.61736 42.5681 16.1417C26.8169 26.6661 14.5404 41.6248 7.29092 59.1262C0.0414576 76.6276 -1.85533 95.8856 1.84041 114.465C5.53615 133.044 14.6584 150.111 28.0537 163.506C41.4489 176.901 58.5155 186.023 77.0953 189.718C95.675 193.414 114.933 191.517 132.435 184.268C149.937 177.019 164.896 164.742 175.421 148.992C185.945 133.241 191.563 114.723 191.563 95.7793H145.887C145.887 105.689 142.948 115.376 137.442 123.616C131.937 131.855 124.111 138.277 114.956 142.07C105.8 145.862 95.7257 146.854 86.0062 144.921C76.2868 142.988 67.3589 138.216 60.3515 131.208C53.3442 124.201 48.5721 115.273 46.6388 105.554C44.7054 95.8349 45.6977 85.7606 49.49 76.6053C53.2824 67.4499 59.7045 59.6247 67.9443 54.1192C76.1841 48.6136 85.8714 45.6751 95.7813 45.6751V0Z" fill="#141414"/>
<path d="M0 194.221C-1.09962e-06 206.799 2.47745 219.253 7.29091 230.874C12.1044 242.494 19.1596 253.053 28.0537 261.947C36.9478 270.841 47.5067 277.896 59.1274 282.709C70.7481 287.523 83.2031 290 95.7813 290C108.359 290 120.814 287.523 132.435 282.709C144.056 277.896 154.615 270.841 163.509 261.947C172.403 253.053 179.458 242.494 184.272 230.874C189.085 219.253 191.563 206.799 191.563 194.221H145.887C145.887 200.801 144.591 207.316 142.073 213.395C139.555 219.474 135.864 224.997 131.211 229.65C126.558 234.302 121.035 237.993 114.956 240.511C108.877 243.029 102.361 244.325 95.7813 244.325C89.2014 244.325 82.6859 243.029 76.6068 240.511C70.5278 237.993 65.0042 234.302 60.3515 229.65C55.6988 224.997 52.0081 219.474 49.49 213.395C46.972 207.316 45.676 200.801 45.676 194.221H0Z" fill="#141414"/>
<path d="M122.386 42.5686V0H191.562V70.5042H148.992V42.5686H122.386Z" fill="#141414"/>
</g>
</svg>
