<svg width="62" height="37" viewBox="0 0 62 37" fill="none" xmlns="http://www.w3.org/2000/svg">
<path id="Vector" d="M0.5 8.58824H9.5M9.5 8.58824H19.5M9.5 8.58824V0M9.5 8.58824V16.7471M21.5 8.58824H30.5M30.5 8.58824H40.5M30.5 8.58824V0M30.5 8.58824V16.7471M42.5 8.58824H51.5M51.5 8.58824H61.5M51.5 8.58824V0M51.5 8.58824V16.7471M0.5 28.3412H9.5M9.5 28.3412H19.5M9.5 28.3412V19.7529M9.5 28.3412V36.5M21.5 28.3412H30.5M30.5 28.3412H40.5M30.5 28.3412V19.7529M30.5 28.3412V36.5M42.5 28.3412H51.5M51.5 28.3412H61.5M51.5 28.3412V19.7529M51.5 28.3412V36.5" stroke="#141414" stroke-width="2"/>
</svg>
