<svg width="61" height="37" viewBox="0 0 61 37" fill="none" xmlns="http://www.w3.org/2000/svg">
<path id="Vector" d="M0 8.58824H9M9 8.58824H19M9 8.58824V0M9 8.58824V16.7471M21 8.58824H30M30 8.58824H40M30 8.58824V0M30 8.58824V16.7471M42 8.58824H51M51 8.58824H61M51 8.58824V0M51 8.58824V16.7471M0 28.3412H9M9 28.3412H19M9 28.3412V19.7529M9 28.3412V36.5M21 28.3412H30M30 28.3412H40M30 28.3412V19.7529M30 28.3412V36.5M42 28.3412H51M51 28.3412H61M51 28.3412V19.7529M51 28.3412V36.5" stroke="white" stroke-width="2"/>
</svg>
