<svg width="16" height="18" viewBox="0 0 16 18" fill="none" xmlns="http://www.w3.org/2000/svg">
<path d="M0.712726 6.17693L7.8258 9.01112H7.87159L2.11702 4.22312C1.23171 3.48175 0.3943 4.06141 0.186114 4.43935C-0.332865 5.38151 0.361652 6.0405 0.712726 6.17693Z" fill="#141414"/>
<path d="M6.68678 1.33471L7.84415 8.98092L7.86719 9.02096L9.06201 1.57995C9.24988 0.432786 8.33353 -0.00794829 7.90599 0.000108287C6.8402 0.0201923 6.6267 0.959058 6.68678 1.33471Z" fill="#141414"/>
<path d="M13.8656 4.16603L7.87926 8.9769L7.85633 9.01701L14.8338 6.37437C15.9113 5.97019 15.8348 4.94647 15.6157 4.57488C15.0696 3.64854 14.1581 3.92686 13.8656 4.16603Z" fill="#141414"/>
<path d="M0.712726 11.8231L7.8258 8.98888H7.87159L2.11702 13.7769C1.23171 14.5182 0.3943 13.9386 0.186114 13.5606C-0.332865 12.6185 0.361652 11.9595 0.712726 11.8231Z" fill="#141414"/>
<path d="M6.68678 16.6653L7.84415 9.01908L7.86719 8.97904L9.06201 16.4201C9.24988 17.5672 8.33353 18.0079 7.90599 17.9999C6.8402 17.9798 6.6267 17.0409 6.68678 16.6653Z" fill="#141414"/>
<path d="M13.8656 13.834L7.87926 9.02309L7.85633 8.98298L14.8338 11.6256C15.9113 12.0298 15.8348 13.0535 15.6157 13.4251C15.0696 14.3515 14.1581 14.0731 13.8656 13.834Z" fill="#141414"/>
</svg>
