<svg width="55" height="62" viewBox="0 0 55 62" fill="none" xmlns="http://www.w3.org/2000/svg">
<path d="M3.42002 21.5898L27.5721 31.0371H27.7276L8.18824 15.0771C5.18219 12.6058 2.33882 14.538 1.63194 15.7978C-0.130225 18.9384 2.22797 21.135 3.42002 21.5898Z" stroke="#141414"/>
<path d="M23.7046 5.44903L27.6344 30.9364L27.7126 31.0699L31.7695 6.26649C32.4075 2.44262 29.296 0.973506 27.8444 1.00036C24.2255 1.06731 23.5006 4.19686 23.7046 5.44903Z" stroke="#141414"/>
<path d="M48.0799 14.8868L27.7536 30.923L27.6757 31.0567L51.3673 22.2479C55.026 20.9006 54.7661 17.4882 54.0223 16.2496C52.168 13.1618 49.0731 14.0895 48.0799 14.8868Z" stroke="#141414"/>
<path d="M3.42002 40.4102L27.5721 30.9629H27.7276L8.18824 46.9229C5.18219 49.3942 2.33882 47.462 1.63194 46.2022C-0.130225 43.0616 2.22797 40.865 3.42002 40.4102Z" stroke="#141414"/>
<path d="M23.7046 56.551L27.6344 31.0636L27.7126 30.9301L31.7695 55.7335C32.4075 59.5574 29.296 61.0265 27.8444 60.9996C24.2255 60.9327 23.5006 57.8031 23.7046 56.551Z" stroke="#141414"/>
<path d="M48.0799 47.1132L27.7536 31.077L27.6757 30.9433L51.3673 39.7521C55.026 41.0994 54.7661 44.5117 54.0223 45.7504C52.168 48.8382 49.0731 47.9105 48.0799 47.1132Z" stroke="#141414"/>
</svg>
