<svg width="86" height="96" viewBox="0 0 86 96" fill="none" xmlns="http://www.w3.org/2000/svg">
<g id="Vector">
<path d="M3.87204 32.9437L42.5153 48.0593H42.7641L11.5012 22.5233C6.6915 18.5693 2.14212 21.6609 1.01111 23.6765C-1.80836 28.7014 1.96475 32.216 3.87204 32.9437Z" fill="#141414"/>
<path d="M36.3273 7.11845L42.615 47.8982L42.7402 48.1118L49.2313 8.42639C50.252 2.30819 45.2737 -0.0423909 42.951 0.000577529C37.1609 0.107692 36.001 5.11498 36.3273 7.11845Z" fill="#141414"/>
<path d="M75.3278 22.2188L42.8057 47.8768L42.6812 48.0907L80.5877 33.9966C86.4415 31.841 86.0257 26.3812 84.8356 24.3994C81.8689 19.4589 76.9169 20.9432 75.3278 22.2188Z" fill="#141414"/>
<path d="M3.87204 63.0563L42.5153 47.9407H42.7641L11.5012 73.4767C6.6915 77.4307 2.14212 74.3391 1.01111 72.3235C-1.80836 67.2986 1.96475 63.784 3.87204 63.0563Z" fill="#141414"/>
<path d="M36.3273 88.8816L42.615 48.1018L42.7402 47.8882L49.2313 87.5736C50.252 93.6918 45.2737 96.0424 42.951 95.9994C37.1609 95.8923 36.001 90.885 36.3273 88.8816Z" fill="#141414"/>
<path d="M75.3278 73.7812L42.8057 48.1232L42.6812 47.9093L80.5877 62.0034C86.4415 64.159 86.0257 69.6188 84.8356 71.6006C81.8689 76.5411 76.9169 75.0567 75.3278 73.7812Z" fill="#141414"/>
</g>
</svg>
