<svg width="47" height="50" viewBox="0 0 47 50" fill="none" xmlns="http://www.w3.org/2000/svg">
<g clip-path="url(#clip0_1770_1085)">
<mask id="mask0_1770_1085" style="mask-type:luminance" maskUnits="userSpaceOnUse" x="12" y="0" width="35" height="49">
<path d="M12.6816 0H46.212V48.818H12.6816V0Z" fill="white"/>
</mask>
<g mask="url(#mask0_1770_1085)">
<path fill-rule="evenodd" clip-rule="evenodd" d="M38.5205 48.8181L38.3186 48.4111L40.4079 47.363C43.8548 45.3611 45.76 41.1057 45.76 35.3876C45.76 29.6245 43.8254 23.0805 40.3129 16.9612C36.8002 10.8417 32.1329 5.88476 27.1708 3.00331C22.2473 0.143922 17.6311 -0.324305 14.1718 1.68459L12.8763 2.307L12.6816 1.89653L13.9615 1.28231C17.5511 -0.802765 22.328 -0.334311 27.3969 2.60922C32.4266 5.53024 37.1527 10.5463 40.7045 16.7338C44.2561 22.921 46.2122 29.5458 46.2122 35.3876C46.2122 41.2751 44.2267 45.6704 40.6218 47.7637L38.5205 48.8181Z" fill="#141414"/>
</g>
<path d="M25.3722 19.8992C22.7207 18.3595 20.5713 19.6073 20.5713 22.6865C20.5713 24.0889 21.0189 25.6287 21.7548 27.0357C22.3497 26.8783 22.8728 26.5729 23.4091 26.2745C23.9061 25.998 24.419 25.7592 24.9013 25.4559C25.2495 25.2369 25.8581 25.1896 25.7988 25.794C25.7489 26.3041 24.9888 26.567 24.6017 26.7253C24.2463 26.8708 23.9079 27.0361 23.5757 27.2321C23.176 27.4682 22.6947 27.696 22.3178 27.9905L22.3953 28.1204C23.2136 29.3475 24.2477 30.3969 25.3722 31.05C28.0235 32.5898 30.1727 31.3418 30.1727 28.2623C30.1727 25.183 28.0235 21.439 25.3722 19.8992Z" fill="#141414" fill-opacity="0.3"/>
<path fill-rule="evenodd" clip-rule="evenodd" d="M33.7265 50C31.1247 50 28.2428 49.125 25.2594 47.3926C20.4973 44.6271 15.955 39.9233 12.4695 34.1476L12.8561 33.9116C16.3028 39.6231 20.7881 44.2708 25.4855 46.9985C30.4085 49.8577 35.0252 50.3259 38.484 48.3173C41.9434 46.3086 43.8484 42.0532 43.8484 36.3353C43.8484 30.5719 41.914 24.0281 38.4013 17.9086C34.8888 11.7894 30.2215 6.8322 25.2594 3.95075C20.3359 1.09136 15.7195 0.623137 12.2604 2.63203C8.80102 4.6407 6.89602 8.89591 6.89602 14.6138C6.89602 20.1627 8.70787 26.4895 11.9979 32.4285L11.6029 32.65C8.27605 26.6444 6.44385 20.2391 6.44385 14.6138C6.44385 8.72649 8.42911 4.33143 12.0343 2.23817C15.6394 0.144904 20.4164 0.613358 25.4855 3.55689C30.5152 6.47768 35.2413 11.4938 38.7931 17.6812C42.3447 23.8687 44.3005 30.4935 44.3005 36.3353C44.3005 42.2226 42.3153 46.6176 38.7101 48.7111C37.227 49.5723 35.5451 50 33.7265 50Z" fill="#141414"/>
<path fill-rule="evenodd" clip-rule="evenodd" d="M14.8063 32.7753C17.7158 37.5543 21.4849 41.4436 25.429 43.734C29.6143 46.1647 33.5434 46.5602 36.4923 44.8474C39.4416 43.1348 41.0658 39.5145 41.0658 34.6537C41.0658 29.7702 39.4269 24.2256 36.4509 19.0412C33.4756 13.8571 29.5209 9.65734 25.3159 7.21547C21.1304 4.78474 17.2013 4.38928 14.252 6.10187C11.3029 7.81377 9.67872 11.4338 9.67872 16.2953C9.67872 20.991 11.2073 26.337 13.985 31.3604L15.5183 30.5004C13.1713 26.2352 11.8799 21.6953 11.8799 17.7048C11.8799 13.5109 13.2916 10.3819 15.8547 8.89394C18.4176 7.40535 21.8179 7.74055 25.429 9.83745C29.0204 11.9232 32.3949 15.5053 34.9311 19.9238C37.4676 24.3429 38.8646 29.0736 38.8646 33.244C38.8646 37.4374 37.4529 40.5667 34.8898 42.0553C32.3269 43.5439 28.9268 43.2087 25.3159 41.1118C21.9776 39.1732 18.7832 35.8922 16.3119 31.865L14.8063 32.7753ZM32.4313 46.1236C30.2464 46.1236 27.8246 45.3877 25.3159 43.9309C21.3126 41.6062 17.4909 37.6516 14.554 32.796C14.5384 32.7701 14.5337 32.7392 14.5409 32.7096C14.5479 32.6803 14.5665 32.655 14.5922 32.6393L16.2913 31.6122C16.3442 31.5799 16.4134 31.5969 16.4459 31.6501C18.906 35.6893 22.0963 38.9796 25.429 40.9148C28.9668 42.9697 32.2868 43.3046 34.7767 41.8584C37.2671 40.4121 38.6385 37.3528 38.6385 33.244C38.6385 29.113 37.2524 24.4228 34.7353 20.0375C32.2188 15.6529 28.8736 12.1004 25.3159 10.0346C21.7779 7.98 18.4581 7.64481 15.9677 9.09088C13.4774 10.5365 12.106 13.5955 12.106 17.7048C12.106 21.6882 13.4076 26.2283 15.7708 30.489C15.7855 30.5152 15.7889 30.5463 15.7808 30.5754C15.7726 30.6045 15.7532 30.6289 15.7272 30.6436L13.9965 31.6144C13.942 31.6449 13.8733 31.6254 13.8428 31.5705C11.0117 26.4849 9.45264 21.0601 9.45264 16.2953C9.45264 11.3492 11.1171 7.65914 14.1389 5.90493C17.161 4.15005 21.1704 4.54551 25.429 7.01831C29.6679 9.47997 33.6517 13.7095 36.6467 18.9275C39.6423 24.146 41.2918 29.7308 41.2918 34.6537C41.2918 39.5993 39.6276 43.2894 36.6053 45.0443C35.3639 45.7654 33.9551 46.1236 32.4313 46.1236Z" fill="#141414" fill-opacity="0.3"/>
<path fill-rule="evenodd" clip-rule="evenodd" d="M18.6625 30.4404C20.5341 33.4424 22.9335 35.8893 25.4291 37.3385C28.1434 38.9147 30.6896 39.1721 32.5989 38.0637C34.5077 36.9547 35.559 34.6081 35.559 31.4558C35.559 28.2807 34.4931 24.6748 32.5573 21.3026C30.6213 17.9302 28.0496 15.1986 25.316 13.6108C22.6016 12.0345 20.0552 11.7771 18.1462 12.8854C16.2369 13.994 15.1856 16.3406 15.1856 19.4931C15.1856 22.5035 16.155 25.9335 17.9171 29.1635L19.4599 28.3199C18.1222 25.8436 17.3867 23.2139 17.3867 20.9026C17.3867 18.4175 18.2255 16.5619 19.7489 15.6773C21.272 14.7934 23.2894 14.9907 25.4291 16.2331C27.5493 17.4645 29.5411 19.5782 31.0373 22.1852C32.5336 24.7921 33.3577 27.5838 33.3577 30.0461C33.3577 32.5309 32.5191 34.3868 30.996 35.2716C29.4726 36.156 27.4557 35.9589 25.316 34.7163C23.4406 33.6273 21.627 31.8042 20.1995 29.5754L18.6625 30.4404ZM29.9718 38.9692C28.5411 38.9692 26.9567 38.4881 25.316 37.5354C22.761 36.0516 20.3075 33.5386 18.4077 30.4593C18.3915 30.4329 18.3867 30.4011 18.3944 30.3711C18.4021 30.341 18.4217 30.3153 18.4487 30.3001L20.1821 29.3245C20.2347 29.295 20.3007 29.312 20.3326 29.3627C21.7495 31.6022 23.5593 33.4335 25.4291 34.5194C27.4955 35.7194 29.4326 35.9166 30.8829 35.0745C32.333 34.2322 33.1316 32.4464 33.1316 30.0461C33.1316 27.6231 32.3183 24.8717 30.8415 22.2989C29.3648 19.726 27.4023 17.6416 25.316 16.43C23.2494 15.2297 21.3123 15.0328 19.8619 15.8742C18.4116 16.7165 17.6128 18.5023 17.6128 20.9026C17.6128 23.2073 18.3584 25.8382 19.7127 28.3105C19.7269 28.3371 19.7306 28.3683 19.722 28.3974C19.7136 28.4263 19.6939 28.4508 19.6675 28.4652L17.9264 29.4173C17.8717 29.4469 17.8034 29.4271 17.7733 29.3725C15.9588 26.0806 14.9595 22.572 14.9595 19.4931C14.9595 16.256 16.051 13.8394 18.0331 12.6885C20.0152 11.5378 22.6419 11.7955 25.4291 13.4139C28.1966 15.0212 30.7977 17.7824 32.7533 21.1889C34.7083 24.5952 35.7851 28.2414 35.7851 31.4558C35.7851 34.6927 34.6936 37.1093 32.712 38.2606C31.8965 38.7341 30.9718 38.9692 29.9718 38.9692Z" fill="#141414"/>
<path fill-rule="evenodd" clip-rule="evenodd" d="M5.49081 36.8246L2.79338 34.8502C2.76151 34.8268 2.7441 34.7882 2.74749 34.7486C2.75065 34.709 2.77439 34.674 2.81011 34.6563L8.65353 31.7534C8.68337 31.7384 8.71773 31.7377 8.74826 31.7509L11.2108 32.8163L11.1215 33.0251L8.70688 31.9804L3.0778 34.777L5.62398 36.6406L5.49081 36.8246Z" fill="#141414" fill-opacity="0.3"/>
<path fill-rule="evenodd" clip-rule="evenodd" d="M3.84115 35.4514L3.74144 35.2472L9.42931 32.4371C9.45237 32.4255 9.47837 32.4224 9.50392 32.428L11.1907 32.8099L11.141 33.0316L9.49306 32.6589L3.84115 35.4514ZM3.79141 42.1708C3.76473 42.1708 3.73805 42.1614 3.71703 42.1428C3.67746 42.108 3.66684 42.0507 3.69125 42.0041L5.89695 37.788L6.09703 37.894L4.11245 41.6873L9.83151 37.5892L11.9167 34.2343L12.1082 34.3551L10.011 37.7291C10.0033 37.7416 9.99294 37.7527 9.98096 37.7614L3.85697 42.1498C3.8373 42.1639 3.81424 42.1708 3.79141 42.1708Z" fill="#141414" fill-opacity="0.3"/>
<path fill-rule="evenodd" clip-rule="evenodd" d="M12.9124 33.887L12.7964 33.6919L25.7672 25.9083C25.7735 25.8969 25.7819 25.8867 25.7925 25.8788C25.8147 25.8617 25.8273 25.8226 25.8273 25.7712C25.8273 25.6031 25.7055 25.3905 25.5608 25.3068C25.5391 25.2939 25.4665 25.2563 25.4339 25.2939C25.4238 25.3057 25.4113 25.3152 25.3978 25.3218C25.1889 25.4324 12.4483 32.5108 12.3192 32.5824L12.21 32.3834L24.731 25.4308C25.0078 25.2775 25.1669 25.1893 25.2632 25.1449C25.3605 25.0321 25.5178 25.0189 25.674 25.1099C25.8868 25.2334 26.0534 25.5238 26.0534 25.7712C26.0534 25.8744 26.0233 25.9627 25.9673 26.0245C25.9589 26.0463 25.9453 26.0659 25.9261 26.0775L12.9124 33.887Z" fill="#141414"/>
<path fill-rule="evenodd" clip-rule="evenodd" d="M0.380728 39.7035C0.354276 39.7035 0.330763 39.7092 0.311094 39.7206C0.257059 39.752 0.226086 39.8311 0.226086 39.9371C0.226086 40.2061 0.42165 40.547 0.653388 40.6814C0.744726 40.7348 0.828152 40.7471 0.882412 40.7155C0.936447 40.6841 0.967421 40.6052 0.967421 40.499C0.967421 40.23 0.771856 39.8891 0.540345 39.7547C0.482015 39.7208 0.427076 39.7035 0.380728 39.7035ZM0.813004 40.9604C0.727092 40.9604 0.634396 40.9331 0.540345 40.8786C0.23739 40.7025 0 40.2891 0 39.9371C0 39.7447 0.0703127 39.598 0.198051 39.5237C0.326242 39.4493 0.487667 39.4616 0.653388 39.5578C0.956116 39.7336 1.19351 40.1472 1.19351 40.499C1.19351 40.6914 1.12319 40.8383 0.995455 40.9124C0.940064 40.9447 0.878569 40.9604 0.813004 40.9604Z" fill="#141414"/>
<path fill-rule="evenodd" clip-rule="evenodd" d="M3.73095 42.1533L2.79926 41.5623C2.74884 41.5303 2.73188 41.4643 2.76037 41.4115L4.16255 38.8296L4.36106 38.9387L3.00974 41.427L3.85146 41.961L3.73095 42.1533Z" fill="#141414" fill-opacity="0.3"/>
<path fill-rule="evenodd" clip-rule="evenodd" d="M0.969848 40.9289L0.856805 40.732L5.86483 37.8214C5.91321 37.7889 5.94305 37.7105 5.94305 37.6043C5.94305 37.3245 5.74071 36.9705 5.50083 36.8311C5.43888 36.7951 5.3489 36.7597 5.27407 36.7956L0.296564 39.725L0.182617 39.5286L5.16849 36.5946C5.30504 36.5291 5.45991 36.5448 5.61387 36.6341C5.92519 36.8152 6.16914 37.2413 6.16914 37.6043C6.16914 37.7894 6.10335 37.9349 5.98375 38.0147L0.969848 40.9289Z" fill="#141414"/>
<path fill-rule="evenodd" clip-rule="evenodd" d="M11.5082 32.8585C11.5394 32.8738 11.5693 32.8904 11.5975 32.9065C11.9475 33.1098 12.2215 33.5876 12.2215 33.9938C12.2215 34.0256 12.219 34.0572 12.2138 34.0883L12.6877 33.805C12.7603 33.765 12.8048 33.6513 12.8048 33.5128C12.8048 33.1912 12.5708 32.7835 12.2939 32.6225C12.1878 32.5611 12.0893 32.547 12.0169 32.5825C12.0115 32.5852 12.0056 32.5877 11.9997 32.5893C11.9538 32.6111 11.7458 32.7255 11.5082 32.8585ZM11.9597 34.4865C11.9357 34.4865 11.912 34.479 11.8921 34.464C11.8555 34.4365 11.8387 34.3894 11.8501 34.3451C11.8543 34.3276 11.8645 34.3007 11.9281 34.205C11.9728 34.1375 11.9954 34.0663 11.9954 33.9938C11.9954 33.6722 11.7614 33.2645 11.4845 33.1037C11.354 33.028 11.2625 33.0014 11.2127 33.0243C11.1578 33.0493 11.0924 33.0264 11.0651 32.9722C11.0375 32.9179 11.0576 32.8515 11.1105 32.8215C11.645 32.5197 11.8345 32.4128 11.9179 32.3794C12.0594 32.3082 12.2333 32.3251 12.4069 32.4256C12.7567 32.6289 13.0309 33.1064 13.0309 33.5128C13.0309 33.74 12.9445 33.923 12.7996 34.0024L12.0174 34.4704C11.9995 34.4811 11.9796 34.4865 11.9597 34.4865Z" fill="#141414"/>
</g>
<defs>
<clipPath id="clip0_1770_1085">
<rect width="46.2121" height="50" fill="white"/>
</clipPath>
</defs>
</svg>
