<svg width="32" height="50" viewBox="0 0 32 50" fill="none" xmlns="http://www.w3.org/2000/svg">
<g clip-path="url(#clip0_1770_1166)">
<path fill-rule="evenodd" clip-rule="evenodd" d="M15.8421 50C14.3249 50 12.8079 49.6657 11.6529 48.9968C10.9988 48.6179 10.5155 48.1691 10.2163 47.6624L10.3964 47.5553C10.6772 48.0305 11.1351 48.4545 11.7576 48.8149C14.0098 50.1191 17.6744 50.1191 19.9266 48.8149C20.5698 48.4424 21.0365 48.0034 21.3138 47.5099L21.4961 47.613C21.2001 48.1397 20.7074 48.6053 20.0313 48.9968C18.8763 49.6657 17.3591 50 15.8421 50Z" fill="#141414" fill-opacity="0.5"/>
<path fill-rule="evenodd" clip-rule="evenodd" d="M15.8424 48.9401C13.7046 48.9401 11.5673 48.469 9.93958 47.5265C8.29695 46.5753 7.41836 45.3041 7.46568 43.9468C7.5061 42.7826 7.47238 42.4517 7.47217 42.4485L7.6803 42.4254C7.68177 42.4386 7.71611 42.7665 7.67486 43.9541C7.63026 45.23 8.47178 46.434 10.0443 47.3446C13.2414 49.1959 18.4434 49.1961 21.6401 47.3446C23.1692 46.4592 24.0112 45.2883 24.011 44.0478V42.0654H24.2203V44.0478C24.2205 45.3665 23.3413 46.602 21.7448 47.5267C20.1176 48.4688 17.9798 48.9401 15.8424 48.9401Z" fill="#141414"/>
<path fill-rule="evenodd" clip-rule="evenodd" d="M15.8423 47.2499C13.7044 47.2501 11.567 46.7788 9.93946 45.8362C7.84309 44.6221 6.88494 42.8183 7.6092 41.4494L7.79409 41.5479C7.12552 42.8114 8.0508 44.4999 10.0442 45.6544C13.2413 47.5059 18.4433 47.5057 21.64 45.6544C23.6802 44.473 24.1053 42.6587 23.8228 41.3547L24.0274 41.3102C24.3255 42.6864 23.8825 44.5984 21.7446 45.8364C20.1175 46.7786 17.9797 47.2496 15.8423 47.2499Z" fill="#141414"/>
<path fill-rule="evenodd" clip-rule="evenodd" d="M15.8443 45.2013C13.7063 45.2015 11.5691 44.7302 9.94153 43.7877C8.2989 42.8363 7.42032 41.5651 7.46764 40.2077C7.50554 39.1179 7.47141 38.9535 7.46994 38.9472L7.66655 38.8762C7.71241 38.9821 7.69273 39.7606 7.67681 40.2151C7.63242 41.4909 8.47395 42.6952 10.0462 43.6058C13.2433 45.4571 18.4451 45.4573 21.642 43.6058C23.1712 42.7204 24.0131 41.5495 24.0129 40.309C24.0129 39.0894 24.0108 38.918 24.0108 38.9163L24.2202 38.9138C24.2202 38.9138 24.2223 39.0816 24.2223 40.309C24.2225 41.6279 23.3433 42.8634 21.7467 43.7879C20.1196 44.73 17.9815 45.2013 15.8443 45.2013Z" fill="#141414"/>
<path fill-rule="evenodd" clip-rule="evenodd" d="M15.8272 43.4827C13.6891 43.4827 11.5565 43.0085 9.93903 42.0601C8.44213 41.182 7.5715 40.1189 7.42179 38.9852C7.29406 38.0198 7.6921 37.0359 8.57278 36.1397L8.72187 36.2872C7.8883 37.1354 7.51057 38.0589 7.62929 38.9577C7.77021 40.0246 8.60545 41.0348 10.0448 41.8786C13.2214 43.7417 18.4231 43.7415 21.6401 41.8784C22.9199 41.1375 23.7085 40.1027 23.8607 38.9651C23.9928 37.9774 23.6274 36.9638 22.8581 36.1843L23.007 36.0366C23.8224 36.8628 24.2091 37.9402 24.0682 38.993C23.9072 40.1966 23.082 41.286 21.7448 42.0605C20.1074 43.0085 17.9646 43.4825 15.8272 43.4827Z" fill="#141414"/>
<mask id="mask0_1770_1166" style="mask-type:luminance" maskUnits="userSpaceOnUse" x="0" y="0" width="32" height="42">
<path d="M0 0H31.6901V41.8667H0V0Z" fill="white"/>
</mask>
<g mask="url(#mask0_1770_1166)">
<path fill-rule="evenodd" clip-rule="evenodd" d="M9.20382 38.0411L9.42556 38.6449C9.70948 39.2634 10.293 39.8474 11.1073 40.3189C13.7184 41.8308 17.9664 41.831 20.5772 40.3191C21.3916 39.8476 21.9753 39.2634 22.2651 38.63L22.4527 38.1009C23.182 33.5079 24.9972 29.4086 28.1644 25.203C30.1971 22.5039 31.2714 19.2843 31.2714 15.893C31.2714 11.6908 29.6204 7.75929 26.6224 4.82264C23.6257 1.88703 19.6675 0.325563 15.471 0.42469C7.26616 0.619375 0.514087 7.47682 0.419863 15.7111C0.379452 19.2331 1.49004 22.5631 3.63101 25.3412C6.71568 29.3433 8.48667 33.3789 9.20382 38.0411ZM15.8426 41.8667C14.0517 41.8667 12.2613 41.4721 10.898 40.6827C10.0081 40.1673 9.36525 39.5181 9.03861 38.8051L8.80347 38.1665C8.79866 38.1532 8.79531 38.1396 8.79321 38.1257C8.08926 33.5281 6.3436 29.5474 3.29976 25.5981C1.10037 22.7446 -0.0403673 19.3238 0.0010911 15.7063C0.048203 11.5912 1.67702 7.69692 4.58748 4.74073C7.49816 1.78412 11.3599 0.102106 15.4611 0.0046582C19.7661 -0.0982497 23.837 1.5069 26.9152 4.5221C29.9942 7.53835 31.6902 11.5765 31.6902 15.893C31.6902 19.3765 30.5865 22.6835 28.4985 25.4561C25.3699 29.6106 23.5794 33.6557 22.8633 38.186C22.8612 38.1988 22.8579 38.2114 22.8537 38.2238L22.6527 38.7881C22.3193 39.5181 21.6765 40.1675 20.7866 40.6829C19.4237 41.4721 17.6329 41.8667 15.8426 41.8667Z" fill="#141414"/>
</g>
<path fill-rule="evenodd" clip-rule="evenodd" d="M15.8422 33.1534C14.2665 33.1534 12.6909 33.5005 11.4915 34.1953C10.3491 34.8566 9.72013 35.7299 9.72013 36.6539C9.72013 37.578 10.3491 38.4512 11.4915 39.1128C13.8907 40.5021 17.7943 40.5023 20.193 39.1128C21.3354 38.4515 21.9644 37.5782 21.9644 36.6541C21.9644 35.7301 21.3352 34.8568 20.193 34.1953C18.9934 33.5005 17.4178 33.1534 15.8422 33.1534ZM15.8424 40.3618C14.2288 40.3618 12.6153 40.0062 11.3868 39.2947C10.177 38.5941 9.51074 37.6561 9.51074 36.6539C9.51074 35.6517 10.177 34.714 11.3868 34.0134C13.8434 32.5907 17.8407 32.5907 20.2977 34.0134C21.5075 34.714 22.1738 35.6517 22.1738 36.6541C22.1738 37.6563 21.5075 38.5943 20.2977 39.2949C19.0696 40.006 17.4557 40.3618 15.8424 40.3618Z" fill="#141414"/>
<path fill-rule="evenodd" clip-rule="evenodd" d="M14.9418 4.92116L14.9269 4.71177C15.1365 4.69665 15.3495 4.6872 15.5599 4.68384L15.5632 4.89385C15.3568 4.89721 15.1476 4.90645 14.9418 4.92116ZM16.8057 4.94384C16.6014 4.9241 16.3926 4.90981 16.1853 4.90141L16.1937 4.69161C16.4048 4.70001 16.6175 4.7145 16.8258 4.73466L16.8057 4.94384ZM13.7087 5.08035L13.6704 4.8739C13.8764 4.83547 14.0871 4.80208 14.2962 4.77498L14.323 4.98332C14.1176 5.00978 13.911 5.04255 13.7087 5.08035ZM18.0346 5.13306C17.8334 5.09022 17.6278 5.05242 17.423 5.02091L17.455 4.81342C17.6634 4.84555 17.873 4.88398 18.0784 4.92767L18.0346 5.13306ZM12.5016 5.37878L12.44 5.17801C12.6415 5.11584 12.8469 5.05893 13.0508 5.00831L13.1009 5.21245C12.9009 5.2618 12.6993 5.31788 12.5016 5.37878ZM19.2342 5.46132C19.039 5.39558 18.8389 5.33468 18.6393 5.28007L18.6942 5.07741C18.8979 5.13306 19.1019 5.19523 19.3008 5.26222L19.2342 5.46132ZM11.3372 5.81246L11.2532 5.62009C11.4452 5.53587 11.6425 5.45586 11.8397 5.38235L11.9126 5.57935C11.7191 5.65138 11.5256 5.72993 11.3372 5.81246ZM20.3908 5.92503C20.2032 5.83704 20.011 5.75345 19.8192 5.67658L19.8969 5.48148C20.0925 5.55981 20.2885 5.64508 20.4796 5.73476L20.3908 5.92503ZM10.2298 6.37573L10.1246 6.19427C10.3066 6.08822 10.4936 5.98636 10.681 5.89101L10.7756 6.07834C10.592 6.1718 10.4084 6.27198 10.2298 6.37573ZM21.4868 6.51728C21.3103 6.40849 21.1287 6.30369 20.9472 6.20561L21.0466 6.02059C21.2315 6.12077 21.4164 6.22767 21.5963 6.33834L21.4868 6.51728ZM9.19204 7.06122L9.06724 6.89279C9.23538 6.76741 9.41001 6.64476 9.5861 6.52841L9.70126 6.70377C9.52852 6.81802 9.35724 6.93836 9.19204 7.06122ZM22.5086 7.22965C22.3457 7.10196 22.1773 6.97721 22.0077 6.85897L22.1271 6.68655C22.3 6.8071 22.4717 6.93416 22.6376 7.06437L22.5086 7.22965ZM8.23745 7.85991L8.09444 7.70639C8.24833 7.56232 8.4081 7.42077 8.56953 7.28573L8.70375 7.44702C8.54524 7.57954 8.38841 7.71836 8.23745 7.85991ZM23.4435 8.0525C23.2961 7.90737 23.1426 7.76456 22.9876 7.62805L23.1256 7.47012C23.2837 7.60915 23.4399 7.75469 23.5903 7.90275L23.4435 8.0525ZM7.37792 8.7613L7.21857 8.625C7.35488 8.46497 7.4979 8.3062 7.64363 8.1533L7.79501 8.29863C7.652 8.44859 7.51151 8.60421 7.37792 8.7613ZM24.28 8.9751C24.1506 8.81506 24.0141 8.65587 23.8746 8.50214L24.0296 8.3608C24.1717 8.51747 24.3105 8.67981 24.4425 8.84279L24.28 8.9751ZM6.62434 9.75447L6.45076 9.63686C6.56864 9.46191 6.69301 9.28823 6.82053 9.12001L6.9872 9.24728C6.86199 9.41214 6.73992 9.58288 6.62434 9.75447ZM25.0076 9.98569C24.8966 9.81159 24.7792 9.63833 24.6581 9.47031L24.8277 9.34725C24.9511 9.51841 25.071 9.69524 25.1839 9.8725L25.0076 9.98569ZM5.98697 10.8268L5.80145 10.7298C5.89819 10.5435 6.00225 10.3566 6.1105 10.1741L6.29057 10.2816C6.18421 10.4605 6.08203 10.6441 5.98697 10.8268ZM25.6167 11.0715C25.5256 10.8854 25.4285 10.7 25.3275 10.5202L25.5099 10.4171C25.6127 10.6004 25.712 10.7894 25.8045 10.9791L25.6167 11.0715ZM5.47502 11.9653L5.27966 11.8901C5.35525 11.6923 5.43754 11.4947 5.52422 11.3023L5.71497 11.3888C5.62996 11.5774 5.54935 11.7715 5.47502 11.9653ZM26.0987 12.2184C26.0296 12.0233 25.9538 11.8282 25.874 11.6383L26.0671 11.5566C26.1483 11.7502 26.2254 11.9491 26.2962 12.148L26.0987 12.2184ZM5.09561 13.1544L4.89292 13.1019C4.94548 12.8982 5.00474 12.6926 5.06881 12.4912L5.26814 12.555C5.20512 12.7529 5.14712 12.9545 5.09561 13.1544ZM26.4484 13.4153C26.4019 13.2136 26.3489 13.0108 26.2907 12.8119L26.4917 12.7529C26.5508 12.9555 26.605 13.1624 26.6525 13.3678L26.4484 13.4153ZM4.85377 14.3776L4.64648 14.3486C4.67579 14.139 4.71118 13.9281 4.75201 13.7217L4.9572 13.7624C4.91721 13.9651 4.88245 14.1719 4.85377 14.3776ZM26.6603 14.6439C26.6368 14.4382 26.6069 14.2305 26.5719 14.0266L26.7782 13.9907C26.814 14.1986 26.8443 14.4103 26.8684 14.6199L26.6603 14.6439ZM4.75138 15.6204L4.54199 15.6148C4.54765 15.4039 4.55937 15.1905 4.57654 14.9803L4.7853 14.9975C4.76834 15.2038 4.75682 15.4134 4.75138 15.6204ZM26.7329 15.889C26.7325 15.6826 26.726 15.4728 26.7141 15.2655L26.9231 15.2531C26.9354 15.4644 26.9419 15.6782 26.9423 15.8886L26.7329 15.889ZM26.9247 16.5537L26.7158 16.542C26.7271 16.336 26.7329 16.1261 26.7329 15.9184H26.9423C26.9423 16.1299 26.9365 16.3437 26.9247 16.5537ZM4.57884 16.8851C4.56105 16.6755 4.5489 16.4622 4.54262 16.2507L4.75201 16.2444C4.75808 16.4521 4.77001 16.6617 4.78739 16.8673L4.57884 16.8851ZM26.7832 17.8164L26.5767 17.7813C26.6113 17.5759 26.6406 17.3682 26.6636 17.1636L26.8718 17.1871C26.8483 17.3955 26.8186 17.6072 26.7832 17.8164ZM4.75745 18.1433C4.71599 17.9352 4.67998 17.7244 4.65045 17.5167L4.85775 17.4873C4.88664 17.691 4.92182 17.8978 4.96286 18.102L4.75745 18.1433ZM26.5001 19.055L26.2989 18.9966C26.3565 18.7971 26.409 18.594 26.4551 18.3928L26.659 18.4399C26.6123 18.6449 26.5587 18.8519 26.5001 19.055ZM5.0776 19.3732C5.01248 19.1712 4.95281 18.9658 4.90004 18.7627L5.10273 18.7098C5.15445 18.9089 5.21307 19.1105 5.27673 19.3085L5.0776 19.3732ZM26.0773 20.2549L25.8843 20.1738C25.9639 19.9833 26.0394 19.7871 26.1085 19.5908L26.306 19.6607C26.2354 19.8609 26.1586 20.0608 26.0773 20.2549ZM5.53448 20.5573C5.44738 20.3649 5.36488 20.1681 5.28929 19.9722L5.48465 19.8964C5.55877 20.0885 5.63959 20.2817 5.72502 20.4705L5.53448 20.5573ZM25.5216 21.399L25.3388 21.2963C25.4402 21.1149 25.5373 20.9286 25.6276 20.7429L25.8156 20.8349C25.7239 21.0239 25.6249 21.2138 25.5216 21.399ZM6.12202 21.6815C6.01398 21.5005 5.9097 21.3142 5.81213 21.1277L5.99764 21.0302C6.09333 21.2132 6.19572 21.3961 6.30167 21.5738L6.12202 21.6815ZM24.8405 22.472L24.6705 22.3493C24.7909 22.1815 24.9083 22.0074 25.0195 21.8325L25.1963 21.9453C25.0828 22.1236 24.9632 22.3008 24.8405 22.472ZM6.83247 22.7328C6.70516 22.5652 6.58058 22.392 6.46248 22.2172L6.63585 22.0994C6.75164 22.2708 6.87392 22.4409 6.99893 22.6051L6.83247 22.7328ZM24.0434 23.4605L23.8884 23.3196C24.0264 23.1667 24.1627 23.0073 24.293 22.8456L24.4559 22.9777C24.3229 23.1424 24.1843 23.3049 24.0434 23.4605ZM7.65682 23.6972C7.5115 23.5454 7.36829 23.387 7.23114 23.2266L7.39006 23.0899C7.5247 23.2474 7.66519 23.4028 7.808 23.5519L7.65682 23.6972ZM23.1411 24.3529L23.0027 24.1954C23.1579 24.0582 23.3109 23.9152 23.4577 23.7701L23.6047 23.9196C23.4552 24.0675 23.2992 24.2132 23.1411 24.3529ZM8.5844 24.5635C8.42233 24.4283 8.26215 24.2872 8.10846 24.1435L8.25127 23.9898C8.40202 24.1307 8.55927 24.2695 8.71841 24.402L8.5844 24.5635ZM22.1451 25.1377L22.0253 24.9653C22.1943 24.8471 22.3622 24.7223 22.5247 24.5942L22.6541 24.7595C22.4885 24.8899 22.3174 25.0172 22.1451 25.1377ZM9.60369 25.3198C9.4276 25.2041 9.25255 25.0816 9.08337 24.9561L9.20795 24.7872C9.37399 24.9105 9.5459 25.0306 9.71864 25.1444L9.60369 25.3198ZM21.0676 25.8047L20.9681 25.6199C21.1488 25.5218 21.3297 25.4168 21.5058 25.3078L21.6157 25.4866C21.4363 25.5977 21.2518 25.7048 21.0676 25.8047ZM10.7019 25.9564C10.5139 25.8612 10.3261 25.7594 10.1437 25.6539L10.2484 25.4721C10.4272 25.5756 10.6117 25.6754 10.7964 25.769L10.7019 25.9564ZM19.9231 26.3447L19.845 26.15C20.0355 26.0729 20.2269 25.9891 20.4139 25.9009L20.5031 26.091C20.3125 26.1809 20.1174 26.2661 19.9231 26.3447ZM11.8659 26.4642C11.6672 26.3907 11.4689 26.3109 11.2765 26.2269L11.3602 26.0343C11.5487 26.1166 11.7434 26.1949 11.9383 26.267L11.8659 26.4642ZM18.7227 26.7515L18.667 26.549C18.8665 26.494 19.0667 26.4325 19.2614 26.3663L19.3286 26.5654C19.1299 26.6326 18.926 26.6954 18.7227 26.7515ZM13.0793 26.8353C12.8753 26.7855 12.6697 26.729 12.4681 26.6673L12.5292 26.4665C12.7269 26.527 12.9287 26.5824 13.1287 26.6314L13.0793 26.8353ZM17.4839 27.019L17.4515 26.8116C17.6554 26.7796 17.861 26.7414 18.0629 26.6977L18.1069 26.9031C17.9012 26.9474 17.6916 26.9865 17.4839 27.019ZM14.3253 27.0655C14.1168 27.0392 13.9059 27.0064 13.6991 26.9682L13.737 26.7616C13.9401 26.7992 14.1467 26.8313 14.3515 26.8571L14.3253 27.0655ZM16.223 27.144L16.2142 26.9342C16.4198 26.9254 16.6284 26.9107 16.8344 26.8903L16.8551 27.0993C16.6451 27.1201 16.4326 27.1352 16.223 27.144ZM15.5892 27.1532C15.3794 27.1505 15.1664 27.1417 14.9562 27.1272L14.9707 26.9176C15.1771 26.9319 15.3861 26.9405 15.5919 26.9432L15.5892 27.1532Z" fill="#141414" fill-opacity="0.5"/>
<path fill-rule="evenodd" clip-rule="evenodd" d="M16.4452 22.8256L15.9498 23.1072V21.5947C15.9586 21.4481 15.8403 21.3294 15.6942 21.3294C15.5478 21.3294 15.4295 21.4481 15.3217 21.5947V23.4136L15.0907 23.6098L11.9585 19.5714C12.1342 19.5147 12.2835 19.5218 12.4585 19.5327C12.7485 19.5495 13.0764 19.5693 13.523 19.2969C13.9699 19.0245 14.1032 18.7233 14.2211 18.4579C14.3239 18.226 14.4052 18.0427 14.7109 17.8564C15.0168 17.6699 15.2165 17.6808 15.4691 17.697C15.7586 17.7136 16.0865 17.7333 16.5336 17.4609C16.9808 17.1879 17.1148 16.8869 17.2327 16.6213C17.3362 16.3892 17.4176 16.2057 17.7237 16.019C18.0297 15.8325 18.2284 15.844 18.4828 15.8591C18.6302 15.8673 18.7876 15.8761 18.9656 15.8474L16.4452 22.8256ZM19.4279 15.6252C19.4296 15.6208 19.4288 15.6161 19.43 15.6113C19.4353 15.5943 19.4363 15.5769 19.4378 15.559C19.439 15.5435 19.4415 15.5281 19.4399 15.5128C19.4384 15.4971 19.433 15.4824 19.4283 15.4668C19.4233 15.4498 19.4191 15.4334 19.4108 15.4179C19.4085 15.4135 19.4085 15.4089 19.4059 15.4047C19.3999 15.3946 19.3902 15.3887 19.3831 15.3799C19.3722 15.3662 19.3618 15.353 19.3479 15.3417C19.3341 15.3303 19.319 15.3223 19.3033 15.3143C19.2933 15.3091 19.2855 15.3007 19.2747 15.2967C19.2701 15.295 19.2654 15.2961 19.2608 15.2946C19.2443 15.2898 19.228 15.2887 19.211 15.287C19.1943 15.2856 19.1781 15.2831 19.1618 15.2847C19.1471 15.2862 19.1333 15.2915 19.1189 15.2954C19.1011 15.3007 19.0839 15.3053 19.0676 15.3141C19.0634 15.3164 19.0588 15.3162 19.0548 15.3188C18.7592 15.4987 18.5663 15.4876 18.3215 15.4733C18.0412 15.4569 17.7246 15.438 17.2926 15.7016C16.8604 15.9654 16.7312 16.2561 16.6171 16.5127C16.5173 16.737 16.4385 16.9145 16.1427 17.0947C15.8472 17.2748 15.6542 17.2635 15.41 17.249C15.1317 17.2331 14.8139 17.2133 14.3817 17.4769C13.9498 17.74 13.8208 18.0309 13.7069 18.2875C13.6076 18.5116 13.5291 18.6885 13.2341 18.8685C12.9386 19.0489 12.7464 19.0375 12.5014 19.0226C12.2225 19.0064 11.9051 18.9867 11.4731 19.2505C11.3984 19.296 11.3601 19.3744 11.3555 19.4559C11.3538 19.4666 11.3544 19.4771 11.354 19.4878C11.3546 19.4968 11.3542 19.5054 11.3557 19.5145C11.3592 19.5638 11.372 19.6125 11.4043 19.6545L14.6935 23.8954V26.7315L13.4608 29.4547C13.4454 29.4894 13.4372 29.527 13.4372 29.565V37.8711C13.4372 37.8711 13.5944 38.1366 13.7408 38.1366C13.8869 38.1366 14.0653 37.8711 14.0653 37.8711V29.6209L15.298 26.8976C15.3135 26.8629 15.3217 26.8253 15.3217 26.7873V24.0907L16.3686 23.4846V25.8238C16.3686 25.892 16.3948 25.9578 16.4419 26.0071L17.6249 27.2502V35.4373C17.6249 35.4373 17.7974 35.7025 17.9438 35.7025C18.09 35.7025 18.2531 35.4373 18.2531 35.4373V27.1588C18.2531 27.1588 18.1823 27.0248 18.1352 26.9755L16.7874 25.7047V22.9365L19.4279 15.6252Z" fill="#141414" fill-opacity="0.5"/>
<path fill-rule="evenodd" clip-rule="evenodd" d="M12.1425 19.6378L15.1064 23.4591L15.217 23.365V21.5948C15.217 21.5723 15.2241 21.5505 15.2375 21.5324C15.3428 21.389 15.49 21.2243 15.6939 21.2243C15.7947 21.2243 15.8914 21.2659 15.9597 21.3383C16.0264 21.41 16.0602 21.503 16.0543 21.6011L16.0545 22.9271L16.36 22.7534L18.8102 15.9693C18.6903 15.9758 18.5799 15.9697 18.4786 15.9642C18.2325 15.9497 18.0562 15.9392 17.7782 16.1089C17.5003 16.2782 17.4283 16.4397 17.3288 16.6634C17.2103 16.9299 17.0633 17.2607 16.588 17.5507C16.1144 17.8393 15.7547 17.8187 15.4657 17.8021C15.2207 17.7863 15.0457 17.7752 14.7651 17.9462C14.4877 18.1152 14.4161 18.2767 14.317 18.5C14.1985 18.7669 14.0517 19.0975 13.5775 19.3867C13.1043 19.6754 12.7443 19.6546 12.4547 19.6376C12.3345 19.6303 12.2376 19.6261 12.1425 19.6378ZM15.0907 23.7149C15.0871 23.7149 15.0836 23.7147 15.0798 23.7145C15.0515 23.7113 15.0256 23.697 15.0082 23.6743L11.8758 19.636C11.8548 19.6089 11.8484 19.5734 11.8584 19.5406C11.8685 19.5078 11.8938 19.482 11.9262 19.4715C12.1264 19.4068 12.2985 19.4173 12.465 19.4278C12.7542 19.4448 13.0511 19.4618 13.4686 19.2071C13.8871 18.9519 14.0082 18.6795 14.1252 18.4158C14.2316 18.1761 14.3231 17.9699 14.6564 17.7666C14.9933 17.5614 15.2274 17.5765 15.4758 17.5923C15.7647 17.6089 16.0614 17.6257 16.4791 17.3711C16.8987 17.1151 17.02 16.8425 17.1372 16.5787C17.244 16.3389 17.3357 16.1327 17.6695 15.9294C18.0035 15.7257 18.229 15.7389 18.4888 15.7544C18.6339 15.7624 18.7828 15.7706 18.9488 15.7437C18.9853 15.7381 19.0226 15.7519 19.0462 15.7805C19.0699 15.8092 19.0766 15.8483 19.064 15.8832L16.5436 22.8614C16.5353 22.8849 16.5185 22.9046 16.4967 22.917L16.0015 23.1987C15.9691 23.2171 15.9293 23.2169 15.8973 23.198C15.865 23.1791 15.8451 23.1447 15.8451 23.1073V21.5948C15.8476 21.549 15.834 21.5112 15.8072 21.4824C15.7783 21.452 15.7373 21.4343 15.6939 21.4343C15.6133 21.4343 15.53 21.495 15.4263 21.6298V23.4137C15.4263 23.4446 15.4129 23.474 15.3893 23.4937L15.1583 23.6899C15.1395 23.7061 15.1154 23.7149 15.0907 23.7149ZM13.5419 37.841C13.6032 37.9353 13.6954 38.0317 13.7408 38.0317C13.7881 38.0317 13.8903 37.934 13.9606 37.8378V29.621C13.9606 29.6058 13.9638 29.5911 13.9701 29.5775L15.2027 26.8542C15.2121 26.8332 15.217 26.8107 15.217 26.7874V24.0908C15.217 24.0532 15.2369 24.0186 15.2693 23.9999L16.3162 23.3938C16.3485 23.3751 16.3887 23.3751 16.4209 23.3938C16.4534 23.4125 16.4733 23.4471 16.4733 23.4847V25.8239C16.4733 25.8652 16.489 25.9045 16.5177 25.9345L17.7007 27.1778C17.7193 27.1974 17.7296 27.2234 17.7296 27.2503V35.4048C17.7974 35.5004 17.8969 35.5976 17.9438 35.5976C17.9892 35.5976 18.0855 35.4995 18.1484 35.4063V27.1854C18.1209 27.1358 18.0816 27.0711 18.0596 27.0483L16.7157 25.7812C16.6946 25.7615 16.6827 25.7338 16.6827 25.7048V22.9366C16.6827 22.9244 16.6848 22.9122 16.6889 22.9009L19.3262 15.599C19.3272 15.5921 19.3287 15.5849 19.3301 15.5803C19.3314 15.5761 19.3322 15.5656 19.3331 15.5547L19.3358 15.5228L19.3278 15.4963C19.3236 15.4816 19.3207 15.4718 19.3184 15.4673C19.3169 15.4644 19.3151 15.4604 19.3134 15.4562C19.309 15.452 19.3006 15.4447 19.3006 15.4447C19.2931 15.435 19.2866 15.427 19.2816 15.4228C19.2763 15.4186 19.2665 15.4134 19.2554 15.4077C19.2525 15.406 19.2445 15.4012 19.2382 15.3972C19.2263 15.394 19.2171 15.3932 19.2079 15.3924L19.1727 15.3894L19.1471 15.3968C19.1327 15.401 19.1224 15.4039 19.1174 15.4066C19.113 15.409 19.1065 15.4117 19.1002 15.414C18.7818 15.6053 18.5655 15.5927 18.3159 15.5782C18.0363 15.5618 17.7501 15.5453 17.347 15.7914C16.9427 16.0382 16.8259 16.3011 16.7128 16.5554C16.6094 16.7877 16.5206 16.9874 16.1971 17.1844C15.8738 17.3818 15.6565 17.369 15.4039 17.3537C15.1229 17.3377 14.8378 17.3218 14.4362 17.5667C14.032 17.8128 13.9154 18.076 13.8026 18.3303C13.7002 18.5615 13.6116 18.7612 13.2885 18.9584C12.9642 19.1565 12.7466 19.1428 12.4951 19.1273C12.2152 19.1113 11.9294 19.0949 11.5276 19.3402C11.4727 19.3736 11.4618 19.4308 11.4599 19.4618L11.3542 19.478L11.4585 19.4919C11.4627 19.5435 11.4713 19.5698 11.487 19.5902L14.7762 23.831C14.7904 23.8495 14.7982 23.8722 14.7982 23.8955V26.7316C14.7982 26.7465 14.795 26.7612 14.7888 26.7748L13.5563 29.4983C13.5469 29.5191 13.5419 29.5422 13.5419 29.5649V37.841ZM13.7408 38.2417C13.5448 38.2417 13.3785 37.9777 13.3471 37.9248C13.3377 37.9086 13.3325 37.8899 13.3325 37.871V29.5649C13.3325 29.5122 13.344 29.459 13.3658 29.4111L14.5888 26.7087V23.9316L11.3217 19.7191C11.2803 19.6658 11.2566 19.5994 11.2514 19.5217L11.2497 19.5001C11.2497 19.4986 11.2495 19.4774 11.2495 19.4774C11.2495 19.4642 11.2501 19.4513 11.2524 19.4381C11.2577 19.3272 11.3188 19.2218 11.4189 19.1609C11.8762 18.8816 12.224 18.9015 12.5029 18.9175C12.7429 18.9324 12.9114 18.9427 13.1796 18.7789C13.4468 18.6159 13.5157 18.4603 13.6112 18.245C13.7253 17.9877 13.8673 17.6675 14.3273 17.3871C14.7848 17.1084 15.1319 17.1279 15.4109 17.1439C15.6506 17.158 15.8204 17.1683 16.0884 17.0051C16.356 16.8419 16.4253 16.6863 16.5212 16.4708C16.636 16.2129 16.7781 15.8928 17.2382 15.612C17.6971 15.3319 18.0453 15.3523 18.3257 15.3684C18.5636 15.3821 18.733 15.3922 19.0004 15.2292C19.0091 15.2239 19.0253 15.2172 19.0351 15.2147C19.0429 15.2084 19.0665 15.2015 19.0856 15.196C19.1166 15.1865 19.1337 15.1821 19.1517 15.1805C19.175 15.1777 19.1961 15.18 19.2131 15.1817C19.2443 15.1847 19.2665 15.1868 19.2912 15.1943C19.3303 15.2055 19.3442 15.2153 19.3525 15.2212C19.3695 15.2304 19.3919 15.242 19.4143 15.2603C19.4365 15.2785 19.4518 15.2979 19.4644 15.3136C19.4717 15.3201 19.4842 15.3319 19.4953 15.3499C19.5008 15.3586 19.5073 15.3749 19.5098 15.3848C19.5154 15.3917 19.5221 15.4142 19.5274 15.4321C19.5362 15.4613 19.5418 15.4799 19.5441 15.5026C19.546 15.5211 19.545 15.5394 19.5431 15.5581C19.5402 15.5915 19.5381 15.6154 19.5303 15.6414L19.5265 15.6612L16.892 22.955V25.6594L18.2068 26.8991C18.2652 26.9598 18.3326 27.085 18.3456 27.1096C18.3536 27.1247 18.3577 27.1417 18.3577 27.1587V35.4371C18.3577 35.4567 18.3523 35.4758 18.3423 35.4924C18.3098 35.5451 18.1385 35.8076 17.9438 35.8076C17.7505 35.8076 17.5711 35.5468 17.5372 35.4945C17.5261 35.4775 17.5202 35.4577 17.5202 35.4371V27.2923L16.3661 26.0797C16.3001 26.0104 16.2639 25.9194 16.2639 25.8239V23.6666L15.4263 24.1513V26.7874C15.4263 26.8408 15.4152 26.8924 15.3933 26.9409L14.17 29.6436V37.871C14.17 37.892 14.1637 37.9124 14.1522 37.9298C14.1173 37.9819 13.933 38.2417 13.7408 38.2417Z" fill="#141414" fill-opacity="0.5"/>
</g>
<defs>
<clipPath id="clip0_1770_1166">
<rect width="31.6901" height="50" fill="white"/>
</clipPath>
</defs>
</svg>
