<svg width="90" height="50" viewBox="0 0 90 50" fill="none" xmlns="http://www.w3.org/2000/svg">
<g clip-path="url(#clip0_1770_1188)">
<path fill-rule="evenodd" clip-rule="evenodd" d="M26.8818 34.5813C26.8522 34.5813 26.8222 34.5737 26.7956 34.5583L0.137915 19.2311C0.0848422 19.2006 0.0517578 19.1441 0.0517578 19.0831V15.8354H0.396387V18.9841L26.8818 34.212L36.9191 28.424C37.3409 28.1822 37.587 27.8688 37.6128 27.5413C37.6135 27.5342 37.6146 27.5273 37.616 27.5205C37.616 27.504 37.6163 27.4639 37.6163 27.4639V24.3981H37.9609V27.5102C37.9609 27.5324 37.9595 27.5523 37.9564 27.5701C37.9206 28.0126 37.6135 28.4212 37.0918 28.7206L26.9683 34.5583C26.9414 34.5737 26.9118 34.5813 26.8818 34.5813Z" fill="#141414"/>
<path fill-rule="evenodd" clip-rule="evenodd" d="M45.3936 10.7885L45.3398 10.4505C45.6855 10.396 46.0046 10.3741 46.3169 10.3854C47.5975 10.4268 48.8499 10.1562 49.7504 9.6394C50.5637 9.1729 51.0124 8.56255 51.0138 7.92104C51.0135 7.7765 51.0135 7.20211 51.0135 4.70934C51.0135 4.61618 51.0883 4.5398 51.182 4.53809C51.2837 4.54014 51.354 4.60933 51.3578 4.70249L51.3602 4.76003C51.3605 4.77202 51.3598 4.78366 51.3581 4.79497C51.3581 5.30085 51.3581 7.87548 51.3584 7.91967C51.3567 8.69031 50.847 9.40581 49.9227 9.93601C48.9681 10.484 47.6499 10.7745 46.3051 10.7275C46.0157 10.7183 45.7172 10.7378 45.3936 10.7885Z" fill="#141414"/>
<path fill-rule="evenodd" clip-rule="evenodd" d="M49.22 21.8093L49.0415 21.5164L54.1586 18.4376V16.5203H54.5032V18.5342C54.5032 18.5941 54.4718 18.6496 54.4201 18.6808L49.22 21.8093Z" fill="#141414"/>
<path fill-rule="evenodd" clip-rule="evenodd" d="M38.4948 21.999C38.2125 21.7507 37.8524 21.5311 37.4247 21.3472C35.8218 20.6567 33.5207 20.6783 31.9523 21.3986C31.6715 21.5274 31.4195 21.674 31.2034 21.8336L30.998 21.5585C31.2327 21.3849 31.505 21.2267 31.8076 21.0876C33.457 20.33 35.877 20.307 37.5615 21.0328C38.0226 21.2315 38.4134 21.4702 38.7232 21.7425L38.4948 21.999Z" fill="#141414"/>
<path fill-rule="evenodd" clip-rule="evenodd" d="M23.1951 13.1897C22.2922 12.4995 20.8578 12.1149 19.357 12.1614C18.485 12.1871 17.6917 12.0227 17.1207 11.6953C16.5086 11.3442 16.1912 10.8428 16.2501 10.3201L16.2491 7.27283H16.5937V10.3393C16.5496 10.7397 16.805 11.1188 17.293 11.3983C17.8013 11.6902 18.5512 11.8457 19.3459 11.8189C20.9243 11.7727 22.441 12.1813 23.405 12.918L23.1951 13.1897Z" fill="#141414"/>
<mask id="mask0_1770_1188" style="mask-type:luminance" maskUnits="userSpaceOnUse" x="0" y="0" width="55" height="32">
<path d="M0 0H54.3795V31.5225H0V0Z" fill="white"/>
</mask>
<g mask="url(#mask0_1770_1188)">
<path fill-rule="evenodd" clip-rule="evenodd" d="M27.0096 31.5225C26.95 31.5225 26.8904 31.5071 26.8369 31.4766L0.17197 16.1453C0.0658241 16.084 0 15.9709 0 15.8487C0 15.7264 0.0654795 15.6137 0.17197 15.552L10.2737 9.72941C11.4338 9.06426 13.251 9.0646 14.411 9.73044C15.072 10.1093 15.4156 10.6737 15.3542 11.2789C15.2919 11.8923 15.7178 12.5089 16.5232 12.9706C18.3601 14.0248 21.3956 13.9279 23.0202 12.764C23.5616 12.3763 23.8638 11.8961 23.8711 11.4128C23.8783 10.945 23.606 10.4761 23.1043 10.0925C22.232 9.42595 20.839 9.05227 19.3764 9.09988C18.4749 9.12899 17.6471 8.95397 17.0484 8.61078C16.4312 8.25663 16.0911 7.76513 16.0911 7.2267C16.0911 6.68828 16.4309 6.19678 17.0484 5.84229L27.1964 0.0456821C27.3029 -0.0152843 27.4338 -0.0152843 27.5407 0.0460246L37.498 5.75803C38.4323 6.2944 40.0104 6.2944 40.9447 5.75837C41.3648 5.51759 41.5784 5.197 41.5464 4.85621C41.4492 3.81806 42.2191 2.84192 43.6059 2.24458C45.3318 1.50066 47.8107 1.52497 49.5008 2.3011C50.6928 2.84842 51.4003 3.6862 51.4424 4.59898C51.4813 5.4532 50.9268 6.27419 49.9215 6.85097C48.9397 7.4144 47.5874 7.71135 46.2123 7.66546C45.4676 7.6408 44.7576 7.78534 44.2727 8.06379C43.8833 8.28711 43.66 8.57516 43.66 8.8543C43.66 9.13379 43.8833 9.42218 44.2727 9.6455L54.2074 15.3472C54.3142 15.4085 54.3797 15.5216 54.3797 15.6442C54.3797 15.7665 54.3142 15.8795 54.2074 15.9408L47.9382 19.5382L47.5936 18.9446L53.3458 15.6442L43.9281 10.2387C43.3105 9.88457 42.9707 9.39272 42.9707 8.8543C42.9707 8.31622 43.3109 7.82472 43.9281 7.47023C44.5302 7.12498 45.3487 6.95235 46.2357 6.98078C47.4861 7.02257 48.7036 6.75884 49.5769 6.25775C50.363 5.80667 50.7811 5.22851 50.7535 4.62981C50.7242 3.98144 50.1621 3.3591 49.2116 2.92275C47.6839 2.22129 45.4417 2.20006 43.8799 2.87309C42.7802 3.34677 42.1646 4.06433 42.2325 4.79284C42.2904 5.40627 41.9465 5.9745 41.2893 6.35194C40.1296 7.01675 38.3131 7.01709 37.1537 6.3516L27.368 0.737891L17.3924 6.43585C17.0036 6.65917 16.7803 6.94756 16.7803 7.22636C16.7803 7.50585 17.0036 7.7939 17.3931 8.01755C17.8749 8.29396 18.5903 8.44055 19.355 8.41521C20.9969 8.36452 22.5153 8.77826 23.5244 9.54959C24.2029 10.0681 24.571 10.7336 24.5603 11.4235C24.5493 12.1283 24.1454 12.802 23.4234 13.3199C21.5745 14.6447 18.2571 14.7567 16.1786 13.5641C15.1282 12.9613 14.5778 12.1033 14.6684 11.2101C14.7019 10.8802 14.4882 10.5655 14.0664 10.3237C13.1317 9.78695 11.5526 9.78695 10.6187 10.3226L1.03251 15.8483L27.0096 30.7841L36.9635 25.0443C37.3536 24.8207 37.5769 24.5323 37.5769 24.2531C37.5769 23.9736 37.3536 23.6856 36.9642 23.4619C36.4793 23.1838 35.7732 23.0389 35.0243 23.0636C33.6492 23.1085 32.2969 22.8129 31.315 22.2494C30.3098 21.6723 29.7552 20.8517 29.7945 19.9971C29.8362 19.0843 30.5434 18.2469 31.7355 17.6992C33.4252 16.9231 35.9045 16.8995 37.6304 17.6427C38.3231 17.941 38.8559 18.3223 39.2143 18.7757L38.6725 19.1987C38.3896 18.8412 37.9343 18.5202 37.3564 18.2712C35.7938 17.5985 33.5517 17.6198 32.0246 18.3209C31.0745 18.7576 30.5127 19.3799 30.4831 20.0279C30.4555 20.627 30.8736 21.2048 31.6597 21.6559C32.533 22.1573 33.7526 22.4214 35.0008 22.3789C35.8883 22.3501 36.7064 22.5235 37.3088 22.8687C37.9261 23.2232 38.2662 23.7147 38.2662 24.2531C38.2662 24.7915 37.9261 25.283 37.3088 25.6372L27.1826 31.4763C27.1292 31.5071 27.0692 31.5225 27.0096 31.5225Z" fill="#141414"/>
</g>
<mask id="mask1_1770_1188" style="mask-type:luminance" maskUnits="userSpaceOnUse" x="0" y="0" width="90" height="50">
<path d="M0 50H89.6552V0H0V50Z" fill="white"/>
</mask>
<g mask="url(#mask1_1770_1188)">
<path fill-rule="evenodd" clip-rule="evenodd" d="M26.9326 34.3306H27.2772V31.248H26.9326V34.3306Z" fill="#141414"/>
</g>
<mask id="mask2_1770_1188" style="mask-type:luminance" maskUnits="userSpaceOnUse" x="0" y="0" width="90" height="50">
<path d="M0 50H89.6552V0H0V50Z" fill="white"/>
</mask>
<g mask="url(#mask2_1770_1188)">
<path fill-rule="evenodd" clip-rule="evenodd" d="M62.8256 50C62.7956 50 62.7659 49.9925 62.7391 49.9771L52.6152 44.139C52.0952 43.8407 51.7868 43.4321 51.7468 42.9889L51.7461 42.8789V39.8107H52.0907V42.883V42.9241V42.9735C52.1197 43.2872 52.3675 43.6013 52.7879 43.8424L62.8259 49.6308L89.3106 34.4029V31.248H89.6553V34.5019C89.6553 34.5628 89.6225 34.6194 89.5694 34.6498L62.9121 49.9771C62.8852 49.9925 62.8555 50 62.8256 50Z" fill="#141414" fill-opacity="0.2"/>
</g>
<mask id="mask3_1770_1188" style="mask-type:luminance" maskUnits="userSpaceOnUse" x="0" y="0" width="90" height="50">
<path d="M0 50H89.6552V0H0V50Z" fill="white"/>
</mask>
<g mask="url(#mask3_1770_1188)">
<path fill-rule="evenodd" clip-rule="evenodd" d="M47.8006 40.7214C47.0028 40.7214 46.1943 40.5029 45.4571 40.0799L35.6345 34.4435C35.5811 34.4131 35.5483 34.3566 35.5483 34.2952V31.2483H35.893V34.1966L45.6294 39.7832C46.5623 40.3182 47.6159 40.5011 48.597 40.2977C49.6692 40.0751 50.2981 39.5356 50.2375 38.89C50.1475 37.9296 50.8788 37.0178 52.1943 36.4513C53.8785 35.7259 56.2984 35.7488 57.9482 36.5061L57.8034 36.8171C56.235 36.0968 53.9336 36.0749 52.3311 36.7658C51.1593 37.2703 50.5049 38.0526 50.5807 38.8585C50.6417 39.5116 50.1713 40.3206 48.6673 40.633C48.3823 40.6923 48.0921 40.7214 47.8006 40.7214Z" fill="#141414" fill-opacity="0.2"/>
</g>
<mask id="mask4_1770_1188" style="mask-type:luminance" maskUnits="userSpaceOnUse" x="0" y="0" width="90" height="50">
<path d="M0 50H89.6552V0H0V50Z" fill="white"/>
</mask>
<g mask="url(#mask4_1770_1188)">
<path fill-rule="evenodd" clip-rule="evenodd" d="M43.0795 26.1152C41.8367 26.1152 40.6309 25.8298 39.7407 25.3192C38.8226 24.7924 38.3129 24.0769 38.3057 23.3052V19.9456H38.6503V23.3035C38.6562 23.9478 39.1049 24.5588 39.913 25.0226C40.8139 25.5394 42.0694 25.8086 43.3465 25.7682L44.5097 25.7726L44.5083 26.1152L43.3517 26.1107C43.2607 26.1138 43.1701 26.1152 43.0795 26.1152Z" fill="#141414" fill-opacity="0.2"/>
</g>
<mask id="mask5_1770_1188" style="mask-type:luminance" maskUnits="userSpaceOnUse" x="0" y="0" width="90" height="50">
<path d="M0 50H89.6552V0H0V50Z" fill="white"/>
</mask>
<g mask="url(#mask5_1770_1188)">
<path fill-rule="evenodd" clip-rule="evenodd" d="M66.4975 28.6083L66.2876 28.3367C67.2515 27.6 68.7693 27.1924 70.3463 27.2376C71.1424 27.2643 71.8909 27.1092 72.3999 26.8173C72.89 26.5361 73.1416 26.1583 73.0902 25.7809C73.0885 25.7662 73.0885 25.7514 73.0902 25.7367C73.0964 25.5936 73.0988 23.8173 73.0988 22.6432H73.4435L73.4421 24.2009C73.4407 25.0983 73.44 25.5298 73.4149 25.7374L73.4321 25.735C73.5027 26.2573 73.1895 26.7598 72.5723 27.1139C72.0009 27.4417 71.2079 27.6078 70.3356 27.5798C68.8379 27.5369 67.4004 27.9182 66.4975 28.6083Z" fill="#141414" fill-opacity="0.2"/>
</g>
<mask id="mask6_1770_1188" style="mask-type:luminance" maskUnits="userSpaceOnUse" x="0" y="0" width="90" height="50">
<path d="M0 50H89.6552V0H0V50Z" fill="white"/>
</mask>
<g mask="url(#mask6_1770_1188)">
<path d="M35.6719 31.0627L45.6065 25.3609C46.6535 24.7602 46.6535 23.7864 45.6068 23.1857C45.0465 22.8644 44.2717 22.7151 43.4829 22.7414C42.2164 22.7839 40.9257 22.5284 39.9577 21.9732C38.0346 20.8696 38.166 19.0341 40.3509 18.0306C41.9603 17.2915 44.3155 17.2671 45.9642 17.9775C47.2803 18.5444 47.8962 19.402 47.8176 20.2432C47.7745 20.7001 48.0261 21.1502 48.5903 21.4738C49.6369 22.0742 51.3342 22.0742 52.3809 21.4738L53.3889 20.8967L62.3389 15.7615L72.4862 21.5577C73.5331 22.1582 73.5331 23.1322 72.4862 23.7327C71.922 24.0567 71.138 24.2009 70.3412 24.1762C68.8758 24.131 67.3808 24.4845 66.3928 25.2397C65.1552 26.1857 65.1973 27.5372 66.4855 28.4606C68.2345 29.7142 71.4333 29.7896 73.3563 28.686C74.3241 28.1308 74.7697 27.39 74.6956 26.6632C74.6497 26.2107 74.9096 25.7661 75.4682 25.4455C76.5166 24.8441 78.2139 24.8441 79.2605 25.4445L89.3623 31.2672L62.6973 46.5985L52.5707 40.7591C51.5241 40.1587 51.5241 39.1846 52.5707 38.5842C53.1308 38.2625 53.9058 38.1135 54.6944 38.1399C55.9612 38.1824 57.2518 37.9269 58.2199 37.3713C60.1429 36.2678 60.0116 34.4326 57.8267 33.4287C56.2173 32.6896 53.8621 32.6656 52.2137 33.3756C50.8976 33.9425 50.2814 34.8005 50.36 35.6413C50.403 36.0986 50.1515 36.5483 49.5873 36.8723C48.5403 37.4727 46.8434 37.4727 45.7964 36.8723L35.6719 31.0627Z" fill="#141414" fill-opacity="0.2"/>
</g>
<mask id="mask7_1770_1188" style="mask-type:luminance" maskUnits="userSpaceOnUse" x="0" y="0" width="90" height="50">
<path d="M0 50H89.6552V0H0V50Z" fill="white"/>
</mask>
<g mask="url(#mask7_1770_1188)">
<path fill-rule="evenodd" clip-rule="evenodd" d="M54.5182 38.3081C53.8024 38.3081 53.1318 38.4598 52.6569 38.7325C52.2061 38.9911 51.9579 39.3247 51.9579 39.6716C51.9579 40.0186 52.2061 40.3522 52.6569 40.6108L62.6976 46.4005L89.0183 31.2672L79.174 25.5928C78.177 25.0208 76.5531 25.0208 75.5543 25.5939C75.0705 25.8716 74.8265 26.2453 74.8671 26.646C74.9509 27.4691 74.4315 28.2668 73.4424 28.8343C71.4515 29.9769 68.1531 29.8673 66.3845 28.5994C65.7076 28.114 65.3292 27.4893 65.3189 26.8396C65.3092 26.2052 65.6535 25.5891 66.2876 25.1041C67.2515 24.3673 68.7696 23.9591 70.3467 24.005C71.1438 24.0313 71.8916 23.8765 72.4 23.5844C72.8507 23.3258 73.0992 22.9922 73.0992 22.6452C73.0992 22.2979 72.8507 21.9646 72.4003 21.706L62.3389 15.9588L52.467 21.6221C51.3745 22.2493 49.5966 22.2489 48.5041 21.6221C47.9075 21.2796 47.5949 20.7713 47.646 20.2271C47.7214 19.4212 47.067 18.6389 45.8956 18.1347C44.2927 17.4442 41.9913 17.4658 40.4232 18.1861C39.4124 18.6502 38.8138 19.3263 38.7814 20.0408C38.7507 20.7066 39.1991 21.3402 40.0438 21.8246C40.9446 22.3414 42.1974 22.6116 43.477 22.5705C44.3317 22.5411 45.1181 22.7075 45.6929 23.0374C46.2547 23.3597 46.5642 23.7988 46.5642 24.2731C46.5642 24.7479 46.2547 25.1866 45.6929 25.5093L36.0165 31.0627L45.8825 36.7236C46.8802 37.296 48.5034 37.2963 49.5011 36.7236C49.9829 36.4472 50.2272 36.0684 50.1886 35.6574C50.0983 34.6967 50.8296 33.7849 52.1451 33.2184C53.8296 32.493 56.2496 32.5159 57.8993 33.2732C59.0308 33.7931 59.7018 34.5768 59.7404 35.4238C59.7769 36.2236 59.2675 36.9679 58.306 37.5196C57.351 38.0676 56.0335 38.3588 54.6884 38.3108C54.6316 38.3091 54.5747 38.3081 54.5182 38.3081ZM62.6973 46.7697C62.6673 46.7697 62.6376 46.7622 62.6108 46.7468L52.4842 40.9074C51.9228 40.5851 51.6133 40.1463 51.6133 39.6716C51.6133 39.1969 51.9228 38.7581 52.4845 38.4358C53.0594 38.106 53.8448 37.9399 54.7002 37.9687C55.9822 38.0094 57.2328 37.7399 58.1337 37.2227C58.978 36.7384 59.4267 36.1047 59.3964 35.4392C59.3637 34.7248 58.7654 34.0487 57.7546 33.5842C56.1869 32.8643 53.8851 32.8423 52.2822 33.5328C51.1105 34.0374 50.4561 34.8196 50.5319 35.6256C50.5829 36.1698 50.27 36.6781 49.6734 37.0206C48.5806 37.6474 46.803 37.647 45.7102 37.0206L35.5857 31.211C35.5323 31.1802 35.4995 31.1236 35.4995 31.0627C35.4995 31.0014 35.5323 30.9449 35.5857 30.9144L45.5206 25.2126C45.9714 24.9537 46.2195 24.6204 46.2195 24.2731C46.2195 23.9262 45.9711 23.5926 45.5206 23.334C45.0085 23.0401 44.2713 22.8874 43.4887 22.9127C42.1474 22.9603 40.8268 22.6695 39.8715 22.1215C38.91 21.5694 38.4006 20.8251 38.4368 20.0254C38.4757 19.1787 39.1467 18.395 40.2785 17.8751C41.9279 17.1171 44.3479 17.0949 46.0324 17.8203C47.3475 18.3865 48.0788 19.2982 47.9892 20.2589C47.9503 20.67 48.1946 21.0488 48.6764 21.3252C49.6737 21.8978 51.2973 21.8978 52.2947 21.3252L62.2527 15.6128C62.3058 15.5823 62.3713 15.5823 62.4247 15.6128L72.5723 21.4091C73.1344 21.7314 73.4438 22.1705 73.4438 22.6452C73.4438 23.1196 73.1344 23.5587 72.5723 23.881C72.0016 24.2088 71.2082 24.3756 70.336 24.3471C68.8372 24.304 67.4008 24.6855 66.4978 25.3757C65.9519 25.7928 65.6556 26.3111 65.6635 26.8344C65.6721 27.3728 65.9995 27.9013 66.5861 28.3216C68.2582 29.5204 71.3816 29.6214 73.2701 28.5377C74.1365 28.0404 74.5939 27.3636 74.5242 26.6803C74.4698 26.1453 74.7824 25.6415 75.382 25.2972C76.4752 24.6698 78.2538 24.6691 79.3466 25.2962L89.4487 31.1192C89.5018 31.1497 89.5345 31.2062 89.5345 31.2675C89.5345 31.3285 89.5018 31.385 89.4484 31.4155L62.7838 46.7468C62.7569 46.7622 62.7273 46.7697 62.6973 46.7697Z" fill="#141414" fill-opacity="0.2"/>
</g>
<mask id="mask8_1770_1188" style="mask-type:luminance" maskUnits="userSpaceOnUse" x="0" y="0" width="90" height="50">
<path d="M0 50H89.6552V0H0V50Z" fill="white"/>
</mask>
<g mask="url(#mask8_1770_1188)">
<path fill-rule="evenodd" clip-rule="evenodd" d="M62.4297 49.7435H62.7743V46.6609H62.4297V49.7435Z" fill="#141414" fill-opacity="0.2"/>
</g>
</g>
<defs>
<clipPath id="clip0_1770_1188">
<rect width="89.6552" height="50" fill="white"/>
</clipPath>
</defs>
</svg>
