<svg width="53" height="50" viewBox="0 0 53 50" fill="none" xmlns="http://www.w3.org/2000/svg">
<g clip-path="url(#clip0_1770_1239)">
<mask id="mask0_1770_1239" style="mask-type:luminance" maskUnits="userSpaceOnUse" x="0" y="33" width="44" height="17">
<path d="M0 33.8151H43.6094V50H0V33.8151Z" fill="white"/>
</mask>
<g mask="url(#mask0_1770_1239)">
<path fill-rule="evenodd" clip-rule="evenodd" d="M25.7512 50C25.3331 50.0002 24.9323 49.913 24.6262 49.7359L0.510945 35.7851C0.179904 35.5937 -0.00165434 35.3164 1.13604e-05 35.0045V33.8151H0.419327V35.0057C0.418279 35.2049 0.582646 35.3414 0.720597 35.4213L24.8358 49.3721C25.3683 49.6803 26.3453 49.6357 26.969 49.2748L42.8015 40.0767C43.0395 39.9384 43.1877 39.6815 43.1883 39.4061L43.1902 38.6461L43.6095 38.6471L43.6076 39.4072C43.6066 39.8315 43.3783 40.2273 43.0118 40.4403L27.1791 49.6385C26.7652 49.8779 26.2462 50 25.7512 50Z" fill="#141414"/>
</g>
<path fill-rule="evenodd" clip-rule="evenodd" d="M34.4261 34.4672C34.2808 34.4672 34.1414 34.4367 34.0349 34.3752L22.707 27.8218C22.586 27.7521 22.5195 27.65 22.5195 27.5351C22.5195 27.4046 22.6082 27.2784 22.7629 27.1891L23.4097 26.8007L23.5175 26.9809L22.869 27.37C22.7822 27.4204 22.7292 27.4832 22.7292 27.5351C22.7292 27.5849 22.7808 27.622 22.8118 27.6399L34.1397 34.1933C34.3072 34.2901 34.6162 34.2754 34.8144 34.1609L35.4611 33.7725L35.5689 33.9527L34.9207 34.3418C34.777 34.425 34.5976 34.4672 34.4261 34.4672Z" fill="#141414" fill-opacity="0.5"/>
<path fill-rule="evenodd" clip-rule="evenodd" d="M14.9779 35.8049C14.8426 35.8049 14.6984 35.8377 14.5883 35.9013L10.8192 38.0818C10.7339 38.1312 10.6808 38.194 10.6808 38.2459C10.6808 38.2955 10.7326 38.3329 10.7632 38.3507L17.504 42.2503C17.6715 42.3473 17.9805 42.3322 18.1786 42.2179L21.9475 40.0374C22.0329 39.9882 22.0861 39.9252 22.0861 39.8733C22.0861 39.8235 22.0343 39.7864 22.0035 39.7685L15.263 35.869C15.1884 35.8259 15.0861 35.8049 14.9779 35.8049ZM17.791 42.5242C17.6455 42.5242 17.5059 42.494 17.3991 42.4322L10.6584 38.5327C10.5377 38.4627 10.4712 38.3608 10.4712 38.2459C10.4712 38.1155 10.5599 37.9892 10.7144 37.8999L14.4835 35.7194C14.747 35.5669 15.1355 35.5528 15.3678 35.687L22.1083 39.5866C22.2291 39.6563 22.2958 39.7582 22.2958 39.8733C22.2958 40.0038 22.2071 40.13 22.0524 40.2195L18.2835 42.3999C18.1409 42.4822 17.9621 42.5242 17.791 42.5242Z" fill="#141414" fill-opacity="0.5"/>
<path fill-rule="evenodd" clip-rule="evenodd" d="M17.2842 26.1692C17.1489 26.1692 17.0047 26.2022 16.8946 26.2658L9.43689 30.5803C9.35156 30.6294 9.29852 30.6924 9.29852 30.7441C9.29852 30.7941 9.35009 30.8313 9.38091 30.8492L30.4711 43.0499C30.6388 43.1471 30.9478 43.132 31.1457 43.0175L38.6035 38.7031C38.689 38.6537 38.742 38.5909 38.742 38.539C38.742 38.4892 38.6903 38.452 38.6594 38.4342L17.5693 26.2335C17.4949 26.1902 17.3923 26.1692 17.2842 26.1692ZM30.7579 43.324C30.6126 43.324 30.473 43.2936 30.3662 43.2318L9.27609 31.0311C9.15533 30.9611 9.08887 30.8592 9.08887 30.7441C9.08887 30.6137 9.17755 30.4876 9.33206 30.3981L16.7898 26.0837C17.0535 25.9314 17.4418 25.9171 17.6741 26.0513L38.7643 38.2523C38.885 38.322 38.9517 38.4239 38.9517 38.539C38.9517 38.6695 38.863 38.7955 38.7083 38.885L31.2506 43.1994C31.1082 43.2818 30.9289 43.324 30.7579 43.324Z" fill="#141414"/>
<path fill-rule="evenodd" clip-rule="evenodd" d="M26.1906 32.9352C26.1726 32.9352 26.1544 32.9306 26.1382 32.9212L16.5055 27.3486C16.473 27.3299 16.4531 27.2952 16.4531 27.2576C16.4531 27.22 16.473 27.1854 16.5055 27.1667L17.2831 26.7169L17.388 26.8988L16.7676 27.2576L26.1906 32.709L26.9156 32.2895L27.0204 32.4714L26.243 32.9212C26.2269 32.9306 26.2087 32.9352 26.1906 32.9352Z" fill="#141414"/>
<path fill-rule="evenodd" clip-rule="evenodd" d="M13.7442 29.0069L15.0895 29.7852L15.6574 29.4567L14.3119 28.6783L13.7442 29.0069ZM15.0895 30.0115C15.0715 30.0115 15.0534 30.0068 15.0371 29.9974L13.4821 29.0979C13.4496 29.0792 13.4297 29.0445 13.4297 29.0069C13.4297 28.9693 13.4496 28.9346 13.4821 28.9159L14.2595 28.4662C14.292 28.4475 14.332 28.4475 14.3643 28.4662L15.9195 29.3657C15.952 29.3844 15.9719 29.4191 15.9719 29.4567C15.9719 29.4943 15.952 29.5289 15.9195 29.5476L15.1419 29.9974C15.1258 30.0068 15.1077 30.0115 15.0895 30.0115Z" fill="#141414"/>
<path fill-rule="evenodd" clip-rule="evenodd" d="M16.4658 30.5811L33.8798 40.6553L34.4477 40.3267L17.0336 30.2526L16.4658 30.5811ZM33.8798 40.8815C33.8617 40.8815 33.8437 40.8769 33.8273 40.8675L16.2038 30.6721C16.1713 30.6534 16.1514 30.6187 16.1514 30.5811C16.1514 30.5435 16.1713 30.5088 16.2038 30.4902L16.9812 30.0404C17.0137 30.0217 17.0537 30.0217 17.086 30.0404L34.7098 40.2358C34.7423 40.2545 34.7622 40.2891 34.7622 40.3267C34.7622 40.3643 34.7423 40.399 34.7098 40.4177L33.9322 40.8675C33.916 40.8769 33.898 40.8815 33.8798 40.8815Z" fill="#141414"/>
<path fill-rule="evenodd" clip-rule="evenodd" d="M29.6792 40.2006C29.6611 40.2006 29.6429 40.196 29.6268 40.1866L11.9707 29.9725L12.0755 29.7903L29.6792 39.9744L30.2471 39.6458L12.7481 29.5225L12.8529 29.3406L30.5092 39.5549C30.5415 39.5736 30.5616 39.6082 30.5616 39.6458C30.5616 39.6834 30.5415 39.7181 30.5092 39.7368L29.7316 40.1866C29.7154 40.196 29.6972 40.2006 29.6792 40.2006Z" fill="#141414"/>
<path fill-rule="evenodd" clip-rule="evenodd" d="M31.0874 40.789L32.368 41.5299L32.9357 41.2014L31.6552 40.4604L31.0874 40.789ZM32.368 41.7562C32.3497 41.7562 32.3317 41.7515 32.3156 41.7421L30.8254 40.88C30.7929 40.8613 30.7729 40.8266 30.7729 40.789C30.7729 40.7514 30.7929 40.7167 30.8254 40.698L31.6028 40.2483C31.6352 40.2296 31.6753 40.2296 31.7076 40.2483L33.1978 41.1104C33.2303 41.1291 33.2502 41.1638 33.2502 41.2014C33.2502 41.239 33.2303 41.2736 33.1978 41.2923L32.4204 41.7421C32.4043 41.7515 32.386 41.7562 32.368 41.7562Z" fill="#141414"/>
<path fill-rule="evenodd" clip-rule="evenodd" d="M10.7207 30.756L11.9365 31.4594L12.5044 31.1308L11.2887 30.4275L10.7207 30.756ZM11.9365 31.6856C11.9185 31.6856 11.9004 31.681 11.8841 31.6715L10.4587 30.847C10.4262 30.8283 10.4062 30.7936 10.4062 30.756C10.4062 30.7184 10.4262 30.6838 10.4587 30.6651L11.2363 30.2153C11.2685 30.1966 11.3086 30.1966 11.3411 30.2153L12.7665 31.0398C12.799 31.0585 12.8189 31.0932 12.8189 31.1308C12.8189 31.1684 12.799 31.2031 12.7665 31.2218L11.9889 31.6715C11.9728 31.681 11.9547 31.6856 11.9365 31.6856Z" fill="#141414"/>
<path fill-rule="evenodd" clip-rule="evenodd" d="M14.0669 32.8736L13.962 32.6917L14.5822 32.3329L13.3664 31.6296L12.6414 32.0491L12.5366 31.8672L13.314 31.4172C13.3463 31.3987 13.3866 31.3987 13.4188 31.4172L14.8443 32.2419C14.8768 32.2606 14.8967 32.2953 14.8967 32.3329C14.8967 32.3703 14.8768 32.4051 14.8443 32.4238L14.0669 32.8736Z" fill="#141414"/>
<path fill-rule="evenodd" clip-rule="evenodd" d="M15.0806 33.2784L26.172 39.6948L26.7398 39.3662L15.6483 32.9498L15.0806 33.2784ZM26.172 39.921C26.1538 39.921 26.1358 39.9164 26.1196 39.907L14.8185 33.3693C14.786 33.3506 14.7661 33.316 14.7661 33.2784C14.7661 33.2408 14.786 33.2061 14.8185 33.1874L15.5959 32.7377C15.6284 32.719 15.6685 32.719 15.7007 32.7377L27.0018 39.2753C27.0343 39.294 27.0542 39.3286 27.0542 39.3662C27.0542 39.4038 27.0343 39.4385 27.0018 39.4572L26.2244 39.907C26.2083 39.9164 26.1901 39.921 26.172 39.921Z" fill="#141414"/>
<path fill-rule="evenodd" clip-rule="evenodd" d="M27.4805 33.4549L31.5471 35.8075L32.1151 35.4791L28.0482 33.1263L27.4805 33.4549ZM31.5471 36.0337C31.5291 36.0337 31.5111 36.0291 31.4947 36.0199L27.2184 33.5459C27.1859 33.5272 27.166 33.4925 27.166 33.4549C27.166 33.4173 27.1859 33.3826 27.2184 33.3639L27.9958 32.9142C28.0283 32.8955 28.0684 32.8955 28.1006 32.9142L32.3771 35.3882C32.4096 35.4069 32.4295 35.4415 32.4295 35.4791C32.4295 35.5167 32.4096 35.5514 32.3771 35.5701L31.5995 36.0199C31.5834 36.0291 31.5654 36.0337 31.5471 36.0337Z" fill="#141414"/>
<path fill-rule="evenodd" clip-rule="evenodd" d="M32.8365 36.5535L36.9031 38.9061L37.471 38.5776L33.4042 36.225L32.8365 36.5535ZM36.9031 39.1324C36.885 39.1324 36.8668 39.1277 36.8507 39.1185L32.5744 36.6445C32.5419 36.6258 32.522 36.5911 32.522 36.5535C32.522 36.5159 32.5419 36.4813 32.5744 36.4626L33.3518 36.0128C33.3843 35.9941 33.4243 35.9941 33.4566 36.0128L37.7331 38.4866C37.7656 38.5055 37.7855 38.5402 37.7855 38.5776C37.7855 38.6152 37.7656 38.6498 37.7331 38.6685L36.9555 39.1185C36.9393 39.1277 36.9211 39.1324 36.9031 39.1324Z" fill="#141414"/>
<path fill-rule="evenodd" clip-rule="evenodd" d="M31.5813 42.167L27.9621 40.0732L27.2371 40.4927L27.1323 40.3108L27.9097 39.8608C27.9422 39.8423 27.9823 39.8423 28.0145 39.8608L31.6862 41.985L31.5813 42.167Z" fill="#141414"/>
<path fill-rule="evenodd" clip-rule="evenodd" d="M35.3392 39.993L28.3874 35.9711C28.3551 35.9524 28.335 35.9178 28.335 35.8802C28.335 35.8428 28.3551 35.8081 28.3874 35.7892L29.1648 35.3395C29.1973 35.3208 29.2373 35.3208 29.2696 35.3395L36.2217 39.3611L36.1168 39.543L29.2172 35.5516L28.6494 35.8802L35.4441 39.811L35.3392 39.993Z" fill="#141414"/>
<path fill-rule="evenodd" clip-rule="evenodd" d="M15.2779 28.1447L27.3547 35.1313L27.9226 34.8027L15.8456 27.8162L15.2779 28.1447ZM27.3547 35.3575C27.3366 35.3575 27.3184 35.3529 27.3022 35.3434L15.0158 28.2357C14.9833 28.217 14.9634 28.1823 14.9634 28.1447C14.9634 28.1071 14.9833 28.0724 15.0158 28.0537L15.7932 27.604C15.8257 27.5853 15.8657 27.5853 15.898 27.604L28.1847 34.7117C28.217 34.7304 28.2371 34.7651 28.2371 34.8027C28.2371 34.8403 28.217 34.875 28.1847 34.8937L27.4071 35.3434C27.3909 35.3529 27.3727 35.3575 27.3547 35.3575Z" fill="#141414"/>
<path fill-rule="evenodd" clip-rule="evenodd" d="M17.468 23.8083C17.3202 23.8083 17.1724 23.8465 17.0403 23.923L0.983717 33.2178C0.690834 33.3873 0.515984 33.6054 0.515984 33.8014C0.515984 33.9932 0.678883 34.1278 0.815786 34.207L24.8864 48.1318C25.4178 48.4394 26.3929 48.3948 27.0154 48.0348L43.1808 38.6456C43.1946 38.6376 43.2016 38.6252 43.2016 38.6093C43.2016 38.5931 43.1944 38.5809 43.1806 38.5729L18.4452 24.2505L17.9054 23.9287C17.7708 23.8484 17.6194 23.8083 17.468 23.8083ZM25.7996 48.7593C25.3822 48.7593 24.9822 48.6723 24.6767 48.4959L0.606134 34.5709C0.2774 34.3808 0.0966797 34.1075 0.0966797 33.8014C0.0966797 33.4485 0.34344 33.1031 0.774065 32.854L16.8305 23.5594C17.2297 23.3281 17.7236 23.3314 18.1198 23.5678L18.6574 23.8881L43.3904 38.2091C43.5347 38.2927 43.6209 38.4423 43.6209 38.6091C43.6209 38.7757 43.5351 38.9254 43.3911 39.009L27.2252 48.3984C26.812 48.6372 26.2937 48.7593 25.7996 48.7593Z" fill="#141414"/>
<mask id="mask1_1770_1239" style="mask-type:luminance" maskUnits="userSpaceOnUse" x="43" y="14" width="10" height="25">
<path d="M43.4604 14.2679H52.3255V38.8467H43.4604V14.2679Z" fill="white"/>
</mask>
<g mask="url(#mask1_1770_1239)">
<path fill-rule="evenodd" clip-rule="evenodd" d="M44.2116 38.8467C43.9512 38.8467 43.6927 38.778 43.4604 38.6427L43.6709 38.2795C43.9556 38.445 44.2947 38.4721 44.6018 38.353C44.9089 38.2341 45.1419 37.9854 45.2408 37.6707L51.788 16.8896C51.978 16.2867 52.1574 15.7174 50.619 14.9801L49.9815 14.6385L50.1794 14.2679L50.8083 14.6053C52.5241 15.4273 52.4405 16.2149 52.1881 17.0161L45.6408 37.7974C45.5031 38.2343 45.1796 38.5797 44.7532 38.7448C44.5775 38.8129 44.3942 38.8467 44.2116 38.8467Z" fill="#141414"/>
</g>
<path fill-rule="evenodd" clip-rule="evenodd" d="M43.245 38.4038C43.0127 38.4038 42.7758 38.3391 42.5582 38.2124L42.7689 37.849C43.019 37.9948 43.2886 38.024 43.528 37.9318C43.7672 37.8396 43.9479 37.6354 44.0366 37.357L50.6484 16.3709C50.8595 15.7006 50.583 14.9868 49.9756 14.6351L25.6329 0.533669C25.412 0.405736 25.1486 0.385149 24.9105 0.47695C24.6723 0.568961 24.491 0.761386 24.413 1.00465L17.7226 21.8565C17.4905 22.5792 17.7976 23.3808 18.4528 23.7623L18.2421 24.1255C17.4179 23.6455 17.0315 22.6371 17.3232 21.7277L24.0138 0.876085C24.1308 0.511191 24.4027 0.222764 24.7597 0.0849571C25.1164 -0.0528496 25.5116 -0.0219691 25.8428 0.170036L50.1855 14.2713C50.9642 14.7225 51.3189 15.638 51.0482 16.4974L44.4362 37.4843C44.3079 37.887 44.0389 38.1849 43.6785 38.324C43.5402 38.3774 43.3934 38.4038 43.245 38.4038Z" fill="#141414"/>
<path fill-rule="evenodd" clip-rule="evenodd" d="M25.7131 2.09163C25.6586 2.09163 25.6039 2.10151 25.5514 2.12167C25.4238 2.17062 25.3259 2.27334 25.2833 2.40359L18.9942 21.6289C18.8946 21.9333 19.0229 22.2713 19.2994 22.4322L42.5947 36.0013C42.6819 36.0522 42.7861 36.0606 42.8802 36.0242C42.9744 35.9879 43.0463 35.912 43.0771 35.8158L49.3476 16.2929C49.4386 16.0095 49.318 15.6958 49.0608 15.5467L25.9389 2.15255C25.8691 2.11222 25.7913 2.09163 25.7131 2.09163ZM42.7609 36.2568C42.6668 36.2568 42.5733 36.232 42.4894 36.183L19.194 22.6137C18.8325 22.4032 18.6646 21.9614 18.7948 21.5633L25.0841 2.33805C25.1464 2.14751 25.2896 1.9971 25.4766 1.92547C25.6638 1.85383 25.8705 1.87022 26.0437 1.97063L49.1658 15.365C49.5077 15.5631 49.6681 15.9803 49.5472 16.3571L43.2767 35.8803C43.2262 36.0372 43.1092 36.1612 42.9555 36.2202C42.8924 36.2446 42.8264 36.2568 42.7609 36.2568Z" fill="#141414"/>
<path fill-rule="evenodd" clip-rule="evenodd" d="M23.7129 12.727C23.5599 12.5753 23.4008 12.4509 23.2397 12.357L23.345 12.1755C23.5213 12.2783 23.6947 12.4135 23.8603 12.5776L23.7129 12.727ZM24.4387 13.7164C24.3322 13.5271 24.2209 13.3513 24.1077 13.1944L24.2777 13.0715C24.3953 13.2347 24.5111 13.4173 24.6214 13.6135L24.4387 13.7164ZM24.9631 14.8466C24.8853 14.6453 24.8038 14.4519 24.7205 14.2714L24.9109 14.1834C24.9958 14.3678 25.0792 14.5653 25.1585 14.7708L24.9631 14.8466ZM25.3574 16.035C25.3038 15.8457 25.2426 15.644 25.1738 15.4358L25.3727 15.3697C25.4426 15.581 25.5046 15.7856 25.5591 15.9776L25.3574 16.035ZM25.6512 17.2548C25.6306 17.1488 25.586 16.9282 25.5168 16.6419L25.7206 16.5923C25.7908 16.883 25.8361 17.1072 25.8568 17.2149L25.6512 17.2548ZM26.3839 18.3407C26.2288 18.1924 26.0864 18.0269 25.9606 17.8487L26.1319 17.7273C26.2497 17.8945 26.3833 18.0495 26.5288 18.1886L26.3839 18.3407ZM27.4871 19.0178C27.2852 18.9508 27.0869 18.8571 26.8971 18.7396L27.0076 18.5609C27.1833 18.6699 27.3667 18.7564 27.5529 18.8184L27.4871 19.0178ZM28.2322 19.1421C28.1984 19.1421 28.1649 19.1413 28.1316 19.1398L28.141 18.93C28.3263 18.9379 28.51 18.9209 28.6848 18.8774L28.736 18.8655L28.7821 19.0703L28.7349 19.0814C28.5729 19.1215 28.4035 19.1421 28.2322 19.1421ZM29.9578 19.1724C29.7647 19.0993 29.5685 19.0533 29.3746 19.0352L29.3939 18.826C29.6065 18.8457 29.8211 18.8961 30.0318 18.9757L29.9578 19.1724ZM30.9606 19.8385C30.8166 19.6919 30.6595 19.5614 30.4939 19.4503L30.6103 19.2757C30.7878 19.3946 30.956 19.5343 31.1101 19.691L30.9606 19.8385ZM31.6315 20.8487C31.5524 20.6611 31.4556 20.4805 31.3436 20.3116L31.5183 20.1954C31.6374 20.375 31.7405 20.5675 31.8246 20.767L31.6315 20.8487ZM32.0967 22.0176L31.864 21.4319L32.0588 21.3542L32.2913 21.9396L32.0967 22.0176ZM32.5617 23.1885L32.3292 22.603L32.524 22.5253L32.7565 23.1108L32.5617 23.1885ZM33.0494 24.3622C32.9919 24.2532 32.9395 24.1395 32.8936 24.024L32.7944 23.774L32.9892 23.6963L33.0884 23.9462C33.1315 24.0548 33.1808 24.1616 33.2347 24.2639L33.0494 24.3622ZM33.8553 25.3716C33.6917 25.2329 33.5397 25.076 33.4039 24.9052L33.5678 24.7741C33.6953 24.9342 33.8374 25.0813 33.9907 25.2111L33.8553 25.3716ZM35.0025 25.9732C34.7958 25.9222 34.5907 25.843 34.393 25.7377L34.4914 25.5522C34.6737 25.6493 34.8626 25.7224 35.0526 25.7692L35.0025 25.9732ZM36.2797 26.0425L35.6507 26.0423V25.8323L36.2797 25.8325V26.0425ZM37.5376 26.043L36.9086 26.0428V25.8327L37.5376 25.8329V26.043ZM38.7785 26.089C38.5741 26.0602 38.3678 26.0446 38.1657 26.0432L38.1674 25.8331C38.3787 25.8346 38.594 25.8507 38.8079 25.881L38.7785 26.089ZM39.9668 26.4072C39.7742 26.331 39.5773 26.2654 39.3815 26.2127L39.436 26.0098C39.6394 26.0646 39.844 26.1327 40.044 26.2119L39.9668 26.4072ZM41.0597 26.9813C40.8868 26.8669 40.7077 26.7608 40.5279 26.6658L40.6251 26.4799C40.8115 26.578 40.9966 26.6879 41.1753 26.8062L41.0597 26.9813ZM42.0221 27.7595C41.873 27.6145 41.717 27.4759 41.5587 27.3477L41.6904 27.1845C41.8537 27.3166 42.0143 27.4593 42.168 27.6086L42.0221 27.7595ZM42.8766 28.6817C42.7546 28.559 42.6344 28.4294 42.5196 28.296L42.4491 28.2138L42.6089 28.0781L42.6783 28.1586C42.79 28.2882 42.9066 28.4142 43.025 28.5334L42.8766 28.6817ZM43.8559 29.5009C43.6823 29.3814 43.5112 29.2514 43.347 29.1138L43.4816 28.9527C43.6406 29.0858 43.8064 29.2121 43.9745 29.3276L43.8559 29.5009Z" fill="#141414" fill-opacity="0.5"/>
<path fill-rule="evenodd" clip-rule="evenodd" d="M44.0646 29.4481L43.8651 29.3836L45.0691 25.6355C44.519 25.265 44.0462 24.753 43.6986 24.1506L43.6443 24.0567C42.9491 22.8513 41.7379 22.0641 40.559 22.0511L40.1156 22.0463C38.8424 22.0322 37.5493 21.1833 36.8216 19.8838L35.5524 17.6182C34.6458 15.9998 32.9019 15.1879 31.4958 15.729C30.6433 16.0571 29.6798 15.9443 28.7821 15.4118C27.6405 14.7345 26.818 13.4773 26.6358 12.1311L26.6249 12.0505C26.4482 10.7447 25.6597 9.55355 24.5553 8.91221L20.1603 21.5887C20.1415 21.6436 20.0817 21.6728 20.027 21.6536C19.9723 21.6345 19.9433 21.5747 19.9624 21.5198L24.3982 8.72503C24.4083 8.69583 24.4307 8.67272 24.4592 8.66159C24.488 8.65046 24.5198 8.65235 24.5469 8.66684C25.7656 9.32331 26.6415 10.6089 26.8327 12.0221L26.8436 12.1028C27.0174 13.3869 27.8011 14.5856 28.889 15.2311C29.7303 15.7303 30.6295 15.8376 31.4207 15.533C32.9233 14.9547 34.7781 15.8067 35.7352 17.5155L37.0044 19.7809C37.6963 21.0163 38.9183 21.823 40.1177 21.8362L40.5614 21.841C41.8128 21.8549 43.0944 22.6832 43.8258 23.9516L43.8801 24.0455C44.2252 24.6438 44.6988 25.1478 45.2498 25.5034C45.2899 25.529 45.3075 25.5786 45.293 25.6238L44.0646 29.4481Z" fill="#141414" fill-opacity="0.5"/>
<path fill-rule="evenodd" clip-rule="evenodd" d="M42.3253 34.572C42.307 34.572 42.2888 34.5672 42.2727 34.5577L20.0082 21.5926C19.9649 21.5673 19.9454 21.5148 19.9619 21.4674L23.1931 12.1473L23.391 12.2162L20.1883 21.4545L42.2653 34.3107L43.8646 29.3312L44.0641 29.3956L42.4251 34.4991C42.4154 34.5294 42.3924 34.5537 42.3628 34.5651C42.3507 34.5697 42.3381 34.572 42.3253 34.572Z" fill="#141414" fill-opacity="0.5"/>
<path fill-rule="evenodd" clip-rule="evenodd" d="M43.4111 20.2757C43.0637 20.2757 42.7822 19.9936 42.7822 19.6455C42.7822 19.2974 43.0637 19.0153 43.4111 19.0153C43.7585 19.0153 44.0401 19.2974 44.0401 19.6455C44.0401 19.9936 43.7585 20.2757 43.4111 20.2757ZM43.4111 18.5994C42.8346 18.5994 42.3671 19.0678 42.3671 19.6455C42.3671 19.9892 42.5333 20.2932 42.7885 20.4839L42.3574 21.6962L42.8061 21.8565L43.2266 20.6742C43.2866 20.6852 43.348 20.6917 43.4111 20.6917C43.9877 20.6917 44.4552 20.2232 44.4552 19.6455C44.4552 19.0678 43.9877 18.5994 43.4111 18.5994Z" fill="#141414" fill-opacity="0.5"/>
<path fill-rule="evenodd" clip-rule="evenodd" d="M43.4112 19.1203C43.1223 19.1203 42.887 19.356 42.887 19.6455C42.887 19.9349 43.1223 20.1706 43.4112 20.1706C43.7001 20.1706 43.9353 19.9349 43.9353 19.6455C43.9353 19.356 43.7001 19.1203 43.4112 19.1203ZM43.4112 20.3807C43.0065 20.3807 42.6774 20.0509 42.6774 19.6455C42.6774 19.24 43.0065 18.9102 43.4112 18.9102C43.8158 18.9102 44.1449 19.24 44.1449 19.6455C44.1449 20.0509 43.8158 20.3807 43.4112 20.3807ZM42.4912 21.6323L42.7426 21.7222L43.1277 20.6389C43.1451 20.5906 43.1948 20.5616 43.2451 20.5708C43.304 20.5815 43.3583 20.5866 43.4112 20.5866C43.929 20.5866 44.3504 20.1643 44.3504 19.6455C44.3504 19.1266 43.929 18.7043 43.4112 18.7043C42.8933 18.7043 42.4721 19.1266 42.4721 19.6455C42.4721 19.9448 42.6103 20.2196 42.8512 20.3996C42.8881 20.4271 42.9028 20.4757 42.8872 20.5191L42.4912 21.6323ZM42.8061 21.9615C42.7944 21.9615 42.7824 21.9594 42.7709 21.9554L42.3222 21.7951C42.2675 21.7756 42.2392 21.7155 42.2585 21.6609L42.6646 20.5191C42.408 20.2998 42.2625 19.9856 42.2625 19.6455C42.2625 19.0108 42.7778 18.4943 43.4112 18.4943C44.0445 18.4943 44.5601 19.0108 44.5601 19.6455C44.5601 20.2801 44.0445 20.7966 43.4112 20.7966C43.3736 20.7966 43.3357 20.7945 43.2967 20.7903L42.9048 21.8917C42.8954 21.918 42.8761 21.9394 42.8512 21.9514C42.8369 21.9581 42.8214 21.9615 42.8061 21.9615Z" fill="#141414" fill-opacity="0.5"/>
<path fill-rule="evenodd" clip-rule="evenodd" d="M35.3709 13.2015C34.9051 13.2015 34.5275 12.8231 34.5275 12.3564C34.5275 11.8894 34.9051 11.511 35.3709 11.511C35.8368 11.511 36.2143 11.8894 36.2143 12.3564C36.2143 12.8231 35.8368 13.2015 35.3709 13.2015ZM35.3709 10.7209C34.4696 10.7209 33.7388 11.453 33.7388 12.3564C33.7388 12.9433 34.0484 13.4565 34.512 13.7449L34.0319 15.0955L34.4807 15.256L34.9503 13.9348C35.0847 13.9705 35.2252 13.9915 35.3709 13.9915C36.2722 13.9915 37.0031 13.2594 37.0031 12.3564C37.0031 11.453 36.2722 10.7209 35.3709 10.7209Z" fill="#141414" fill-opacity="0.5"/>
<path fill-rule="evenodd" clip-rule="evenodd" d="M35.3708 11.6161C34.9634 11.6161 34.6322 11.9482 34.6322 12.3562C34.6322 12.7643 34.9634 13.0965 35.3708 13.0965C35.7781 13.0965 36.1094 12.7643 36.1094 12.3562C36.1094 11.9482 35.7781 11.6161 35.3708 11.6161ZM35.3708 13.3065C34.8479 13.3065 34.4225 12.8803 34.4225 12.3562C34.4225 11.8322 34.8479 11.406 35.3708 11.406C35.8936 11.406 36.319 11.8322 36.319 12.3562C36.319 12.8803 35.8936 13.3065 35.3708 13.3065ZM34.1657 15.0318L34.417 15.1215L34.8512 13.8996C34.8697 13.8481 34.924 13.8193 34.977 13.8332C35.9802 14.1006 36.8981 13.3288 36.8981 12.3562C36.8981 11.5123 36.2129 10.8258 35.3708 10.8258C34.5286 10.8258 33.8434 11.5123 33.8434 12.3562C33.8434 12.8879 34.1141 13.3737 34.5672 13.6557C34.6091 13.6817 34.6271 13.7336 34.6106 13.7802L34.1657 15.0318ZM34.4806 15.3608C34.4686 15.3608 34.4569 15.3587 34.4454 15.3547L33.9965 15.1944C33.9422 15.1749 33.9137 15.1148 33.933 15.0602L34.3854 13.7874C33.9133 13.4616 33.6338 12.9328 33.6338 12.3562C33.6338 11.3966 34.4131 10.6157 35.3708 10.6157C36.3284 10.6157 37.1077 11.3966 37.1077 12.3562C37.1077 13.4321 36.1184 14.2911 35.0173 14.0588L34.5793 15.2911C34.5701 15.3173 34.5506 15.3388 34.5254 15.3507C34.5112 15.3574 34.4959 15.3608 34.4806 15.3608Z" fill="#141414" fill-opacity="0.5"/>
</g>
<defs>
<clipPath id="clip0_1770_1239">
<rect width="52.3256" height="50" fill="white"/>
</clipPath>
</defs>
</svg>
