<svg width="38" height="50" viewBox="0 0 38 50" fill="none" xmlns="http://www.w3.org/2000/svg">
<g clip-path="url(#clip0_1770_361)">
<mask id="mask0_1770_361" style="mask-type:luminance" maskUnits="userSpaceOnUse" x="0" y="0" width="37" height="50">
<path d="M0 0H36.8887V49.7508H0V0Z" fill="white"/>
</mask>
<g mask="url(#mask0_1770_361)">
<path fill-rule="evenodd" clip-rule="evenodd" d="M2.42599 49.7508C2.37309 49.7213 1.12499 49.0248 0.708962 48.7543C0.25176 48.4575 0 47.8862 0 47.1456V22.3713C0 20.861 1.06632 19.0154 2.3772 18.2568L33.3401 0.341359C34.0137 -0.0485562 34.6578 -0.106321 35.1535 0.177759C35.5654 0.413978 36.8887 1.19174 36.8887 1.19174L36.6803 1.54783C36.6803 1.54783 35.36 0.771503 34.9489 0.535903C34.586 0.327536 34.0876 0.385301 33.546 0.698677L2.58306 18.6141C1.3856 19.3069 0.411708 20.9924 0.411708 22.3713V47.1456C0.411708 47.7414 0.596771 48.1899 0.932931 48.4082C1.33743 48.671 2.61332 49.3829 2.62629 49.3902L2.42599 49.7508Z" fill="#141414"/>
</g>
<path fill-rule="evenodd" clip-rule="evenodd" d="M36.2062 1.30502C35.9295 1.30502 35.6166 1.40137 35.2877 1.59158L4.23662 19.5584C3.03567 20.2532 2.05868 21.9437 2.05868 23.3265V48.1715C2.05868 48.7942 2.25815 49.2524 2.62025 49.4618C2.98482 49.673 3.48587 49.6159 4.03076 49.3004L35.0818 31.3338C36.2828 30.639 37.2598 28.9485 37.2598 27.5655V2.72068C37.2598 2.09806 37.0603 1.63965 36.6984 1.43025C36.5537 1.34649 36.3878 1.30502 36.2062 1.30502ZM3.1108 50C2.85822 50 2.62293 49.94 2.4144 49.8193C1.91932 49.5329 1.64697 48.9477 1.64697 48.1715V23.3265C1.64697 21.8123 2.71639 19.9615 4.03076 19.2009L35.0818 1.23447C35.7591 0.84249 36.4063 0.784725 36.9042 1.07273C37.3991 1.35908 37.6715 1.94436 37.6715 2.72068V27.5655C37.6715 29.08 36.6023 30.9307 35.2877 31.6911L4.23662 49.6578C3.84344 49.8853 3.46034 50 3.1108 50Z" fill="#141414"/>
<path fill-rule="evenodd" clip-rule="evenodd" d="M2.69863 25.6685L2.5957 25.4898L36.314 5.97986L36.4169 6.15872L2.69863 25.6685Z" fill="#141414"/>
<path fill-rule="evenodd" clip-rule="evenodd" d="M6.29289 20.2204C6.21034 20.2204 6.11565 20.246 6.01684 20.297C5.65659 20.482 5.35234 20.9473 5.35234 21.3126C5.35234 21.4591 5.40133 21.5697 5.49026 21.6241C5.59463 21.6883 5.75293 21.6753 5.92276 21.5878C6.28301 21.4028 6.58746 20.9376 6.58746 20.5722C6.58746 20.4257 6.53826 20.3151 6.44954 20.2607C6.40569 20.2336 6.35238 20.2204 6.29289 20.2204ZM5.64609 21.8703C5.54893 21.8703 5.45918 21.8469 5.3828 21.8001C5.23047 21.7069 5.14648 21.5338 5.14648 21.3126C5.14648 20.8639 5.48758 20.337 5.92276 20.1134C6.15846 19.9925 6.38943 19.982 6.55679 20.0847C6.70912 20.1779 6.79332 20.351 6.79332 20.5722C6.79332 21.0209 6.45201 21.5478 6.01684 21.7714C5.88879 21.8372 5.76219 21.8703 5.64609 21.8703Z" fill="#141414"/>
<path fill-rule="evenodd" clip-rule="evenodd" d="M8.7631 18.7764C8.68055 18.7764 8.58586 18.8019 8.48705 18.8529C8.12681 19.0379 7.82255 19.5032 7.82255 19.8685C7.82255 20.015 7.87155 20.1256 7.96048 20.18C8.06484 20.2442 8.22315 20.2312 8.39298 20.1437C8.75322 19.9587 9.05768 19.4935 9.05768 19.1281C9.05768 18.9816 9.00848 18.871 8.91976 18.8166C8.87591 18.7896 8.82259 18.7764 8.7631 18.7764ZM8.11631 20.4262C8.01914 20.4262 7.92939 20.4029 7.85302 20.356C7.70069 20.2628 7.6167 20.0897 7.6167 19.8685C7.6167 19.4198 7.9578 18.8929 8.39298 18.6693C8.62868 18.5484 8.85965 18.5379 9.02701 18.6406C9.17934 18.7339 9.26353 18.9069 9.26353 19.1281C9.26353 19.5768 8.92223 20.1037 8.48705 20.3273C8.35901 20.3932 8.23241 20.4262 8.11631 20.4262Z" fill="#141414"/>
<path fill-rule="evenodd" clip-rule="evenodd" d="M11.2333 17.3321C11.1508 17.3321 11.0561 17.3579 10.9573 17.4087C10.597 17.5939 10.2928 18.0589 10.2928 18.4245C10.2928 18.5708 10.3418 18.6814 10.4307 18.736C10.5351 18.8002 10.6934 18.787 10.8632 18.6997C11.2234 18.5145 11.5279 18.0493 11.5279 17.6839C11.5279 17.5374 11.4789 17.4268 11.39 17.3724C11.3461 17.3455 11.2928 17.3321 11.2333 17.3321ZM10.5865 18.982C10.4894 18.982 10.3996 18.9588 10.3232 18.912C10.1709 18.8186 10.0869 18.6455 10.0869 18.4245C10.0869 17.9758 10.428 17.4489 10.8632 17.2251C11.0989 17.1042 11.3299 17.0936 11.4972 17.1964C11.6496 17.2896 11.7337 17.4627 11.7337 17.6839C11.7337 18.1326 11.3924 18.6595 10.9573 18.8831C10.8292 18.9489 10.7026 18.982 10.5865 18.982Z" fill="#141414"/>
<path fill-rule="evenodd" clip-rule="evenodd" d="M5.35234 43.2784V44.4205L34.1719 27.7449V26.6031L5.35234 43.2784ZM5.24941 44.7023C5.23171 44.7023 5.2138 44.6976 5.19795 44.6885C5.16625 44.6701 5.14648 44.6361 5.14648 44.5992V43.2188C5.14648 43.1821 5.16625 43.148 5.19795 43.1295L34.2234 26.3351C34.2551 26.3167 34.2946 26.3167 34.3263 26.3351C34.358 26.3534 34.3778 26.3875 34.3778 26.4244V27.8046C34.3778 27.8415 34.358 27.8755 34.3263 27.8939L5.30088 44.6885C5.28502 44.6976 5.26711 44.7023 5.24941 44.7023Z" fill="#141414"/>
<path fill-rule="evenodd" clip-rule="evenodd" d="M12.66 41.5319L11.0132 42.4849V38.9436L12.66 37.9907V41.5319Z" fill="#141414"/>
<path fill-rule="evenodd" clip-rule="evenodd" d="M11.116 39.0033V42.3062L12.557 41.4725V38.1696L11.116 39.0033ZM11.0131 42.588C10.9954 42.588 10.9775 42.5835 10.9616 42.5742C10.9299 42.5558 10.9102 42.5218 10.9102 42.4848V38.9438C10.9102 38.9069 10.9299 38.8729 10.9616 38.8543L12.6085 37.9016C12.6402 37.8832 12.6797 37.8832 12.7114 37.9016C12.7431 37.9199 12.7628 37.954 12.7628 37.9909V41.5319C12.7628 41.5688 12.7431 41.6029 12.7114 41.6212L11.0645 42.5742C11.0487 42.5835 11.0308 42.588 11.0131 42.588Z" fill="#141414"/>
<path fill-rule="evenodd" clip-rule="evenodd" d="M19.116 25.0033V28.3062L20.557 27.4725V24.1696L19.116 25.0033ZM19.0131 28.588C18.9954 28.588 18.9775 28.5835 18.9616 28.5742C18.9299 28.5558 18.9102 28.5218 18.9102 28.4848V24.9438C18.9102 24.9069 18.9299 24.8729 18.9616 24.8543L20.6085 23.9016C20.6402 23.8832 20.6797 23.8832 20.7114 23.9016C20.7431 23.9199 20.7628 23.954 20.7628 23.9909V27.5319C20.7628 27.5688 20.7431 27.6029 20.7114 27.6212L19.0645 28.5742C19.0487 28.5835 19.0308 28.588 19.0131 28.588Z" fill="#141414" fill-opacity="0.4"/>
<path d="M22.611 17.1232C21.7243 17.1232 20.7369 17.4221 19.7103 18.0136C16.1064 20.0903 13.1746 25.1429 13.1746 29.277C13.1746 31.246 13.8352 32.7136 15.0347 33.4091C16.2478 34.1124 17.872 33.949 19.6078 32.9486C23.2116 30.8719 26.1434 25.8193 26.1434 21.6854C26.1434 19.7162 25.4828 18.2486 24.2833 17.5534C23.7878 17.2658 23.2236 17.1232 22.611 17.1232ZM16.7064 34.0455C16.0582 34.0455 15.4596 33.8937 14.9316 33.5877C13.666 32.8537 12.9688 31.3229 12.9688 29.277C12.9688 25.0773 15.947 19.9442 19.6078 17.8348C21.41 16.7962 23.1067 16.6328 24.3865 17.3747C25.652 18.1085 26.3493 19.6395 26.3493 21.6854C26.3493 25.8852 23.371 31.018 19.7103 33.1275C18.6518 33.7375 17.6291 34.0455 16.7064 34.0455Z" fill="#141414" fill-opacity="0.4"/>
</g>
<defs>
<clipPath id="clip0_1770_361">
<rect width="37.6712" height="50" fill="white"/>
</clipPath>
</defs>
</svg>
