<svg width="120" height="120" viewBox="0 0 120 120" fill="none" xmlns="http://www.w3.org/2000/svg">
<path d="M32.7143 30.3288C30.5336 30.3288 28.4422 29.4625 26.9002 27.9205C25.3582 26.3786 24.4919 24.2872 24.4919 22.1064C24.4919 19.9257 25.3582 17.8343 26.9002 16.2923C28.4422 14.7503 30.5336 13.884 32.7143 13.884C34.8951 13.884 36.9865 14.7503 38.5285 16.2923C40.0705 17.8343 40.9367 19.9257 40.9367 22.1064C40.9367 24.2872 40.0705 26.3786 38.5285 27.9205C36.9865 29.4625 34.8951 30.3288 32.7143 30.3288Z" fill="#EBEBEB"/>
<path d="M30.6862 20.2751H28.9846V25.7735H30.6862V20.2751Z" fill="#141414"/>
<path d="M29.8271 19.5553C30.0283 19.5572 30.2255 19.4992 30.3937 19.3889C30.562 19.2785 30.6936 19.1206 30.7719 18.9353C30.8502 18.7499 30.8717 18.5455 30.8336 18.348C30.7955 18.1504 30.6996 17.9686 30.558 17.8257C30.4164 17.6827 30.2355 17.5851 30.0384 17.5451C29.8412 17.5052 29.6366 17.5247 29.4505 17.6013C29.2644 17.6778 29.1053 17.8079 28.9933 17.9751C28.8813 18.1422 28.8215 18.3389 28.8215 18.5401C28.8209 18.8078 28.9263 19.065 29.1148 19.2552C29.3032 19.4455 29.5594 19.5534 29.8271 19.5553Z" fill="#141414"/>
<path d="M33.4078 22.8865C33.4078 22.1137 33.763 21.6529 34.4446 21.6529C35.0686 21.6529 35.371 22.0945 35.371 22.8865V25.7665H37.063V22.2913C37.063 20.8177 36.2302 20.1073 35.0638 20.1073C34.733 20.1031 34.4067 20.1844 34.1166 20.3433C33.8265 20.5022 33.5823 20.7335 33.4078 21.0145V20.2753H31.7734V25.7713H33.4078V22.8865Z" fill="#141414"/>
<path d="M43.7327 5.73364L44.8583 7.79044L46.9175 8.91844L44.8583 10.044L43.7327 12.1008L42.6071 10.044L40.5479 8.91844L42.6071 7.79044L43.7327 5.73364Z" fill="#F5F5F5"/>
<path d="M90.6888 61.5049L91.5336 63.0505L93.0768 63.8929L91.5336 64.7377L90.6888 66.2833L89.844 64.7377L88.3008 63.8929L89.844 63.0505L90.6888 61.5049Z" fill="#EBEBEB"/>
<path d="M93.0766 53.8823L93.4582 54.5783L94.1542 54.9599L93.4582 55.3415L93.0766 56.0375L92.6974 55.3415L91.999 54.9599L92.6974 54.5783L93.0766 53.8823Z" fill="#E0E0E0"/>
<path d="M35.6904 6.50635L36.072 7.20475L36.768 7.58395L36.072 7.96555L35.6904 8.66155L35.3112 7.96555L34.6128 7.58395L35.3112 7.20475L35.6904 6.50635Z" fill="#E0E0E0"/>
<path d="M16.5911 71.2226C17.034 71.0197 17.4077 70.6916 17.6661 70.2787C17.9246 69.8658 18.0565 69.3863 18.0455 68.8993C18.0455 67.5241 16.9775 66.4201 15.6887 66.4297C14.3999 66.4393 13.3655 67.5649 13.3775 68.9401C13.374 69.4312 13.5163 69.9122 13.7863 70.3223C14.0563 70.7324 14.4419 71.0533 14.8943 71.2441C11.3087 71.8321 11.5199 75.7345 11.5199 75.7345L20.0135 75.6625C20.0135 75.6625 20.1599 71.7146 16.5911 71.2226Z" fill="#E0E0E0"/>
<path d="M98.0735 96.9456C98.0136 96.6377 97.8463 96.3611 97.6014 96.1652C97.3565 95.9693 97.0499 95.8668 96.7364 95.8761C96.423 95.8853 96.123 96.0056 95.89 96.2156C95.657 96.4256 95.5063 96.7115 95.4647 97.0224C95.4211 96.712 95.2687 96.4272 95.0346 96.2187C94.8005 96.0103 94.5001 95.8918 94.1867 95.8843C93.8734 95.8768 93.5676 95.9808 93.3238 96.1778C93.0801 96.3748 92.9142 96.652 92.8559 96.96C92.7931 97.4149 92.9083 97.8766 93.1775 98.2487C93.444 98.6157 93.757 98.9464 94.1087 99.2328C94.5887 99.6576 95.0231 100.054 95.4983 100.476C95.9783 100.049 96.3695 99.648 96.8399 99.2208C97.1901 98.9315 97.5007 98.5974 97.7639 98.2272C98.0265 97.855 98.1373 97.3966 98.0735 96.9456Z" fill="#EBEBEB"/>
<path d="M103.605 46.3559L104.515 46.1759L105.955 43.0127L105.595 41.1959C105.595 41.1959 106.985 40.8311 107.292 43.2431C107.599 45.6551 107.657 45.0143 107.657 45.0143C107.657 45.0143 110.645 44.4335 110.945 44.6423C111.163 44.7959 111.833 47.7479 112.183 49.3511C112.28 49.7354 112.246 50.1411 112.085 50.5035C111.924 50.8658 111.647 51.164 111.297 51.3503C111.198 51.3994 111.092 51.4349 110.983 51.4559C110.239 51.6047 106.313 51.7535 106.313 51.7535L104.741 52.0655L103.605 46.3559Z" fill="#E0E0E0"/>
<path d="M100.901 46.3729L102.693 52.4881L104.253 52.1785L103.044 46.0801L100.901 46.3729Z" fill="#E0E0E0"/>
<path d="M112.913 112.637C112.913 112.673 89.1121 112.699 59.7601 112.699C30.4081 112.699 6.6001 112.673 6.6001 112.637C6.6001 112.601 30.3961 112.574 59.7601 112.574C89.1241 112.574 112.913 112.603 112.913 112.637Z" fill="#141414"/>
<path d="M94.4233 43.956C92.0973 45.0865 89.4176 45.2471 86.9733 44.4023C84.5291 43.5575 82.5203 41.7766 81.3889 39.4512C80.2583 37.1252 80.0977 34.4455 80.9425 32.0012C81.7873 29.557 83.5682 27.5482 85.8937 26.4168C87.0453 25.8566 88.296 25.5288 89.5743 25.4521C90.8526 25.3754 92.1335 25.5512 93.3439 25.9695C94.5543 26.3878 95.6704 27.0404 96.6285 27.8901C97.5867 28.7398 98.368 29.7699 98.9281 30.9216C99.4882 32.0732 99.816 33.3239 99.8927 34.6022C99.9695 35.8805 99.7937 37.1614 99.3753 38.3718C98.957 39.5822 98.3044 40.6983 97.4547 41.6564C96.605 42.6146 95.5749 43.3959 94.4233 43.956Z" fill="#F0F0F0"/>
<path d="M87.7489 37.3656C87.7847 37.3648 87.8198 37.356 87.8517 37.3398C87.8836 37.3237 87.9115 37.3007 87.9333 37.2724C87.9552 37.2441 87.9704 37.2113 87.978 37.1763C87.9855 37.1414 87.9852 37.1052 87.9769 37.0704C87.9529 36.9528 87.8881 36.6552 87.8641 36.5328C87.8305 36.3624 87.7897 36.3168 87.6241 36.24C87.1941 36.0423 86.8522 35.6927 86.6641 35.2584C85.9297 33.7464 86.4025 31.8432 88.2169 30.9624C89.8225 30.18 91.1833 30.7224 91.8169 32.0424C92.6545 33.768 92.5993 35.5944 91.4665 36.1464C91.3253 36.2241 91.1678 36.2676 91.0067 36.2734C90.8456 36.2791 90.6854 36.247 90.539 36.1795C90.3926 36.112 90.2641 36.0111 90.1639 35.8849C90.0636 35.7587 89.9944 35.6107 89.9617 35.4528C89.7745 34.608 89.7217 33.6216 89.4577 33.0744C89.2177 32.5944 88.7569 32.304 88.2145 32.568C87.5737 32.88 87.3817 33.792 87.8137 34.6776C87.9678 35.0051 88.1894 35.2963 88.4641 35.532C88.4641 35.532 89.1601 38.6232 89.2801 39.1656C89.5201 40.2432 90.2929 41.3256 90.3673 41.448C90.378 41.4616 90.3922 41.4719 90.4085 41.4777C90.4247 41.4835 90.4423 41.4846 90.4591 41.4808C90.4759 41.4771 90.4914 41.4686 90.5036 41.4564C90.5158 41.4442 90.5243 41.4288 90.5281 41.412C90.5497 41.3064 90.8545 39.996 90.6553 38.9304C90.6001 38.628 90.2761 37.08 90.2761 37.08C90.6769 37.3752 91.4545 37.4304 92.1001 37.116C94.0201 36.18 94.4761 33.792 93.3337 31.4448C92.4721 29.6712 90.1633 28.7496 87.8809 29.8608C85.0369 31.2432 84.5953 33.9768 85.4209 35.676C85.9201 36.7056 86.7481 37.44 87.7489 37.3656Z" fill="#141414"/>
<path d="M104.16 71.4623C103.335 71.1475 102.579 70.6731 101.938 70.0662C101.296 69.4593 100.78 68.7318 100.419 67.9253C100.059 67.1188 99.861 66.2492 99.837 65.3661C99.8129 64.4831 99.9632 63.6039 100.279 62.779C100.594 61.9537 101.068 61.1985 101.675 60.5566C102.281 59.9146 103.008 59.3986 103.815 59.0379C104.621 58.6773 105.49 58.4791 106.373 58.4547C107.256 58.4303 108.135 58.5802 108.96 58.8959C109.785 59.2106 110.541 59.685 111.183 60.2919C111.824 60.8988 112.34 61.6263 112.701 62.4328C113.061 63.2393 113.259 64.109 113.283 64.992C113.307 65.875 113.157 66.7542 112.841 67.579C112.526 68.4044 112.052 69.1596 111.446 69.8015C110.839 70.4435 110.112 70.9595 109.305 71.3202C108.499 71.6808 107.63 71.879 106.747 71.9034C105.864 71.9278 104.985 71.7779 104.16 71.4623Z" fill="#F0F0F0"/>
<path fill-rule="evenodd" clip-rule="evenodd" d="M110.074 66.3215C110.374 65.4392 110.322 64.4754 109.93 63.6302C109.537 62.7851 108.834 62.1238 107.966 61.7838C107.099 61.4439 106.134 61.4514 105.271 61.8048C104.409 62.1582 103.716 62.8304 103.337 63.6815C103.315 63.7295 103.296 63.7799 103.277 63.8279C103.042 64.4393 102.981 65.1037 103.099 65.7479L101.801 67.3151L103.903 67.4351C104.309 67.9142 104.831 68.2798 105.42 68.4961C106.009 68.7124 106.645 68.7719 107.264 68.6688C107.883 68.5657 108.464 68.3036 108.951 67.9081C109.439 67.5126 109.815 66.9973 110.043 66.4127C110.055 66.3829 110.065 66.3524 110.074 66.3215ZM105.581 67.9367C105.025 67.7255 104.543 67.3548 104.196 66.8711L102.97 66.8015L103.726 65.8895C103.556 65.2751 103.587 64.6226 103.815 64.0271C103.851 63.9359 103.891 63.8447 103.935 63.7583C104.277 63.081 104.859 62.5557 105.568 62.2853C106.277 62.0148 107.061 62.0187 107.767 62.2961C108.473 62.5735 109.05 63.1045 109.386 63.7851C109.721 64.4657 109.79 65.247 109.579 65.9759C109.558 66.0527 109.534 66.1271 109.505 66.2015C109.214 66.9516 108.638 67.5556 107.902 67.881C107.166 68.2063 106.332 68.2263 105.581 67.9367Z" fill="#141414"/>
<path fill-rule="evenodd" clip-rule="evenodd" d="M107.952 66.3839C107.883 66.3119 107.554 65.9567 107.487 65.9039C107.419 65.8511 107.371 65.8127 107.285 65.8751C107.199 65.9375 106.966 66.0599 106.899 66.0959C106.831 66.1319 106.779 66.1199 106.711 66.0479C106.504 65.8577 106.331 65.6327 106.2 65.3831C106.084 65.1484 106.003 64.8976 105.96 64.6391C105.946 64.5383 106.003 64.5095 106.061 64.4855C106.119 64.4615 106.181 64.4207 106.241 64.3895L106.287 64.3607C106.318 64.3364 106.348 64.3099 106.375 64.2815C106.396 64.2636 106.411 64.2406 106.42 64.215C106.429 64.1893 106.431 64.1617 106.426 64.1351C106.426 64.0871 106.409 63.6167 106.402 63.4271C106.395 63.2375 106.315 63.2375 106.267 63.2183C106.219 63.1991 106.167 63.1703 106.111 63.1511C106.069 63.1358 106.024 63.1294 105.979 63.1323C105.934 63.1352 105.89 63.1473 105.85 63.1679C105.723 63.221 105.608 63.2999 105.513 63.3994C105.418 63.4989 105.345 63.617 105.298 63.7463C105.263 63.8413 105.241 63.9406 105.233 64.0415C105.219 64.2723 105.246 64.5038 105.312 64.7255C105.334 64.7951 105.538 65.8559 106.253 66.5087C106.968 67.1615 107.014 67.0511 107.172 67.0943C107.298 67.1188 107.427 67.1156 107.552 67.0849C107.676 67.0543 107.792 66.9968 107.892 66.9167C107.994 66.8153 108.064 66.6858 108.091 66.5447C108.065 66.4991 108.019 66.4559 107.952 66.3839Z" fill="#141414"/>
<path d="M16.7113 40.3775C15.3511 40.3775 14.0465 39.8371 13.0847 38.8753C12.1229 37.9134 11.5825 36.6089 11.5825 35.2487C11.5825 33.8884 12.1229 32.5839 13.0847 31.6221C14.0465 30.6602 15.3511 30.1199 16.7113 30.1199C17.3848 30.1199 18.0518 30.2525 18.674 30.5103C19.2963 30.768 19.8617 31.1458 20.3379 31.6221C20.8142 32.0983 21.192 32.6637 21.4497 33.286C21.7075 33.9082 21.8401 34.5751 21.8401 35.2487C21.8401 35.9222 21.7075 36.5891 21.4497 37.2114C21.192 37.8336 20.8142 38.399 20.3379 38.8753C19.8617 39.3515 19.2963 39.7293 18.674 39.9871C18.0518 40.2448 17.3848 40.3775 16.7113 40.3775Z" fill="#F0F0F0"/>
<path d="M13.9802 36.96C14.4728 37.2742 15.0421 37.4472 15.6263 37.4602C16.2104 37.4731 16.7868 37.3255 17.2928 37.0334C17.7988 36.7413 18.2149 36.3159 18.4958 35.8036C18.7767 35.2913 18.9116 34.7117 18.8858 34.128C19.1026 33.9706 19.2903 33.7764 19.4402 33.5544C19.2348 33.6446 19.0173 33.7044 18.7946 33.732C19.0293 33.5948 19.2066 33.3775 19.2938 33.12C19.0717 33.2521 18.8279 33.3439 18.5738 33.3912C18.4055 33.2071 18.1807 33.0843 17.9348 33.0421C17.6889 32.9999 17.436 33.0407 17.216 33.1582C16.9959 33.2757 16.8212 33.463 16.7194 33.6908C16.6176 33.9185 16.5945 34.1737 16.6538 34.416C16.2079 34.3931 15.7718 34.2767 15.3736 34.0746C14.9755 33.8724 14.6243 33.5889 14.3426 33.2424C14.1999 33.4896 14.1565 33.7818 14.2211 34.0599C14.2857 34.3379 14.4535 34.581 14.6906 34.74C14.5123 34.7354 14.3377 34.6876 14.1818 34.6008C14.1788 34.8621 14.2671 35.1163 14.4314 35.3196C14.5957 35.5229 14.8257 35.6625 15.0818 35.7144C14.9167 35.7594 14.7435 35.766 14.5754 35.7336C14.6473 35.956 14.7867 36.1504 14.9743 36.2898C15.1618 36.4291 15.3882 36.5066 15.6218 36.5112C15.1543 36.8696 14.5651 37.0307 13.9802 36.96Z" fill="#141414"/>
<path d="M25.9202 97.8264C23.6424 98.3674 21.2431 97.9819 19.2495 96.7547C17.2559 95.5274 15.8311 93.5589 15.2882 91.2816C15.019 90.1527 14.975 88.9817 15.1587 87.8357C15.3423 86.6897 15.7501 85.5912 16.3586 84.6029C16.9671 83.6146 17.7644 82.7559 18.705 82.0759C19.6455 81.3959 20.7109 80.908 21.8402 80.64C22.9685 80.3711 24.1387 80.3271 25.284 80.5105C26.4294 80.6939 27.5274 81.1011 28.5153 81.7088C29.5033 82.3166 30.3619 83.113 31.042 84.0526C31.7222 84.9921 32.2106 86.0565 32.4794 87.1848C32.7484 88.3143 32.7921 89.4857 32.608 90.6321C32.4239 91.7785 32.0155 92.8773 31.4063 93.8657C30.7971 94.8541 29.9989 95.7127 29.0576 96.3923C28.1162 97.0719 27.0501 97.5593 25.9202 97.8264Z" fill="#141414"/>
<path d="M22.9609 85.3727C24.2185 85.0727 24.3697 85.0415 24.8809 84.9455C25.1801 84.8783 25.4885 84.8629 25.7929 84.8999C26.0157 84.9268 26.2297 85.0031 26.4193 85.1231C26.6106 85.2393 26.7744 85.3957 26.8993 85.5815C27.0692 85.8369 27.1942 86.1193 27.2689 86.4167C27.4105 86.9087 27.4513 87.0575 27.7489 88.3151C28.0465 89.5727 28.0777 89.7239 28.1737 90.2351C28.2421 90.5341 28.2576 90.8428 28.2193 91.1471C28.1948 91.3705 28.1183 91.585 27.9961 91.7735C27.8815 91.9653 27.7257 92.1292 27.5401 92.2535C27.2838 92.4233 27.0006 92.5482 26.7025 92.6231C26.2225 92.7647 26.0641 92.8055 24.8065 93.1031C23.5489 93.4007 23.3977 93.4343 22.8865 93.5303C22.5867 93.5987 22.2772 93.6141 21.9721 93.5759C21.7491 93.5497 21.535 93.4734 21.3457 93.3527C21.1562 93.233 20.9969 93.0712 20.8801 92.8799C20.7087 92.6251 20.5829 92.3426 20.5081 92.0447C20.3689 91.5527 20.3281 91.4063 20.0281 90.1487C19.7281 88.8911 19.6969 88.7399 19.6009 88.2287C19.535 87.9286 19.5196 87.6195 19.5553 87.3143C19.5848 87.0924 19.6608 86.8791 19.7782 86.6885C19.8956 86.4979 20.0519 86.3341 20.2369 86.2079C20.4919 86.037 20.7744 85.9112 21.0721 85.8359C21.5521 85.6967 21.7129 85.6559 22.9705 85.3559M22.7689 84.5063C21.4897 84.8111 21.3289 84.8543 20.8321 84.9983C20.4434 85.0948 20.074 85.2572 19.7401 85.4783C19.4568 85.6742 19.2173 85.9268 19.0367 86.2202C18.8562 86.5135 18.7385 86.8412 18.6913 87.1823C18.6409 87.5824 18.6587 87.9882 18.7441 88.3823C18.8425 88.8887 18.8737 89.0519 19.1785 90.3311C19.4833 91.6103 19.5265 91.7711 19.6585 92.2655C19.7545 92.6544 19.9169 93.0238 20.1385 93.3575C20.3338 93.6514 20.592 93.8982 20.8945 94.0799C21.1856 94.2631 21.5132 94.3803 21.8545 94.4231C22.2546 94.4738 22.6604 94.456 23.0545 94.3703C23.5609 94.2743 23.7241 94.2407 25.0033 93.9359C26.2825 93.6311 26.4433 93.5879 26.9377 93.4559C27.3259 93.3578 27.6949 93.1955 28.0297 92.9759C28.3159 92.7829 28.5567 92.5298 28.7353 92.2343C28.9175 91.9426 29.0353 91.6153 29.0809 91.2743C29.1306 90.8741 29.1119 90.4683 29.0257 90.0743C28.9297 89.5655 28.8961 89.4047 28.5913 88.1255C28.2865 86.8463 28.2433 86.6855 28.1113 86.1887C28.0127 85.8007 27.8505 85.4317 27.6313 85.0967C27.4381 84.8112 27.1851 84.5712 26.8897 84.3935C26.5991 84.209 26.2713 84.091 25.9297 84.0479C25.5296 83.9972 25.1238 84.0151 24.7297 84.1007C24.2209 84.1991 24.0601 84.2303 22.7809 84.5351" fill="white"/>
<path d="M23.3041 86.815C22.8258 86.929 22.392 87.1823 22.0576 87.5428C21.7232 87.9033 21.5031 88.3548 21.4254 88.8404C21.3476 89.3259 21.4155 89.8236 21.6205 90.2705C21.8256 90.7175 22.1585 91.0936 22.5773 91.3513C22.9961 91.609 23.4819 91.7368 23.9733 91.7184C24.4647 91.7 24.9396 91.5364 25.338 91.2481C25.7363 90.9599 26.0403 90.56 26.2114 90.099C26.3826 89.638 26.4131 89.1366 26.2993 88.6582C26.1461 88.0169 25.7446 87.4626 25.183 87.117C24.6215 86.7714 23.9457 86.6628 23.3041 86.815ZM24.2641 90.8062C23.9534 90.8796 23.6278 90.8592 23.3286 90.7477C23.0294 90.6361 22.77 90.4384 22.5832 90.1795C22.3963 89.9205 22.2904 89.612 22.2788 89.2929C22.2672 88.9738 22.3505 88.6584 22.518 88.3866C22.6856 88.1148 22.93 87.8988 23.2203 87.7658C23.5106 87.6328 23.8338 87.5889 24.1491 87.6395C24.4644 87.6902 24.7576 87.8331 24.9916 88.0503C25.2257 88.2675 25.3901 88.5492 25.4641 88.8598C25.5134 89.0664 25.5214 89.2807 25.4877 89.4904C25.454 89.7001 25.3793 89.9011 25.2678 90.0819C25.1564 90.2627 25.0103 90.4198 24.8381 90.544C24.6659 90.6683 24.4708 90.7574 24.2641 90.8062Z" fill="white"/>
<path d="M26.3618 85.9871C26.388 86.0988 26.3806 86.2158 26.3404 86.3233C26.3002 86.4308 26.2291 86.5239 26.136 86.591C26.0429 86.6581 25.932 86.6962 25.8173 86.7003C25.7026 86.7044 25.5893 86.6745 25.4916 86.6143C25.3939 86.5541 25.3163 86.4663 25.2684 86.3619C25.2206 86.2576 25.2047 86.1415 25.2229 86.0282C25.241 85.9148 25.2923 85.8094 25.3702 85.7252C25.4482 85.641 25.5494 85.5818 25.661 85.5551C25.7354 85.5369 25.8127 85.5337 25.8883 85.5456C25.964 85.5576 26.0365 85.5844 26.1017 85.6246C26.1669 85.6648 26.2234 85.7175 26.2681 85.7798C26.3127 85.842 26.3446 85.9124 26.3618 85.9871Z" fill="white"/>
<path d="M92.8344 90.0527C92.2934 90.053 91.7576 89.9468 91.2576 89.7399C90.7577 89.5331 90.3034 89.2298 89.9207 88.8473C89.538 88.4649 89.2345 88.0107 89.0273 87.5109C88.8202 87.0111 88.7136 86.4754 88.7136 85.9343C88.7136 85.3933 88.8202 84.8576 89.0273 84.3577C89.2345 83.8579 89.538 83.4038 89.9207 83.0213C90.3034 82.6389 90.7577 82.3356 91.2576 82.1287C91.7576 81.9219 92.2934 81.8156 92.8344 81.8159C93.3759 81.815 93.9122 81.9208 94.4127 82.1274C94.9132 82.3339 95.368 82.6371 95.7512 83.0196C96.1344 83.4022 96.4384 83.8565 96.6458 84.3566C96.8533 84.8568 96.96 85.3929 96.96 85.9343C96.96 86.4758 96.8533 87.0119 96.6458 87.512C96.4384 88.0122 96.1344 88.4665 95.7512 88.849C95.368 89.2315 94.9132 89.5348 94.4127 89.7413C93.9122 89.9478 93.3759 90.0537 92.8344 90.0527Z" fill="#141414"/>
<path d="M92.2058 88.4232H93.209V85.92H93.9074L93.9842 85.08H93.209V84.6C93.209 84.4032 93.2498 84.324 93.449 84.324H93.9938V83.4504H93.2978C92.5514 83.4504 92.2154 83.7792 92.2154 84.4104V85.0824H91.6802V85.92H92.201L92.2058 88.4232Z" fill="white"/>
<path d="M78.7848 112.812L45.6912 112.8C43.7817 112.8 41.9503 112.041 40.6 110.691C39.2498 109.341 38.4912 107.51 38.4912 105.6L38.5056 22.6368C38.5056 21.6901 38.6923 20.7526 39.0551 19.8781C39.4178 19.0036 39.9494 18.2093 40.6195 17.5405C41.2896 16.8717 42.0851 16.3417 42.9603 15.9807C43.8355 15.6197 44.7733 15.4349 45.72 15.4368L78.8112 15.456C80.7208 15.456 82.5521 16.2146 83.9024 17.5648C85.2526 18.9151 86.0112 20.7464 86.0112 22.656L85.9968 105.6C85.9984 106.548 85.8129 107.486 85.451 108.362C85.0892 109.237 84.558 110.033 83.888 110.703C83.218 111.373 82.4223 111.904 81.5466 112.266C80.6709 112.628 79.7323 112.814 78.7848 112.812Z" fill="#141414"/>
<path d="M78.7753 18.3647H72.3577C71.9365 18.3748 71.5364 18.551 71.2446 18.8549C70.9528 19.1589 70.793 19.5659 70.8001 19.9871V21.1511C70.8049 21.3603 70.7684 21.5683 70.6927 21.7634C70.6169 21.9584 70.5035 22.1366 70.3588 22.2878C70.2141 22.4389 70.0411 22.56 69.8495 22.6442C69.658 22.7284 69.4517 22.774 69.2425 22.7783H56.7361C56.5268 22.7736 56.3205 22.7278 56.129 22.6433C55.9374 22.5589 55.7644 22.4376 55.6197 22.2862C55.4751 22.1349 55.3616 21.9565 55.286 21.7614C55.2103 21.5662 55.1738 21.358 55.1785 21.1487V19.9775C55.1869 19.5552 55.0278 19.1467 54.7359 18.8414C54.4441 18.536 54.0432 18.3586 53.6209 18.3479H51.3601H45.7465C45.0837 18.3463 44.427 18.4755 43.8141 18.7281C43.2013 18.9807 42.6442 19.3517 42.175 19.8198C41.7057 20.288 41.3334 20.8442 41.0793 21.4564C40.8253 22.0687 40.6945 22.725 40.6945 23.3879L40.6777 104.366C40.6777 105.703 41.2087 106.985 42.1539 107.93C43.0991 108.875 44.381 109.406 45.7177 109.406L78.7465 109.426C79.4084 109.426 80.0638 109.295 80.6753 109.042C81.2867 108.789 81.8423 108.417 82.3103 107.949C82.7784 107.481 83.1496 106.926 83.4029 106.314C83.6562 105.703 83.7865 105.047 83.7865 104.386L83.8033 23.4047C83.8033 22.0701 83.274 20.79 82.3314 19.8451C81.3888 18.9003 80.1099 18.3679 78.7753 18.3647Z" fill="white"/>
<path d="M79.2577 24.9431C79.2577 24.9647 78.4225 24.9887 77.3953 24.9959C76.3681 25.0031 75.5305 24.9959 75.5305 24.9743C75.5305 24.9527 76.3633 24.9263 77.3929 24.9191C78.4225 24.9119 79.2577 24.9215 79.2577 24.9431Z" fill="#141414"/>
<path d="M79.2648 25.896C79.2648 25.9176 78.432 25.9416 77.4024 25.9512C76.3728 25.9608 75.5376 25.9512 75.5376 25.9272C75.5376 25.9032 76.3728 25.8816 77.4024 25.872C78.432 25.8624 79.2648 25.8744 79.2648 25.896Z" fill="#141414"/>
<path d="M79.2745 26.8489C79.2745 26.8705 78.4393 26.8969 77.4097 26.9041C76.3801 26.9113 75.5473 26.9041 75.5449 26.8801C75.5425 26.8561 76.3801 26.8345 77.4097 26.8249C78.4393 26.8153 79.2745 26.8273 79.2745 26.8489Z" fill="#141414"/>
<path d="M44.1601 27.78H44.2585H44.5297L45.5329 27.756L45.5041 27.7824C45.5041 27.5616 45.5041 27.3192 45.4921 27.0624C45.4921 26.928 45.4921 26.8008 45.4921 26.6448C45.5079 26.5641 45.549 26.4907 45.6095 26.435C45.6699 26.3793 45.7465 26.3443 45.8281 26.3352C45.9913 26.3352 46.1329 26.3352 46.3081 26.3352C46.3999 26.35 46.4834 26.397 46.5437 26.4678C46.6039 26.5386 46.637 26.6286 46.6369 26.7216C46.6369 27.0624 46.6369 27.4152 46.6489 27.7824L46.6033 27.7368H47.8681L47.8201 27.7848C47.8201 27.276 47.8201 26.748 47.8057 26.208C47.8057 26.0736 47.8057 25.9416 47.8057 25.8072C47.8003 25.7474 47.7815 25.6897 47.7508 25.6382C47.72 25.5867 47.6781 25.5427 47.6281 25.5096L47.0761 24.9624L46.5409 24.4368L46.2841 24.1824C46.1953 24.096 46.1257 24.0072 46.0225 23.9856C45.9731 23.9725 45.9213 23.9707 45.8711 23.9803C45.8208 23.9898 45.7734 24.0105 45.7321 24.0408C45.6553 24.1056 45.5737 24.1968 45.4921 24.2808L45.0361 24.7392C44.7505 25.0344 44.4529 25.3056 44.2369 25.5624C44.1728 25.7137 44.1512 25.8797 44.1745 26.0424C44.1745 26.1984 44.1745 26.3472 44.1745 26.4864C44.1745 26.76 44.1745 27 44.1745 27.2064C44.1745 27.4128 44.1745 27.54 44.1745 27.6648C44.178 27.7199 44.178 27.7752 44.1745 27.8304C44.1717 27.78 44.1717 27.7295 44.1745 27.6792C44.1745 27.5568 44.1745 27.4056 44.1745 27.2256C44.1745 27.0456 44.1745 26.7768 44.1577 26.5056C44.1577 26.3616 44.1577 26.2104 44.1577 26.0496C44.1577 25.968 44.1577 25.8864 44.1577 25.8096C44.1572 25.717 44.1812 25.6259 44.2273 25.5456C44.4673 25.26 44.7409 25.0056 45.0289 24.7008L45.4801 24.2376C45.5617 24.1584 45.6265 24.0792 45.7201 23.9976C45.7717 23.9582 45.8316 23.9311 45.8952 23.9182C45.9588 23.9053 46.0245 23.907 46.0873 23.9232C46.2068 23.967 46.3122 24.0425 46.3921 24.1416L46.6513 24.396L47.1865 24.9216L47.7409 25.464C47.7929 25.5106 47.8403 25.562 47.8825 25.6176C47.9241 25.6813 47.9473 25.7552 47.9497 25.8312C47.9497 25.9656 47.9497 26.1 47.9497 26.2344C47.9497 26.7744 47.9497 27.3024 47.9617 27.8112V27.8592H47.9137H46.6489H46.5601V27.8136C46.5601 27.4464 46.5601 27.0936 46.5601 26.7528C46.5617 26.6795 46.5369 26.6082 46.4901 26.5518C46.4434 26.4954 46.378 26.4577 46.3057 26.4456C46.1593 26.4456 45.9865 26.4456 45.8449 26.4456C45.7802 26.452 45.7192 26.4787 45.6706 26.5218C45.6219 26.5648 45.588 26.6222 45.5737 26.6856C45.5737 26.8128 45.5737 26.9592 45.5737 27.0888C45.5737 27.3504 45.5737 27.5952 45.5737 27.8088V27.8376H45.5449H44.5249H44.2585C44.2238 27.8218 44.1908 27.8025 44.1601 27.78Z" fill="#141414"/>
<path d="M66.0001 91.0585C65.885 91.0766 65.7685 91.0846 65.652 91.0825L64.7064 91.1017C63.9096 91.1137 62.8056 91.1209 61.5864 91.1209C60.3672 91.1209 59.2633 91.1209 58.4665 91.1017L57.5209 91.0825C57.4044 91.0844 57.288 91.0764 57.1729 91.0585C57.2878 91.039 57.4043 91.031 57.5209 91.0345L58.4665 91.0129C59.2633 91.0129 60.3672 90.9961 61.5864 90.9961C62.8056 90.9961 63.9072 90.9961 64.7064 91.0129L65.652 91.0345C65.7686 91.0308 65.8851 91.0389 66.0001 91.0585Z" fill="#141414"/>
<path d="M79.8648 93.2279C79.8648 93.2639 74.784 93.2903 68.5176 93.2903C62.2512 93.2903 57.1704 93.2639 57.1704 93.2279C57.1704 93.1919 62.2512 93.1655 68.5176 93.1655C74.784 93.1655 79.8648 93.1943 79.8648 93.2279Z" fill="#141414"/>
<path d="M72.7728 95.2799C72.7728 95.3159 69.2808 95.3423 64.9728 95.3423C60.6648 95.3423 57.1704 95.3159 57.1704 95.2799C57.1704 95.2439 60.6624 95.2175 64.9728 95.2175C69.2832 95.2175 72.7728 95.2367 72.7728 95.2799Z" fill="#141414"/>
<path d="M80.3136 99.2471L79.608 98.5391L78.936 99.2087V97.1831H80.3112L80.3136 99.2471ZM79.608 98.4503L79.6296 98.4719L80.2512 99.0959V97.2479H79.0008V99.0599L79.608 98.4503Z" fill="#141414"/>
<path d="M61.5385 98.9831L61.2985 98.8727C61.1552 98.9401 60.9919 98.9516 60.8405 98.905C60.6892 98.8584 60.5607 98.757 60.4801 98.6207C60.3996 98.4843 60.3728 98.3228 60.405 98.1677C60.4373 98.0127 60.5262 97.8752 60.6544 97.7823C60.7826 97.6893 60.9409 97.6475 61.0983 97.6651C61.2557 97.6827 61.4009 97.7584 61.5054 97.8773C61.61 97.9963 61.6664 98.1499 61.6636 98.3083C61.6609 98.4666 61.5991 98.6182 61.4905 98.7335L61.5385 98.9831ZM60.9601 97.6343C60.796 97.6457 60.6425 97.7194 60.5308 97.8402C60.4192 97.961 60.3579 98.1198 60.3594 98.2843C60.3609 98.4488 60.4252 98.6065 60.5391 98.7252C60.6529 98.8439 60.8078 98.9147 60.9721 98.9231C61.0817 98.9155 61.1879 98.8818 61.2817 98.8247L61.4665 98.9063L61.4233 98.7263C61.5079 98.6339 61.5637 98.5188 61.5838 98.3951C61.6039 98.2714 61.5875 98.1446 61.5365 98.0301C61.4855 97.9157 61.4022 97.8186 61.2969 97.7508C61.1915 97.6831 61.0686 97.6476 60.9433 97.6487L60.9601 97.6343Z" fill="#141414"/>
<path d="M63.1368 98.8801L62.8536 98.1841L62.3184 97.7041H63.6144L63.1368 98.8801ZM62.4384 97.7449L62.8944 98.1625L63.1344 98.7553L63.5424 97.7353L62.4384 97.7449Z" fill="#141414"/>
<path d="M63.5873 97.6884L62.8792 98.1492L62.9053 98.1894L63.6134 97.7287L63.5873 97.6884Z" fill="#141414"/>
<path d="M59.4961 97.8385C59.477 97.7459 59.4258 97.6631 59.3515 97.6046C59.2772 97.5461 59.1846 97.5157 59.0901 97.5189C58.9957 97.5221 58.9053 97.5585 58.8351 97.6218C58.7649 97.6851 58.7193 97.7712 58.7065 97.8649C58.6935 97.7701 58.6471 97.6831 58.5756 97.6195C58.5041 97.556 58.4123 97.5201 58.3166 97.5184C58.221 97.5166 58.1279 97.5492 58.0541 97.6101C57.9804 97.671 57.9308 97.7563 57.9145 97.8505C57.896 97.9887 57.9312 98.1287 58.0129 98.2417C58.094 98.3528 58.1891 98.4528 58.2961 98.5393C58.4425 98.6665 58.5745 98.7793 58.7185 98.9137C58.8625 98.7841 58.9825 98.6617 59.1265 98.5321C59.232 98.4438 59.3256 98.3422 59.4049 98.2297C59.4851 98.1162 59.5179 97.9758 59.4961 97.8385Z" fill="#F0F0F0"/>
<path d="M81.7585 101.04C81.7585 101.04 81.7585 100.961 81.7585 100.814C81.7585 100.668 81.7585 100.445 81.7585 100.157C81.7585 99.5784 81.7585 98.7168 81.7465 97.6224C81.7465 95.4168 81.7345 92.208 81.7249 88.1832L81.7657 88.224L43.3873 88.2456L43.4497 88.1832C43.4497 92.652 43.4497 96.984 43.4497 101.04L43.3897 100.98L70.8529 101.006L78.8689 101.023H81.0289H81.5857H81.7777H81.5929H81.0433H78.9049L70.9009 101.04L43.3969 101.069H43.3345V101.04C43.3345 96.984 43.3345 92.652 43.3345 88.1832V88.1208H43.4017L81.7801 88.1424H81.8209V88.1832C81.8209 92.2176 81.8041 95.436 81.7993 97.6488C81.7993 98.748 81.7993 99.5953 81.7993 100.174C81.7993 100.457 81.7993 100.673 81.7993 100.822C81.7993 100.97 81.7585 101.04 81.7585 101.04Z" fill="#141414"/>
<path d="M44.9765 90.3328L44.9275 98.8335L55.5593 98.8947L55.6083 90.3941L44.9765 90.3328Z" fill="#EBEBEB"/>
<path d="M55.6056 90.3888H55.4016H54.8208H52.6392L44.9592 90.372L45.0168 90.3168C45.0048 92.8488 44.9904 95.748 44.976 98.8152C44.988 98.832 44.8584 98.6976 44.9136 98.7528H45.6456H46.3656H47.8056L50.5656 98.7696L55.5432 98.8056L55.4928 98.8584C55.5168 96.3048 55.5384 94.188 55.5552 92.7C55.5552 91.9608 55.572 91.38 55.5768 90.9744C55.5768 90.78 55.5768 90.6288 55.5768 90.5184C55.5768 90.408 55.5768 90.3576 55.5768 90.3576C55.5768 90.3576 55.5768 90.4056 55.5768 90.5064C55.5768 90.6072 55.5768 90.7632 55.5768 90.9552C55.5768 91.356 55.5768 91.9344 55.5768 92.6688C55.5768 94.164 55.5768 96.2928 55.5768 98.8584V98.9088H55.524L50.5464 98.8896L47.7864 98.8752H46.3464H45.6264H44.8944L44.8296 98.8104C44.8512 95.7408 44.868 92.8416 44.8848 90.312V90.2544H44.9424L52.6464 90.324L54.8064 90.3528H55.3752H55.5192L55.6056 90.3888Z" fill="#141414"/>
<path d="M45.3406 90.87L45.2979 98.3003L55.1833 98.3572L55.2261 90.927L45.3406 90.87Z" fill="#E0E0E0"/>
<path d="M45.2927 98.2944L48.7727 93.696L50.8943 96.5976L52.3535 95.0616L55.1783 98.352L45.2927 98.2944Z" fill="#F5F5F5"/>
<path d="M51.8232 93.1489C51.8227 93.3032 51.7764 93.454 51.6902 93.5821C51.604 93.7101 51.4817 93.8097 51.3389 93.8682C51.196 93.9268 51.039 93.9416 50.8878 93.9108C50.7365 93.8801 50.5977 93.8051 50.4891 93.6954C50.3804 93.5858 50.3068 93.4464 50.2774 93.2948C50.2481 93.1432 50.2643 92.9864 50.3242 92.8441C50.384 92.7018 50.4847 92.5804 50.6136 92.4954C50.7424 92.4104 50.8936 92.3655 51.048 92.3665C51.1503 92.3668 51.2515 92.3873 51.3459 92.4268C51.4403 92.4663 51.526 92.5241 51.598 92.5968C51.67 92.6695 51.727 92.7556 51.7656 92.8504C51.8042 92.9451 51.8238 93.0466 51.8232 93.1489Z" fill="#F5F5F5"/>
<path d="M62.9016 35.2489C62.8635 35.2553 62.8245 35.2553 62.7864 35.2489L62.4624 35.2609L61.2624 35.2825C60.252 35.2825 58.8624 35.2993 57.312 35.2993C55.7616 35.2993 54.372 35.2993 53.3616 35.2825L52.1616 35.2609L51.8352 35.2489C51.7979 35.2555 51.7597 35.2555 51.7224 35.2489C51.7593 35.2398 51.7972 35.2357 51.8352 35.2369H52.1616L53.3616 35.2177C54.372 35.2057 55.7616 35.1985 57.312 35.1985C58.8624 35.1985 60.252 35.1985 61.2624 35.2177L62.4624 35.2369H62.7864C62.8252 35.2359 62.8639 35.2399 62.9016 35.2489Z" fill="#141414"/>
<path d="M78.6073 82.2359L77.5609 81.1847L76.5601 82.1807V79.1711H78.6049L78.6073 82.2359ZM77.5609 81.0551L77.5921 81.0863L78.5161 82.0127V79.2671H76.6537V81.9599L77.5609 81.0551Z" fill="#141414"/>
<path d="M52.0009 81.9192L51.5209 81.7008C51.2413 81.8308 50.9234 81.8518 50.6292 81.7599C50.335 81.6679 50.0856 81.4695 49.9299 81.2035C49.7742 80.9374 49.7232 80.6229 49.7871 80.3213C49.851 80.0197 50.025 79.7528 50.2752 79.5728C50.5254 79.3927 50.8338 79.3124 51.14 79.3476C51.4463 79.3828 51.7284 79.5309 51.9312 79.763C52.134 79.9952 52.243 80.2946 52.2368 80.6028C52.2306 80.911 52.1097 81.2058 51.8977 81.4296L52.0009 81.9192ZM50.8561 79.2672C50.6896 79.2686 50.5251 79.3028 50.3719 79.3678C50.2187 79.4328 50.0798 79.5273 49.9632 79.646C49.8465 79.7647 49.7544 79.9051 49.692 80.0594C49.6296 80.2137 49.5982 80.3788 49.5997 80.5452C49.6011 80.7116 49.6353 80.8761 49.7002 81.0293C49.7652 81.1825 49.8598 81.3214 49.9784 81.4381C50.0971 81.5547 50.2376 81.6469 50.3919 81.7093C50.5462 81.7716 50.7112 81.803 50.8777 81.8016C51.0935 81.7886 51.3029 81.7226 51.4873 81.6096L51.5089 81.5976L51.8689 81.7584L51.7873 81.4032L51.8041 81.3864C51.9708 81.2044 52.0806 80.9777 52.1201 80.7341C52.1595 80.4905 52.1269 80.2407 52.0261 80.0154C51.9253 79.7902 51.7609 79.5993 51.553 79.4663C51.3451 79.3334 51.1028 79.2642 50.8561 79.2672Z" fill="#141414"/>
<path d="M55.1497 81.7104L54.5881 80.34L53.5369 79.38L56.0905 79.3608L55.1497 81.7104ZM53.7745 79.4712L54.6721 80.2944L55.1521 81.4608L55.9537 79.4544L53.7745 79.4712Z" fill="#141414"/>
<path d="M56.0395 79.3567L54.6475 80.2625L54.6985 80.3409L56.0906 79.4352L56.0395 79.3567Z" fill="#141414"/>
<path d="M47.9831 79.68C47.9469 79.4963 47.8465 79.3314 47.6999 79.2148C47.5534 79.0982 47.3701 79.0376 47.1829 79.0436C46.9958 79.0497 46.8168 79.1221 46.6781 79.2479C46.5393 79.3737 46.4498 79.5447 46.4255 79.7304C46.398 79.5455 46.3058 79.3763 46.1652 79.253C46.0246 79.1297 45.8449 79.0603 45.6579 79.0572C45.471 79.054 45.289 79.1173 45.1443 79.2357C44.9997 79.3542 44.9017 79.5201 44.8679 79.704C44.8319 79.9754 44.9015 80.2504 45.0623 80.472C45.2234 80.6906 45.4113 80.8882 45.6215 81.06C45.9071 81.3 46.1687 81.54 46.4543 81.7968C46.7327 81.5424 46.9727 81.3024 47.2535 81.0456C47.461 80.871 47.6456 80.671 47.8031 80.4504C47.9593 80.226 48.0237 79.9504 47.9831 79.68Z" fill="#F0F0F0"/>
<path d="M47.7504 36.9815C48.7074 36.9815 49.4832 36.2057 49.4832 35.2487C49.4832 34.2917 48.7074 33.5159 47.7504 33.5159C46.7934 33.5159 46.0176 34.2917 46.0176 35.2487C46.0176 36.2057 46.7934 36.9815 47.7504 36.9815Z" fill="#EBEBEB"/>
<path d="M77.9545 72.3C77.9545 72.336 70.6921 72.3647 61.7353 72.3647C52.7785 72.3647 45.5137 72.336 45.5137 72.3C45.5137 72.264 52.7761 72.2375 61.7353 72.2375C70.6945 72.2375 77.9545 72.2664 77.9545 72.3Z" fill="#141414"/>
<path d="M77.9545 69.6C77.9545 69.6336 70.6921 69.6624 61.7353 69.6624C52.7785 69.6624 45.5137 69.6336 45.5137 69.6C45.5137 69.5664 52.7761 69.5376 61.7353 69.5376C70.6945 69.5376 77.9545 69.5664 77.9545 69.6Z" fill="#141414"/>
<path d="M63.1705 75.0385C63.1705 75.0721 59.2177 75.1009 54.3433 75.1009C49.4689 75.1009 45.5137 75.0721 45.5137 75.0385C45.5137 75.0049 49.4665 74.9761 54.3433 74.9761C59.2201 74.9761 63.1705 75.0049 63.1705 75.0385Z" fill="#141414"/>
<path d="M60.9936 104.47C60.9913 104.606 60.9486 104.739 60.871 104.851C60.7934 104.963 60.6844 105.05 60.5576 105.1C60.4308 105.15 60.292 105.162 60.1586 105.134C60.0252 105.105 59.9032 105.038 59.8079 104.94C59.7126 104.843 59.6484 104.719 59.6232 104.585C59.598 104.451 59.6131 104.313 59.6665 104.187C59.7199 104.062 59.8092 103.955 59.9232 103.88C60.0372 103.805 60.1708 103.765 60.3072 103.766C60.3985 103.767 60.4887 103.786 60.5727 103.822C60.6566 103.858 60.7327 103.91 60.7964 103.975C60.8602 104.041 60.9104 104.118 60.9443 104.203C60.9781 104.288 60.9949 104.378 60.9936 104.47Z" fill="#141414"/>
<path d="M63.1201 104.479C63.1173 104.615 63.0744 104.747 62.9969 104.858C62.9194 104.969 62.8108 105.055 62.6845 105.105C62.5583 105.155 62.4202 105.167 62.2875 105.138C62.1547 105.11 62.0334 105.043 61.9386 104.946C61.8438 104.849 61.7798 104.726 61.7546 104.592C61.7295 104.459 61.7443 104.321 61.7972 104.196C61.8501 104.071 61.9387 103.965 62.0519 103.89C62.1652 103.815 62.298 103.775 62.4337 103.776C62.5251 103.777 62.6155 103.795 62.6996 103.831C62.7837 103.867 62.8598 103.919 62.9237 103.984C62.9875 104.05 63.0377 104.127 63.0714 104.212C63.1052 104.297 63.1217 104.388 63.1201 104.479Z" fill="#141414"/>
<path d="M65.2632 104.489C65.2604 104.625 65.2175 104.756 65.14 104.868C65.0625 104.979 64.9538 105.065 64.8276 105.115C64.7014 105.165 64.5632 105.176 64.4305 105.148C64.2978 105.12 64.1764 105.053 64.0816 104.956C63.9868 104.858 63.9228 104.735 63.8977 104.602C63.8725 104.469 63.8873 104.331 63.9402 104.206C63.9931 104.081 64.0817 103.974 64.195 103.9C64.3083 103.825 64.4411 103.785 64.5768 103.786C64.6681 103.787 64.7583 103.806 64.8422 103.841C64.9262 103.877 65.0022 103.929 65.066 103.995C65.1298 104.06 65.18 104.137 65.2139 104.222C65.2477 104.307 65.2645 104.398 65.2632 104.489Z" fill="#141414"/>
<path d="M81.9889 38.676H43.6057V62.148H81.9889V38.676Z" fill="#E0E0E0"/>
<path d="M47.1504 62.1552L58.1472 47.4336L64.968 56.64L69.588 51.7152L78.6528 62.1456L47.1504 62.1552Z" fill="#F5F5F5"/>
<path d="M67.8577 45.6264C67.8582 46.1173 67.7131 46.5974 67.4407 47.0058C67.1683 47.4142 66.7809 47.7326 66.3275 47.9208C65.8741 48.109 65.375 48.1585 64.8935 48.063C64.4119 47.9675 63.9695 47.7314 63.6222 47.3844C63.2749 47.0375 63.0383 46.5953 62.9424 46.1138C62.8464 45.6324 62.8954 45.1333 63.0832 44.6797C63.271 44.2261 63.589 43.8384 63.9972 43.5656C64.4053 43.2928 64.8852 43.1472 65.3761 43.1472C66.0339 43.1472 66.6647 43.4083 67.13 43.8732C67.5954 44.3381 67.8571 44.9687 67.8577 45.6264Z" fill="#F5F5F5"/>
<path d="M81.8855 83.9639C81.8855 83.4623 81.8615 62.2583 81.8279 30.8663L81.8855 30.9239H43.5071L43.5695 30.8615C43.5695 50.7191 43.5695 69.0959 43.5695 83.9591L43.5167 83.9087L81.8999 83.9591L43.5167 84.0119H43.4663V83.9591C43.4663 69.0959 43.4663 50.7191 43.4543 30.8615V30.7991H43.5215H81.8999H81.9575V30.8543C81.9455 46.5671 81.9359 59.8463 81.9287 69.2015C81.9287 73.8719 81.9167 77.5607 81.9143 80.0855C81.9143 81.3431 81.9143 82.3103 81.9143 82.9655C81.9143 83.2895 81.9143 83.5367 81.9143 83.7047C81.9143 83.8727 81.8855 83.9639 81.8855 83.9639Z" fill="#141414"/>
<path d="M63.8398 90.552L64.6894 87.6984C64.8382 87.0792 65.035 86.3496 65.299 85.5168C65.539 84.768 66.1486 83.9808 66.7054 83.4144C67.5718 82.5336 67.9846 82.5288 68.5654 82.0608C68.6182 82.0272 68.6782 81.9768 68.7286 81.9504C68.8384 81.8906 68.9348 81.8089 69.0118 81.7104C69.5134 81.168 69.031 80.3256 68.011 80.4072C67.2454 80.4672 65.9926 80.6856 63.9574 82.7856C63.931 82.8192 63.9046 82.8456 63.8806 82.8768C62.8126 84.2664 61.8094 80.3016 61.627 78.8256C61.5916 78.5968 61.5052 78.379 61.3742 78.1881C61.2432 77.9973 61.071 77.8384 60.8702 77.7232C60.6695 77.6079 60.4454 77.5393 60.2145 77.5224C59.9837 77.5055 59.752 77.5408 59.5366 77.6256L54.5782 79.944C54.1053 79.8068 53.601 79.8236 53.1382 79.992C52.7912 80.1138 52.5021 80.3605 52.3272 80.684C52.1524 81.0075 52.1044 81.3846 52.1926 81.7416L54.2062 89.76L48.2998 109.416H61.0318L63.8398 90.552Z" fill="#FFBE9D"/>
<path d="M73.6319 72.4992L69.6959 80.2128L67.7279 79.6656L57.8399 87.7128C57.4363 88.043 56.9198 88.2026 56.4003 88.1578C55.8808 88.113 55.3993 87.8672 55.0583 87.4728L51.2903 83.0976C51.2903 83.0976 58.8863 79.8264 60.2903 77.1192C61.6943 74.412 60.0719 73.7952 60.0719 73.7952L63.6455 69.7344L73.6319 72.4992Z" fill="#F0F0F0"/>
<path d="M68.5271 56.7456C68.5271 56.7456 62.7671 55.4712 54.6575 47.676C46.5479 39.8808 42.7415 29.52 41.7599 29.5776C40.7783 29.6352 36.4343 27.6168 28.1927 45.5424C19.9511 63.468 23.1983 67.6224 24.8327 67.5984C26.4671 67.5744 37.6055 64.4616 44.5607 65.2512C51.5159 66.0408 60.4559 69.6672 60.4559 69.6672L68.5271 56.7456Z" fill="#F0F0F0"/>
<path d="M80.7646 66.5159L78.799 70.2527L77.9182 71.9327C77.3369 73.0386 76.3533 73.8792 75.1704 74.2811C73.9874 74.683 72.6953 74.6156 71.5606 74.0927L59.2126 69.7895L66.4126 53.3735L78.7486 59.9471C79.8835 60.5544 80.7323 61.5857 81.11 62.8162C81.4876 64.0467 81.3635 65.3766 80.7646 66.5159Z" fill="#F0F0F0"/>
<g opacity="0.4">
<path d="M80.7646 66.5159L78.799 70.2527L77.9182 71.9327C77.3369 73.0386 76.3533 73.8792 75.1704 74.2811C73.9874 74.683 72.6953 74.6156 71.5606 74.0927L59.2126 69.7895L66.4126 53.3735L78.7486 59.9471C79.8835 60.5544 80.7323 61.5857 81.11 62.8162C81.4876 64.0467 81.3635 65.3766 80.7646 66.5159Z" fill="black"/>
</g>
<path d="M28.8504 45.8687C24.4656 55.5791 22.6392 64.2335 24.7704 65.1959C26.9016 66.1583 32.1888 59.0687 36.5736 49.3559C40.9584 39.6431 42.7848 30.9935 40.6536 30.0287C38.5224 29.0639 33.2352 36.1583 28.8504 45.8687Z" fill="#F0F0F0"/>
<g opacity="0.5">
<path d="M28.8504 45.8687C24.4656 55.5791 22.6392 64.2335 24.7704 65.1959C26.9016 66.1583 32.1888 59.0687 36.5736 49.3559C40.9584 39.6431 42.7848 30.9935 40.6536 30.0287C38.5224 29.0639 33.2352 36.1583 28.8504 45.8687Z" fill="black"/>
</g>
<path d="M81.8255 71.9162L78.4775 70.865L80.5487 66.929L83.0591 68.489L81.8255 71.9162Z" fill="#F0F0F0"/>
<g opacity="0.6">
<path d="M80.5487 66.929L78.4775 70.865L79.1663 71.081L80.8487 67.1138L80.5487 66.929Z" fill="black"/>
</g>
<path d="M78.2398 67.8359C78.1918 67.9439 76.5214 67.2959 74.5102 66.3959C72.499 65.4959 70.9102 64.6607 70.9558 64.5527C71.0014 64.4447 72.6742 65.0951 74.6878 66.0047C76.7014 66.9143 78.2902 67.7279 78.2398 67.8359Z" fill="#F0F0F0"/>
<path d="M79.272 65.4913C79.2192 65.5969 77.7072 64.9609 75.8952 64.0681C74.0832 63.1753 72.6576 62.3665 72.7104 62.2585C72.7632 62.1505 74.2728 62.7889 76.0848 63.6817C77.8968 64.5745 79.3248 65.3833 79.272 65.4913Z" fill="#F0F0F0"/>
<path d="M76.9439 70.2961C76.9271 70.3537 76.5287 70.2625 75.8951 70.0561C75.5783 69.9577 75.2015 69.8329 74.7863 69.6913C74.3711 69.5497 73.9463 69.3241 73.4879 69.1153C71.6567 68.2657 70.2575 67.4353 70.3031 67.3345C70.3487 67.2337 71.8535 67.8841 73.6631 68.7265C74.1191 68.9329 74.5415 69.1585 74.9399 69.3241C75.3383 69.4897 75.6959 69.6361 75.9959 69.7705C76.5959 70.0465 76.9607 70.2385 76.9439 70.2961Z" fill="#F0F0F0"/>
<path d="M37.7903 43.7112C37.7903 43.7112 32.7839 40.6056 30.0455 47.3712C27.3071 54.1368 32.5727 55.248 32.5727 55.248C34.8465 51.6674 36.6031 47.7834 37.7903 43.7112Z" fill="#F0F0F0"/>
<g opacity="0.5">
<path d="M43.1158 35.6472C43.147 35.6472 43.075 36.1128 42.9214 36.9408C42.7678 37.7688 42.5374 38.9664 42.2158 40.44L41.5198 42.8088C41.3934 43.2328 41.263 43.672 41.1286 44.1264L40.9246 44.8152C40.8502 45.0552 40.7518 45.2736 40.6654 45.5064L39.535 48.4248C39.4366 48.6792 39.3358 48.9336 39.2374 49.1904C39.139 49.4472 38.9974 49.692 38.8846 49.9464L38.1406 51.4824L37.3942 53.016C37.267 53.256 37.1542 53.5248 37.0174 53.76C36.8806 53.9952 36.7366 54.24 36.5998 54.468L35.0038 57.1632C34.8742 57.3744 34.7638 57.5928 34.6198 57.7944L34.2046 58.3824L33.4078 59.5056L31.9678 61.5144C31.0078 62.6736 30.2062 63.588 29.6542 64.224C29.3831 64.5684 29.0837 64.8895 28.759 65.184C28.9847 64.8094 29.2416 64.4545 29.527 64.1232C30.0598 63.444 30.811 62.4936 31.7326 61.3248L33.1126 59.3016L33.8854 58.176C34.0198 57.984 34.1542 57.7872 34.291 57.588C34.4278 57.3888 34.531 57.1704 34.663 56.9568L36.2398 54.264L36.6502 53.5584C36.7918 53.3184 36.8902 53.0784 37.0222 52.8192L37.7614 51.2952C38.0014 50.7792 38.2582 50.2728 38.503 49.7712C38.6182 49.5312 38.7574 49.2768 38.8534 49.0224L39.1534 48.264L40.3006 45.384C40.3894 45.144 40.4902 44.9304 40.567 44.7C40.6438 44.4696 40.7086 44.244 40.7782 44.0184L41.1862 42.7152L41.923 40.3752L42.7558 36.9192C42.8394 36.4857 42.9598 36.0602 43.1158 35.6472Z" fill="black"/>
</g>
<g opacity="0.4">
<path d="M52.4856 82.5601C52.944 83.3905 53.4096 84.2401 54.084 84.8953C54.7584 85.5505 55.68 86.0161 56.64 85.9201C57.6 85.8241 58.476 85.0417 58.4856 84.0961C58.9368 84.4345 59.6304 84.2521 60.0048 83.8273C60.3792 83.4025 60.5016 82.8145 60.5448 82.2505C61.1592 82.6129 62.0136 82.3273 62.424 81.7441C62.6124 81.4404 62.7316 81.0988 62.7731 80.7437C62.8146 80.3886 62.7773 80.0288 62.664 79.6897C62.4301 79.0149 62.0977 78.3785 61.6776 77.8009C62.1576 77.8393 62.652 77.8729 63.0744 77.6593C63.4968 77.4457 63.7944 76.8841 63.5376 76.4809C63.3689 76.2558 63.1241 76.0997 62.8488 76.0417C62.1072 75.8017 61.5888 75.6241 60.816 75.7129C60.6384 75.7129 61.1256 77.7481 56.2848 80.5273C53.412 82.1713 52.4856 82.5601 52.4856 82.5601Z" fill="black"/>
</g>
<path d="M63.3864 85.488C63.3864 85.5096 63.0624 85.4472 62.5392 85.4616C61.8593 85.4778 61.1906 85.6383 60.5774 85.9325C59.9642 86.2267 59.4205 86.6478 58.9824 87.168C58.644 87.5664 58.5024 87.8568 58.4712 87.8448C58.4911 87.7699 58.5227 87.6986 58.5648 87.6336C58.6676 87.4507 58.7839 87.2758 58.9128 87.1104C59.3442 86.5628 59.8955 86.1215 60.5241 85.8203C61.1528 85.519 61.8421 85.366 62.5392 85.3728C62.7485 85.3741 62.9572 85.3933 63.1632 85.4304C63.2404 85.4362 63.316 85.4557 63.3864 85.488Z" fill="#EB996E"/>
<path d="M52.7998 81.2617C53.5798 82.0105 54.1126 82.8385 54.931 83.5921C55.303 83.9353 55.891 84.5833 56.371 84.6697C56.851 84.7561 57.187 84.6913 57.3838 84.2257C57.5446 83.8489 57.2566 83.3329 57.0598 83.0257C56.539 82.2073 56.0398 81.5689 55.651 80.9329C55.4662 80.6353 55.7038 80.5729 55.7902 80.7121C56.1646 81.1009 56.7262 81.4321 57.0622 81.8617C57.523 82.4401 57.6046 83.2105 58.8094 82.9657C58.9705 82.9396 59.1234 82.8763 59.2558 82.7809C59.7094 82.4329 59.7358 81.8209 59.539 81.3409C59.3691 80.9704 59.1423 80.6286 58.867 80.3281C59.3806 80.9065 59.9398 81.5281 60.7558 81.5809C60.9863 81.6088 61.2198 81.5645 61.424 81.454C61.6282 81.3435 61.7931 81.1723 61.8958 80.9641C62.1358 80.4169 61.7926 79.8865 61.4446 79.4593C60.8286 78.6997 60.1432 77.9991 59.3974 77.3665C59.1189 77.1325 58.7676 77.0026 58.4038 76.9993C57.9814 76.9993 57.4438 77.0761 57.2038 77.4409C57.0667 77.6168 56.9669 77.8189 56.9103 78.0347C56.8538 78.2505 56.8418 78.4755 56.875 78.6961C56.875 78.6961 55.819 78.1609 54.9694 78.7201C54.4464 79.0874 54.0706 79.6282 53.9086 80.2465L52.7998 81.2617Z" fill="#FFBE9D"/>
<path d="M58.4278 76.7689C58.259 76.5728 58.1542 76.3297 58.1276 76.0722C58.101 75.8148 58.1538 75.5554 58.279 75.3289C58.459 74.9761 58.6846 74.6329 58.915 74.5561C59.9206 74.2177 64.3174 74.9785 64.2766 75.9529C64.2358 76.9273 63.9142 77.3929 61.531 77.0497C61.111 76.9897 60.4534 76.9081 60.4534 76.9081L59.8774 77.7721L58.4278 76.7689Z" fill="#FFBE9D"/>
<path d="M59.2151 80.8537C58.6381 79.9022 57.7967 79.1392 56.7935 78.6577C56.9571 78.6841 57.1148 78.7393 57.2591 78.8209C57.9815 79.1702 58.588 79.7201 59.0063 80.4049C59.1031 80.5403 59.1739 80.6925 59.2151 80.8537Z" fill="#EB996E"/>
<path d="M59.9543 77.8559C59.9327 77.8751 59.6423 77.6399 59.2463 77.3975C59.0807 77.2926 58.9092 77.1973 58.7327 77.1119C58.5959 77.0495 58.5047 77.0327 58.5071 77.0135C58.5095 76.9943 58.6103 76.9847 58.7615 77.0303C58.9562 77.0929 59.1418 77.1809 59.3135 77.2919C59.7191 77.5391 59.9855 77.8295 59.9543 77.8559Z" fill="#EB996E"/>
<path d="M60.6935 76.9488C60.4075 76.9822 60.1176 76.9493 59.8463 76.8528C59.6479 76.7922 59.4635 76.6926 59.3039 76.56C59.1839 76.4568 59.1335 76.3728 59.1455 76.3608C59.3764 76.5102 59.6236 76.6326 59.8823 76.7256C60.1574 76.7819 60.4284 76.8565 60.6935 76.9488Z" fill="#EB996E"/>
<path d="M56.4214 82.0607C56.2699 81.9017 56.1355 81.7272 56.0206 81.5399C55.7466 81.0966 55.4002 80.7023 54.9958 80.3735C54.5767 80.0669 54.0573 79.9298 53.5414 79.9895C53.3298 80.0274 53.1241 80.0927 52.9294 80.1839C52.9294 80.1839 52.9726 80.1335 53.071 80.0735C53.2112 79.9885 53.3658 79.9299 53.527 79.9007C53.7957 79.8573 54.0703 79.8679 54.3349 79.9318C54.5994 79.9956 54.8486 80.1115 55.0678 80.2727C55.4855 80.6083 55.8343 81.0215 56.095 81.4895C56.2197 81.6704 56.3289 81.8615 56.4214 82.0607Z" fill="#EB996E"/>
<path d="M59.784 91.7808C59.192 91.9067 58.5923 91.9925 57.9888 92.0376C57.3886 92.1245 56.7832 92.1694 56.1768 92.172C56.7695 92.0462 57.3701 91.9604 57.9744 91.9152C58.5738 91.8296 59.1784 91.7847 59.784 91.7808Z" fill="#EB996E"/>
<path d="M97.5913 11.9617L97.8625 12.4585L98.3569 12.7297L97.8625 13.0009L97.5913 13.4953L97.3201 13.0009L96.8257 12.7297L97.3201 12.4585L97.5913 11.9617Z" fill="#F0F0F0"/>
<path d="M103.258 24.2424L103.529 24.7392L104.023 25.0104L103.529 25.2816L103.258 25.776L102.987 25.2816L102.49 25.0104L102.987 24.7392L103.258 24.2424Z" fill="#F0F0F0"/>
<path d="M12.456 57.0073L12.7272 57.5041L13.224 57.7753L12.7272 58.0441L12.456 58.5409L12.1848 58.0441L11.6904 57.7753L12.1848 57.5041L12.456 57.0073Z" fill="#F0F0F0"/>
<path d="M90.1584 15.0144L90.7848 16.1592L91.9296 16.7856L90.7848 17.4096L90.1584 18.5544L89.5344 17.4096L88.3896 16.7856L89.5344 16.1592L90.1584 15.0144Z" fill="#F0F0F0"/>
<path d="M17.5345 49.2241L18.1585 50.3641L19.3009 50.9881L18.1585 51.6145L17.5345 52.7545L16.9105 51.6145L15.7681 50.9881L16.9105 50.3641L17.5345 49.2241Z" fill="#F0F0F0"/>
<path d="M104.798 76.4546L105.422 77.597L106.562 78.221L105.422 78.845L104.798 79.9874L104.174 78.845L103.032 78.221L104.174 77.597L104.798 76.4546Z" fill="#F0F0F0"/>
</svg>
