<svg xmlns="http://www.w3.org/2000/svg" xml:space="preserve" id="apple-healt" x="0" y="0" version="1.1" viewBox="0 0 100 100">
  <g id="Symbols_1_">
    <path id="Background" d="M63.6 5c9 0 13.5 0 18.4 1.5 5.3 1.9 9.5 6.1 11.4 11.4C95 22.8 95 27.4 95 36.4v27.2c0 9 0 13.5-1.5 18.4-1.9 5.3-6.1 9.5-11.4 11.4-5 1.6-9.5 1.6-18.5 1.6H36.4c-9 0-13.5 0-18.4-1.5-5.4-2-9.5-6.1-11.5-11.5C5 77.2 5 72.7 5 63.6V36.4c0-9 0-13.5 1.5-18.4 2-5.3 6.1-9.5 11.5-11.4C22.8 5 27.3 5 36.4 5h27.2z" style="fill:#fff"></path>
    <linearGradient id="SVGID_1_" x1="166.222" x2="166.222" y1="758.591" y2="757.091" gradientTransform="matrix(28 0 0 -24.5 -4594.5 18605.5)" gradientUnits="userSpaceOnUse">
      <stop offset="0" stop-color="#FF61AD"></stop>
      <stop offset="1" stop-color="#FF2719"></stop>
    </linearGradient>
    <path d="M80.7 32c0-6.8-5.2-12-11.2-12-4.2 0-7.6 1.4-9.7 4.5-2.1-3.1-5.5-4.5-9-4.5-6.8 0-12 5.2-12 12 0-.3 0-.2 0 0 0-.1 0 0 0 0 0 10.1 9.7 20.3 21 24.7 8.8-2.9 20.9-14.6 20.9-24.7 0 0 0-.1 0 0 0-.2 0-.3 0 0z" style="fill:url(#SVGID_1_)"></path>
  </g>
</svg>
