<svg xmlns="http://www.w3.org/2000/svg" width="20" height="20" id="google">
  <path fill-rule="evenodd" d="M5.985 8.441c.82-1.975 2.675-2.957 4.076-2.96-.025.003.145.025 8.93.025C15.898-.444 10.069.008 10.069.008c-5.896.232-8.204 4.54-8.204 4.54l4.066 3.996.054-.103zm-.174 2.888c-1.172-2.034-3.34-5.727-3.946-6.782-3.96 5.616-.382 10.536-.382 10.536 3.046 4.832 7.616 4.908 7.912 4.908l1.32-5.476a4.422 4.422 0 0 1-4.904-3.186zm13.18-5.823-5.445 1.702c.872 1.139 1.615 3.789-.14 5.822-1.153 2.001-3.39 5.887-4.01 6.961 6.617.252 9.317-5.066 9.317-5.066 2.638-5.027.428-9.112.279-9.419zm-5.248 4.632a3.681 3.681 0 0 1-3.678 3.684 3.683 3.683 0 0 1-3.678-3.684 3.681 3.681 0 0 1 3.678-3.685 3.681 3.681 0 0 1 3.678 3.685z"></path>
</svg>
