<svg version="1.1" id="Layer_1" xmlns="http://www.w3.org/2000/svg" x="0" y="0" viewBox="0 0 1920 1001" style="enable-background:new 0 0 1920 1001" xml:space="preserve"><style>.st1{opacity:2.000000e-02;fill:#fff;enable-background:new}</style><path style="fill:#141414" d="M0 0h1920v1000H0z"/><path class="st1" d="m203.5 272-101 101v1l82 82L286 354.5 203.5 272zM663 326.5l-98 98 112 112 98-98-112-112zM867.5 729l-103 103 98.5 98.5L966 827l-98.5-98zM1369 425.5 1257.5 537l103 103.5 112-111.5L1369 425.5zM1527 69.5l-81.5 82 98.5 98 81.5-81.5-98.5-98.5zM1942 60.5l-105.5 106 85 84.5 101-109.5-80.5-81zM1672.5 729 1561 840.5l97.5 98 111.5-112-97.5-97.5zM261 728.5l-98 98L275 938l98-97.5-112-112zM501-25l-94 93.5 82 82L582.5 57 501-25z"/><linearGradient id="SVGID_1_" gradientUnits="userSpaceOnUse" x1="1001.854" y1="1154.707" x2="1001.854" y2="-59.5" gradientTransform="matrix(1 0 0 -1 0 980)"><stop offset="0" style="stop-color:#fff;stop-opacity:.8"/><stop offset="1" style="stop-color:#fff;stop-opacity:.45"/></linearGradient><path d="m-19 283 457-457L543.5-68.5-19 494v165l783.5-783.5L861-28-11.5 844.5v156l1125-1125L1226-12 175 1039h193L1513.5-106.5 1608-12 557 1039h198L1918.5-124.5l104 104L963 1039h202.5L1960 244.5v196L1361.5 1039h197l380-380v165l-215 215h137l78-78" style="fill:none;stroke:url(#SVGID_1_);stroke-opacity:5.000000e-02"/><linearGradient id="SVGID_2_" gradientUnits="userSpaceOnUse" x1="931.646" y1="1154.707" x2="931.646" y2="-59.5" gradientTransform="matrix(1 0 0 -1 0 980)"><stop offset="0" style="stop-color:#fff;stop-opacity:.8"/><stop offset="1" style="stop-color:#fff;stop-opacity:.45"/></linearGradient><path d="m1952.5 283-457-457L1390-68.5 1952.5 494v165L1169-124.5 1072.5-28 1945 844.5v156L820-124.5 707.5-12l1051 1051h-193L420-106.5 325.5-12l1051 1051h-198L15-124.5l-104 104L970.5 1039H768L-26.5 244.5v196L572 1039H375L-5 659v165l215 215H73l-78-78" style="fill:none;stroke:url(#SVGID_2_);stroke-opacity:5.000000e-02"/></svg>