<svg width="163" height="165" viewBox="0 0 163 165" fill="none" xmlns="http://www.w3.org/2000/svg">
<g id="Circle">
<circle id="Ellipse 196" cx="82" cy="83" r="34" fill="white"/>
<g id="Vector">
<path d="M153.871 84.0169L163 84.6565L162.797 87.5718C162.791 87.6481 162.779 87.7982 162.759 88.0223C162.739 88.2507 162.708 88.4699 162.668 88.6798C162.525 89.3974 162.224 89.9911 161.767 90.4612C161.313 90.9358 160.752 91.2794 160.083 91.4921C159.414 91.7048 158.693 91.784 157.919 91.7299C157.146 91.6757 156.443 91.4966 155.81 91.1927C155.177 90.8889 154.667 90.4702 154.28 89.9367C153.896 89.4077 153.683 88.7779 153.641 88.0473C153.63 87.8381 153.63 87.619 153.642 87.39C153.654 87.1611 153.662 87.0085 153.668 86.9323L153.871 84.0169ZM155.201 85.6739L155.107 87.0331C155.098 87.1601 155.091 87.3213 155.086 87.5167C155.08 87.7163 155.087 87.8934 155.106 88.0479C155.156 88.4854 155.324 88.8503 155.609 89.1426C155.895 89.435 156.25 89.6599 156.677 89.8174C157.103 89.9792 157.555 90.0768 158.033 90.1102C158.527 90.1449 158.997 90.1118 159.441 90.011C159.885 89.9103 160.265 89.7326 160.58 89.4781C160.895 89.2279 161.107 88.8938 161.217 88.476C161.262 88.326 161.293 88.1516 161.311 87.9528C161.333 87.7587 161.349 87.598 161.357 87.471L161.452 86.1118L155.201 85.6739Z" fill="#141414"/>
<path d="M152.28 97.331L161.231 99.2373L160.913 100.738L151.962 98.8319L152.28 97.331Z" fill="#141414"/>
<path d="M149.211 107.454C149.414 106.896 149.702 106.407 150.075 105.988C150.451 105.574 150.897 105.251 151.414 105.019C151.93 104.792 152.502 104.675 153.13 104.669C153.763 104.665 154.438 104.794 155.154 105.055C156.094 105.398 156.833 105.866 157.37 106.459C157.911 107.054 158.248 107.721 158.381 108.461C158.517 109.202 158.447 109.955 158.168 110.721C157.783 111.782 157.231 112.532 156.513 112.97C155.797 113.413 154.955 113.583 153.988 113.479L154.29 111.922C154.859 111.944 155.362 111.825 155.799 111.564C156.241 111.305 156.566 110.889 156.774 110.314C156.992 109.739 157.041 109.212 156.922 108.735C156.802 108.258 156.543 107.836 156.144 107.469C155.744 107.106 155.229 106.81 154.6 106.581C153.971 106.351 153.389 106.248 152.854 106.269C152.322 106.292 151.858 106.448 151.46 106.737C151.06 107.029 150.752 107.463 150.534 108.039C150.372 108.472 150.311 108.881 150.351 109.266C150.396 109.653 150.544 110.009 150.795 110.336C151.05 110.664 151.411 110.954 151.879 111.205L152.431 109.686L153.559 110.097L152.451 113.149C152.384 113.133 152.289 113.105 152.164 113.064C152.039 113.023 151.964 112.998 151.941 112.99C151.128 112.693 150.465 112.268 149.949 111.714C149.436 111.166 149.109 110.527 148.968 109.798C148.827 109.069 148.908 108.288 149.211 107.454Z" fill="#141414"/>
<path d="M145.419 116.518L153.499 120.822L152.78 122.177L144.699 117.872L145.419 116.518Z" fill="#141414"/>
<path d="M140.293 124.885L146.535 129.428L148.275 127.028L149.437 127.874L145.056 133.916L143.894 133.07L145.634 130.67L139.393 126.126L140.293 124.885Z" fill="#141414"/>
<path d="M135.798 130.727L140.377 139.176L138.819 140.792L130.232 136.503L131.326 135.367L139.052 139.194L138.813 139.442L134.704 131.863L135.798 130.727ZM136.108 133.266L137.136 134.261L133.799 137.724L132.77 136.729L136.108 133.266Z" fill="#141414"/>
<path d="M127.268 138.948L132.902 146.173L131.695 147.118L126.945 141.027L123.76 143.52L122.876 142.386L127.268 138.948Z" fill="#141414"/>
<path d="M108.456 150.21L109.044 151.669L107.588 152.258L107 150.8L108.456 150.21Z" fill="#141414"/>
<path d="M91.9492 154.909L90.0364 164.329L87.8053 164.564L83.9794 155.748L85.5468 155.583L89.009 163.49L88.6677 163.526L90.3818 155.074L91.9492 154.909ZM90.5574 157.053L90.7069 158.477L85.9288 158.98L85.7793 157.556L90.5574 157.053Z" fill="#141414"/>
<path d="M78.1636 155.452C78.7563 155.473 79.3095 155.596 79.8231 155.822C80.3322 156.053 80.7766 156.378 81.1562 156.799C81.5315 157.22 81.819 157.729 82.0186 158.327C82.2181 158.928 82.3045 159.611 82.2779 160.374C82.243 161.375 82.0269 162.224 81.6296 162.919C81.2322 163.619 80.703 164.146 80.042 164.501C79.3809 164.86 78.6438 165.025 77.8309 164.997C76.7046 164.957 75.8225 164.663 75.1845 164.114C74.5422 163.569 74.1211 162.82 73.9212 161.866L75.4922 161.672C75.6469 162.221 75.9155 162.664 76.298 163C76.6804 163.341 77.1765 163.521 77.7862 163.543C78.3998 163.573 78.9147 163.457 79.3308 163.195C79.7469 162.934 80.0674 162.556 80.2923 162.063C80.513 161.57 80.635 160.988 80.6584 160.318C80.6817 159.647 80.6004 159.061 80.4145 158.557C80.2284 158.058 79.9369 157.663 79.5401 157.373C79.139 157.083 78.6316 156.923 78.0179 156.893C77.5566 156.873 77.1493 156.941 76.7962 157.099C76.443 157.261 76.1502 157.512 75.9179 157.852C75.6854 158.196 75.5219 158.63 75.4274 159.153L77.0406 159.21L76.9987 160.413L73.7596 160.299C73.7535 160.231 73.7506 160.131 73.7509 160C73.7513 159.868 73.7519 159.789 73.7528 159.764C73.783 158.898 73.9813 158.135 74.3477 157.472C74.7098 156.814 75.2151 156.305 75.8635 155.945C76.5119 155.586 77.2786 155.421 78.1636 155.452Z" fill="#141414"/>
<path d="M70.8115 155.068L69.2224 164.097L63.402 163.069L63.6514 161.651L67.9635 162.413L68.3553 160.187L64.7942 159.558L65.0436 158.141L68.6047 158.77L69.0538 156.218L64.7417 155.456L64.9911 154.039L70.8115 155.068Z" fill="#141414"/>
<path d="M61.6256 153.241L58.7977 161.961L57.323 161.481L55.2788 154.02L53.2856 160.167L51.8108 159.686L54.6387 150.967L56.1135 151.447L58.1576 158.907L60.1509 152.761L61.6256 153.241Z" fill="#141414"/>
<path d="M48.7023 148.076C49.5248 148.478 50.142 149.002 50.5538 149.647C50.9638 150.296 51.1699 151.02 51.1721 151.819C51.1704 152.616 50.9625 153.44 50.5484 154.291C50.1342 155.142 49.6141 155.813 48.9879 156.306C48.358 156.796 47.6625 157.077 46.9015 157.149C46.1387 157.225 45.346 157.062 44.5235 156.66C43.5753 156.197 42.9012 155.572 42.5013 154.786C42.0994 154.004 41.9669 153.149 42.1037 152.219L43.6783 152.514C43.5764 153.13 43.6443 153.683 43.8822 154.172C44.1182 154.665 44.5428 155.061 45.1559 155.361C45.708 155.631 46.2291 155.732 46.7192 155.664C47.2055 155.595 47.6515 155.381 48.0573 155.022C48.4573 154.665 48.806 154.186 49.1033 153.585C49.3967 152.982 49.5616 152.411 49.598 151.872C49.6287 151.334 49.5197 150.851 49.2711 150.423C49.0224 149.994 48.622 149.645 48.0699 149.375C47.4568 149.076 46.8837 148.984 46.3505 149.102C45.8173 149.219 45.3408 149.506 44.9208 149.961L43.7195 148.9C44.3665 148.22 45.1221 147.795 45.9864 147.627C46.8488 147.463 47.7541 147.613 48.7023 148.076Z" fill="#141414"/>
<path d="M40.4891 143.602L38.3924 146.716L37.9534 152.948L36.4729 151.947L36.7688 147.739L32.9904 149.594L31.5099 148.593L37.1069 145.848L39.2036 142.733L40.4891 143.602Z" fill="#141414"/>
<path d="M24.9826 129.831L23.7801 130.842L22.7711 129.637L23.9736 128.627L24.9826 129.831Z" fill="#141414"/>
<path d="M14.1261 112.17C14.4225 112.837 14.5481 113.484 14.5029 114.113C14.456 114.738 14.2506 115.304 13.8865 115.81C13.5208 116.312 13.007 116.711 12.3451 117.006L7.10266 119.345L6.46035 117.931L11.6796 115.603C11.9931 115.463 12.2505 115.285 12.4516 115.07C12.6511 114.851 12.7974 114.612 12.8906 114.352C12.9799 114.093 13.0165 113.826 13.0004 113.55C12.9843 113.274 12.9203 113.01 12.8082 112.757C12.6928 112.498 12.5389 112.271 12.3464 112.078C12.1484 111.883 11.9238 111.733 11.6725 111.626C11.4173 111.522 11.1426 111.472 10.8484 111.478C10.5542 111.484 10.2522 111.556 9.9426 111.694L4.72334 114.022L4.09264 112.603L9.34674 110.259C10.0086 109.964 10.649 109.85 11.2681 109.918C11.8854 109.982 12.4424 110.207 12.9391 110.594C13.4341 110.978 13.8297 111.503 14.1261 112.17Z" fill="#141414"/>
<path d="M11.4687 106.155L6.16665 104.446L2.64743 108.597L2.13068 106.791L4.65332 103.894L0.986824 102.795L0.466571 100.977L5.64639 102.628L9.24233 98.3763L9.75908 100.182L7.15796 103.175L10.9485 104.338L11.4687 106.155Z" fill="#141414"/>
<path d="M7.63429 82.8571H6.06459V81.2845H7.63429V82.8571Z" fill="#141414"/>
<path d="M9.53425 65.5386L0 65.5881L0.443178 64.0396L7.29915 64.1082L1.45912 60.5361L1.89008 58.9842L8.74604 59.0528L2.8938 55.4772L3.33697 53.9288L11.398 59.0265L10.9811 60.4831L4.2089 60.4916L9.95115 64.0819L9.53425 65.5386Z" fill="#141414"/>
<path d="M12.8025 55.274L4.44239 51.5449L6.84629 46.1355L8.15837 46.7207L6.37741 50.7284L8.43842 51.6477L9.90919 48.3381L11.2213 48.9234L9.75049 52.233L12.1134 53.287L13.8943 49.2794L15.2064 49.8646L12.8025 55.274Z" fill="#141414"/>
<path d="M17.2969 45.9793L9.53612 41.1208L11.4591 38.0376C11.7868 37.5121 12.1611 37.1483 12.5819 36.9462C13.0013 36.7383 13.425 36.6557 13.853 36.6984C14.2833 36.7375 14.6726 36.8661 15.0212 37.0843C15.4487 37.352 15.7476 37.6818 15.9179 38.0737C16.0903 38.4619 16.1198 38.8633 16.0062 39.2777L15.7367 39.109C16.1535 38.6891 16.6164 38.4635 17.1257 38.4319C17.6372 38.3968 18.1175 38.5198 18.5667 38.8009C19.0265 39.0889 19.374 39.429 19.6089 39.8213C19.8438 40.2136 19.9494 40.6451 19.9256 41.1157C19.9041 41.5828 19.7339 42.0719 19.4151 42.583L17.2969 45.9793ZM16.8952 43.8959L18.0907 41.9791C18.2321 41.7523 18.3141 41.5208 18.3365 41.2846C18.3553 41.0461 18.3136 40.8248 18.2111 40.6205C18.1074 40.4104 17.9405 40.2334 17.7106 40.0894C17.5022 39.959 17.2873 39.887 17.0659 39.8735C16.8445 39.86 16.6314 39.9093 16.4266 40.0214C16.2183 40.1312 16.0389 40.3067 15.8884 40.5479L14.6693 42.5025L16.8952 43.8959ZM13.4567 41.7433L14.5479 39.9939C14.6646 39.8067 14.7331 39.6168 14.7533 39.4242C14.7735 39.2317 14.7404 39.0483 14.6542 38.8742C14.5679 38.7001 14.4224 38.5489 14.2176 38.4207C13.9482 38.252 13.6697 38.1978 13.3823 38.2581C13.0949 38.3185 12.8546 38.5034 12.6616 38.813L11.5704 40.5624L13.4567 41.7433Z" fill="#141414"/>
<path d="M29.1696 30.4405L23.0462 23.627L25.214 21.6715C25.2706 21.6204 25.3838 21.5211 25.5535 21.3737C25.7264 21.2235 25.9 21.0869 26.0745 20.9638C26.6752 20.5475 27.3031 20.3295 27.9581 20.3098C28.6134 20.2841 29.2554 20.4275 29.8841 20.74C30.5127 21.0526 31.0864 21.4974 31.6052 22.0747C32.124 22.6519 32.5056 23.2701 32.7502 23.9291C32.9947 24.5882 33.0713 25.2444 32.9802 25.8978C32.8893 26.5453 32.6059 27.1465 32.1298 27.7016C31.9926 27.8597 31.8403 28.017 31.6732 28.1735C31.506 28.33 31.394 28.4339 31.3374 28.485L29.1696 30.4405ZM29.3614 28.3227L30.3721 27.4109C30.4665 27.3257 30.5833 27.2146 30.7225 27.0777C30.8648 26.9379 30.9827 26.8058 31.0762 26.6815C31.3435 26.3318 31.4758 25.9526 31.4732 25.5437C31.4706 25.1348 31.3705 24.7253 31.173 24.3152C30.9786 23.9022 30.7212 23.5175 30.4009 23.1611C30.0692 22.792 29.7086 22.4891 29.319 22.2522C28.9294 22.0154 28.533 21.8788 28.1299 21.8426C27.73 21.8036 27.3457 21.8961 26.9769 22.1202C26.8409 22.1972 26.6975 22.3009 26.5467 22.4312C26.3962 22.5556 26.2737 22.6604 26.1793 22.7456L25.1686 23.6573L29.3614 28.3227Z" fill="#141414"/>
<path d="M37.5056 23.349L32.3882 15.748L37.288 12.4368L38.0912 13.6297L34.4611 16.0829L35.7227 17.9567L38.7205 15.9309L39.5236 17.1238L36.5258 19.1497L37.9722 21.298L41.6022 18.8449L42.4054 20.0378L37.5056 23.349Z" fill="#141414"/>
<path d="M49.2106 16.6104C48.6089 16.9044 48.0152 17.0646 47.4295 17.0911C46.8475 17.1157 46.3057 17.0097 45.804 16.7732C45.3043 16.5309 44.8816 16.1613 44.5359 15.6643L45.8581 14.7491C46.2176 15.1779 46.6509 15.4337 47.1579 15.5165C47.6687 15.5975 48.1716 15.5171 48.6667 15.2752C48.9599 15.1319 49.2137 14.9512 49.428 14.7331C49.6424 14.515 49.7868 14.2792 49.8613 14.0255C49.9396 13.77 49.9166 13.5145 49.7921 13.2588C49.7364 13.1444 49.6663 13.0488 49.5818 12.972C49.4954 12.8914 49.3956 12.8316 49.2823 12.7925C49.1728 12.7516 49.0442 12.7294 48.8964 12.726C48.7506 12.717 48.5904 12.7268 48.4158 12.7555L45.9845 13.1643C45.7757 13.2002 45.5434 13.2263 45.2874 13.2428C45.0334 13.2536 44.7731 13.2273 44.5066 13.1639C44.242 13.0948 43.9893 12.968 43.7486 12.7834C43.5098 12.5931 43.3022 12.3167 43.1258 11.9543C42.8676 11.424 42.7845 10.9144 42.8765 10.4255C42.9704 9.93098 43.2003 9.48335 43.5662 9.08261C43.9358 8.68001 44.3996 8.34479 44.9574 8.07693C45.5228 7.80536 46.0728 7.65703 46.6074 7.63194C47.1401 7.60303 47.6423 7.69531 48.1139 7.9088C48.5855 8.12228 49.0057 8.45294 49.3746 8.9008L48.0206 9.88123C47.8185 9.62105 47.5807 9.43266 47.3071 9.31606C47.0354 9.19377 46.7479 9.14062 46.4446 9.15662C46.1451 9.17075 45.8526 9.24283 45.5671 9.37289C45.291 9.50305 45.0563 9.66969 44.863 9.8728C44.6715 10.0702 44.5425 10.2844 44.4758 10.5154C44.4129 10.7445 44.4335 10.9658 44.5375 11.1795C44.6359 11.3817 44.7776 11.5178 44.9626 11.588C45.1458 11.6544 45.3454 11.682 45.5615 11.6708C45.7796 11.654 45.994 11.6248 46.2047 11.5832L47.879 11.2751C48.1068 11.2299 48.3686 11.1917 48.6645 11.1604C48.9604 11.1292 49.2645 11.1388 49.5766 11.1894C49.8887 11.2399 50.1841 11.3624 50.4626 11.5569C50.7449 11.7496 50.9864 12.0519 51.187 12.4639C51.395 12.8912 51.4884 13.3107 51.4673 13.7225C51.4482 14.1285 51.3402 14.5119 51.1433 14.8725C50.9465 15.2332 50.6799 15.5618 50.3435 15.8584C50.0109 16.1532 49.6333 16.4038 49.2106 16.6104Z" fill="#141414"/>
<path d="M57.7844 12.9441L54.9565 4.22437L56.4131 3.7502L59.241 12.47L57.7844 12.9441Z" fill="#141414"/>
<path d="M68.0697 10.5455C67.4856 10.6487 66.9189 10.6432 66.3696 10.5291C65.8238 10.41 65.3216 10.1841 64.8629 9.8513C64.4085 9.51782 64.0216 9.07971 63.7024 8.537C63.3824 7.9901 63.1562 7.34044 63.0238 6.588C62.8502 5.60149 62.8855 4.72675 63.1298 3.96379C63.3734 3.19666 63.7816 2.57068 64.3545 2.08586C64.9267 1.59688 65.6133 1.28163 66.4144 1.14011C67.5242 0.944046 68.4481 1.04805 69.1861 1.45215C69.9274 1.85133 70.4949 2.49673 70.8884 3.38838L69.3919 3.90491C69.1266 3.40007 68.7721 3.02307 68.3281 2.77393C67.8834 2.5206 67.3607 2.44701 66.7599 2.55315C66.1534 2.65167 65.6738 2.87215 65.3211 3.21463C64.9684 3.5571 64.7332 3.99303 64.6156 4.5224C64.5021 5.05104 64.5035 5.64561 64.6197 6.30608C64.736 6.96655 64.9373 7.52362 65.2236 7.97733C65.5092 8.42685 65.8762 8.75209 66.3246 8.95305C66.7771 9.15326 67.3066 9.2041 67.9131 9.10559C68.3686 9.02942 68.7527 8.87753 69.0654 8.64989C69.3774 8.41805 69.6117 8.11159 69.7683 7.73048C69.9242 7.3452 69.9941 6.88675 69.978 6.35515L68.3883 6.63596L68.1798 5.45088L71.3716 4.88701C71.3917 4.95242 71.4153 5.04955 71.4422 5.17841C71.4692 5.30725 71.4849 5.38422 71.4893 5.4093C71.6394 6.26205 71.604 7.05061 71.383 7.77496C71.1654 8.4944 70.7768 9.0975 70.2172 9.58429C69.6576 10.0711 68.9417 10.3915 68.0697 10.5455Z" fill="#141414"/>
<path d="M74.4974 9.41977L74.178 0.256866L75.7277 0.202637L80.1954 6.51279L79.9703 0.0541992L81.52 0L81.8394 9.1629L80.2897 9.21712L75.822 2.90698L76.0471 9.36555L74.4974 9.41977Z" fill="#141414"/>
<path d="M98.0205 11.3275L98.4002 9.80153L99.9233 10.182L99.5435 11.7079L98.0205 11.3275Z" fill="#141414"/>
<path d="M114.902 17.6928L119.477 9.75266L122.62 11.5704C123.155 11.8803 123.531 12.2424 123.748 12.6566C123.97 13.0693 124.067 13.4907 124.039 13.9207C124.015 14.3529 123.901 14.7472 123.695 15.1038C123.443 15.5412 123.124 15.852 122.739 16.0362C122.358 16.2224 121.959 16.2659 121.542 16.1666L121.7 15.8909C122.134 16.2935 122.375 16.7492 122.424 17.2581C122.477 17.769 122.371 18.2542 122.106 18.7137C121.835 19.1842 121.508 19.5439 121.125 19.7928C120.742 20.0417 120.315 20.1625 119.845 20.1552C119.378 20.1499 118.884 19.9966 118.363 19.6952L114.902 17.6928ZM116.966 17.2179L118.92 18.348C119.151 18.4818 119.384 18.5557 119.621 18.5699C119.859 18.5805 120.079 18.5309 120.279 18.4212C120.485 18.31 120.656 18.1368 120.791 17.9015C120.914 17.6883 120.978 17.4706 120.984 17.2485C120.99 17.0263 120.933 16.8147 120.814 16.6136C120.698 16.4088 120.516 16.2352 120.27 16.093L118.278 14.9406L116.966 17.2179ZM118.993 13.7L120.776 14.7314C120.967 14.8418 121.159 14.9037 121.352 14.9172C121.544 14.9307 121.726 14.8913 121.897 14.7988C122.067 14.7064 122.213 14.5554 122.334 14.3459C122.493 14.0702 122.537 13.7895 122.467 13.5038C122.397 13.2182 122.204 12.9841 121.888 12.8015L120.105 11.7701L118.993 13.7Z" fill="#141414"/>
<path d="M123.42 22.9748L129.054 15.7499L132.034 18.0823C132.104 18.1371 132.192 18.211 132.297 18.304C132.404 18.3936 132.498 18.4833 132.579 18.5732C132.946 18.9634 133.182 19.3714 133.285 19.7971C133.392 20.2255 133.383 20.6545 133.257 21.0842C133.138 21.5132 132.923 21.9267 132.613 22.3248C132.154 22.9135 131.61 23.3039 130.981 23.4961C130.356 23.685 129.697 23.5892 129.004 23.2087L128.453 22.8501L126.595 21.3958L124.627 23.9195L123.42 22.9748ZM127.562 26.2166L128.432 22.1632L129.87 22.8526L128.929 27.2867L127.562 26.2166ZM127.475 20.2669L129.198 21.6154C129.265 21.6676 129.343 21.7231 129.431 21.7817C129.52 21.8404 129.607 21.8871 129.693 21.9219C129.932 22.0285 130.158 22.0627 130.371 22.0245C130.587 21.9888 130.781 21.909 130.953 21.7851C131.128 21.6637 131.276 21.5261 131.396 21.3722C131.516 21.2184 131.613 21.0416 131.688 20.8418C131.77 20.6413 131.801 20.4318 131.783 20.2132C131.769 19.9973 131.681 19.7858 131.52 19.5788C131.466 19.5039 131.398 19.4321 131.317 19.3634C131.239 19.2914 131.166 19.2292 131.1 19.177L129.377 17.8285L127.475 20.2669Z" fill="#141414"/>
<path d="M130.78 29.0008L139.367 24.7112L140.925 26.3279L136.347 34.7762L135.252 33.6404L139.339 26.039L139.578 26.2863L131.875 30.1367L130.78 29.0008ZM133.323 28.7796L134.352 27.7845L137.689 31.247L136.661 32.2421L133.323 28.7796Z" fill="#141414"/>
<path d="M137.685 36.4533L145.088 31.0642L146 32.321L143.277 39.5605L148.495 35.7619L149.407 37.0188L142.003 42.4079L141.092 41.151L143.815 33.9116L138.596 37.7101L137.685 36.4533Z" fill="#141414"/>
<path d="M143.575 44.9431L151.655 40.6388L153.024 43.2192C153.06 43.2866 153.129 43.4207 153.231 43.6213C153.334 43.8257 153.425 44.0275 153.502 44.2269C153.759 44.9116 153.819 45.5747 153.679 46.2162C153.546 46.8595 153.251 47.4489 152.797 47.9844C152.342 48.5199 151.772 48.97 151.088 49.3347C150.403 49.6993 149.712 49.9208 149.015 49.9991C148.317 50.0773 147.663 49.9931 147.052 49.7464C146.447 49.5014 145.934 49.0804 145.511 48.4834C145.391 48.3117 145.276 48.1257 145.165 47.9253C145.053 47.7249 144.98 47.591 144.944 47.5235L143.575 44.9431ZM145.579 45.6419L146.218 46.845C146.278 46.9574 146.357 47.0978 146.456 47.2663C146.557 47.4384 146.656 47.585 146.754 47.706C147.028 48.0504 147.363 48.2708 147.76 48.3671C148.157 48.4635 148.577 48.4653 149.022 48.3725C149.469 48.2834 149.904 48.1263 150.327 47.9011C150.765 47.668 151.145 47.3907 151.469 47.0692C151.792 46.7478 152.021 46.3955 152.153 46.0124C152.288 45.6331 152.291 45.2371 152.163 44.8244C152.122 44.6736 152.056 44.5091 151.966 44.3309C151.882 44.1545 151.81 44.0101 151.751 43.8977L151.112 42.6946L145.579 45.6419Z" fill="#141414"/>
<path d="M149.268 57.0788L157.867 53.943L158.391 55.3849L149.791 58.5207L149.268 57.0788Z" fill="#141414"/>
<path d="M151.44 63.6457L160.392 61.7394L160.714 63.259L155.287 68.7629L161.597 67.4193L161.919 68.9389L152.968 70.8451L152.645 69.3255L158.072 63.8216L151.763 65.1653L151.44 63.6457Z" fill="#141414"/>
<path d="M153.433 77.3831C153.392 76.7903 153.456 76.2263 153.627 75.6909C153.802 75.1595 154.079 74.6827 154.458 74.2605C154.836 73.8425 155.311 73.5029 155.883 73.2415C156.46 72.9799 157.128 72.8224 157.889 72.7691C158.887 72.6992 159.751 72.8259 160.483 73.1491C161.219 73.4719 161.798 73.9441 162.219 74.5656C162.645 75.1868 162.886 75.9039 162.943 76.7169C163.021 77.8433 162.821 78.7529 162.343 79.446C161.869 80.143 161.169 80.6409 160.243 80.9398L159.887 79.3947C160.416 79.1832 160.827 78.8693 161.121 78.453C161.419 78.0364 161.546 77.5232 161.504 76.9135C161.469 76.2989 161.301 75.798 160.998 75.4107C160.694 75.0235 160.286 74.7436 159.773 74.571C159.26 74.4027 158.67 74.342 158.002 74.3888C157.334 74.4355 156.76 74.5779 156.28 74.8158C155.804 75.0534 155.443 75.385 155.196 75.8108C154.95 76.2408 154.845 76.763 154.879 77.3776C154.907 77.8394 155.018 78.238 155.211 78.5734C155.408 78.9085 155.688 79.174 156.05 79.3699C156.416 79.5655 156.864 79.683 157.393 79.7225L157.281 78.1093L158.479 78.0253L158.705 81.2646C158.638 81.2778 158.539 81.2911 158.408 81.3045C158.278 81.3179 158.2 81.3255 158.174 81.3273C157.312 81.3877 156.533 81.27 155.837 80.9741C155.146 80.6821 154.588 80.2319 154.163 79.6234C153.738 79.0149 153.495 78.2681 153.433 77.3831Z" fill="#141414"/>
</g>
<g id="G">
<path id="Ellipse 189" d="M81.2113 63C78.5983 63 76.0441 63.7748 73.8715 65.2265C71.6989 66.6781 70.0056 68.7414 69.0056 71.1554C68.0057 73.5694 67.7441 76.2257 68.2539 78.7884C68.7636 81.351 70.0219 83.705 71.8695 85.5526C73.7171 87.4002 76.0712 88.6584 78.6339 89.1682C81.1966 89.6779 83.853 89.4163 86.267 88.4164C88.6811 87.4165 90.7444 85.7232 92.1961 83.5507C93.6477 81.3781 94.4226 78.8239 94.4226 76.211H88.1224C88.1224 77.5779 87.7171 78.914 86.9577 80.0505C86.1983 81.187 85.1189 82.0728 83.8561 82.5959C82.5932 83.119 81.2036 83.2558 79.863 82.9892C78.5224 82.7225 77.2909 82.0643 76.3244 81.0978C75.3579 80.1313 74.6996 78.8999 74.433 77.5593C74.1663 76.2187 74.3032 74.8291 74.8262 73.5663C75.3493 72.3035 76.2351 71.2241 77.3717 70.4648C78.5082 69.7054 79.8444 69.3 81.2113 69.3V63Z" fill="#141414"/>
<path id="Ellipse 190" d="M68 89.789C68 91.5239 68.3417 93.2418 69.0056 94.8446C69.6696 96.4475 70.6427 97.9039 71.8695 99.1306C73.0963 100.357 74.5527 101.33 76.1555 101.994C77.7584 102.658 79.4764 103 81.2113 103C82.9462 103 84.6642 102.658 86.267 101.994C87.8699 101.33 89.3263 100.357 90.5531 99.1306C91.7799 97.9039 92.753 96.4475 93.4169 94.8447C94.0808 93.2418 94.4226 91.5239 94.4226 89.789H88.1224C88.1224 90.6966 87.9436 91.5953 87.5963 92.4337C87.249 93.2722 86.7399 94.0341 86.0982 94.6758C85.4564 95.3176 84.6945 95.8266 83.8561 96.1739C83.0176 96.5212 82.1189 96.7 81.2113 96.7C80.3037 96.7 79.405 96.5212 78.5665 96.1739C77.728 95.8266 76.9661 95.3176 76.3244 94.6758C75.6826 94.0341 75.1736 93.2722 74.8262 92.4337C74.4789 91.5953 74.3002 90.6966 74.3002 89.789H68Z" fill="#141414"/>
<path id="Vector 4" d="M84.8811 68.8716V63H94.4226V72.7248H88.5509V68.8716H84.8811Z" fill="#141414"/>
</g>
</g>
</svg>
